<svg xmlns="http://www.w3.org/2000/svg" xmlns:xlink="http://www.w3.org/1999/xlink" width="120" height="120" viewBox="0 0 120 120">
    <defs>
        <linearGradient id="4nx50gks1a" x1="19.126" y1="41.338" x2="22.514" y2="41.338" gradientUnits="objectBoundingBox">
            <stop offset="0" stop-color="#ffbeb6"/>
            <stop offset="1" stop-color="#f2a19c"/>
        </linearGradient>
        <linearGradient id="gzi0czq1ac" x1="13.865" y1="50.883" x2="17.25" y2="50.883" gradientUnits="objectBoundingBox">
            <stop offset="0" stop-color="#d6d7d8"/>
            <stop offset="1" stop-color="#eee"/>
        </linearGradient>
        <linearGradient id="raa6bidxed" x1="64.131" y1="90.24" x2="67.529" y2="90.24" xlink:href="#4nx50gks1a"/>
        <clipPath id="s72cybx13b">
            <circle data-name="타원 223" cx="60" cy="60" r="60" style="fill:#f7f8fb"/>
        </clipPath>
    </defs>
    <g>
        <circle data-name="타원 219" cx="60" cy="60" r="60" style="fill:#d8efed"/>
        <g data-name="마스크 그룹 9" style="clip-path:url(#s72cybx13b)">
            <g data-name="그룹 1686">
                <g data-name="그룹 1685" transform="translate(-3.884 25.355)">
                    <path data-name="패스 19199" d="m1820.514 226.688-28.855 42.8-39.469-26.661 28.855-42.8z" transform="translate(-1726.748 -178.876)" style="fill:#a1c3fc"/>
                    <path data-name="패스 19200" d="m1697.615 195.138 1.813.855-.854 1.817-1.813-.855z" transform="translate(-1696.762 -176.231)" style="fill:#a1c3fc"/>
                    <g data-name="그룹 1677">
                        <path data-name="패스 19201" d="M1770.084 296.871z" transform="translate(-1736.429 -231.267)" style="fill:#151a4f"/>
                        <path data-name="패스 19202" d="M1793.063 267.539c-.107.053-.213.16-.32.213l.32-.213z" transform="translate(-1748.687 -215.399)" style="fill:#151a4f"/>
                        <path data-name="패스 19203" d="m1803.7 261.127-.053-.107c-.747.267-1.494.588-2.187.908l.107.214z" transform="translate(-1753.402 -211.872)" style="fill:#151a4f"/>
                        <path data-name="패스 19204" d="M1775.2 284.067c-.427.641-.853 1.336-1.28 2.031l1.814-.908z" transform="translate(-1738.503 -224.34)" style="fill:#151a4f"/>
                        <path data-name="패스 19205" d="m1784.863 278.66-1.067-2.137 2.134-1.069 1.067 2.191z" transform="translate(-1743.847 -219.681)" style="fill:#151a4f"/>
                        <path data-name="패스 19206" d="m1797.761 272.258-1.067-2.137 2.133-1.069 1.067 2.191z" transform="translate(-1750.825 -216.217)" style="fill:#151a4f"/>
                        <path data-name="패스 19207" d="m1810.659 265.856-1.067-2.137 2.134-1.069 1.067 2.191z" transform="translate(-1757.802 -212.754)" style="fill:#151a4f"/>
                        <path data-name="패스 19208" d="m1823.558 260.02 2.134-1.069-.8-1.657h-1.28l-1.12.534z" transform="translate(-1764.78 -209.857)" style="fill:#151a4f"/>
                        <path data-name="패스 19209" d="m1773.284 296.68-1.067-2.137-2.134 1.069v.054l1.067 2.137z" transform="translate(-1736.429 -230.008)" style="fill:#151a4f"/>
                        <path data-name="패스 19210" d="m1784 291.347-1.013-2.137 2.133-1.069 1.067 2.137z" transform="translate(-1743.407 -226.545)" style="fill:#151a4f"/>
                        <path data-name="패스 19211" d="m1796.831 284.945-1.067-2.137 2.187-1.069 1.013 2.137z" transform="translate(-1750.321 -223.081)" style="fill:#151a4f"/>
                        <path data-name="패스 19212" d="m1809.729 278.543-1.067-2.137 2.187-1.069 1.013 2.137z" transform="translate(-1757.299 -219.618)" style="fill:#151a4f"/>
                        <path data-name="패스 19213" d="m1822.628 272.141-1.067-2.141 2.134-1.069 1.067 2.137z" transform="translate(-1764.277 -216.154)" style="fill:#151a4f"/>
                        <path data-name="패스 19214" d="m1769.545 307.115 1.067 2.137-2.187 1.069-1.014-2.137z" transform="translate(-1734.983 -236.809)" style="fill:#151a4f"/>
                        <path data-name="패스 19215" d="m1781.323 303.918-1.013-2.137 2.133-1.069 1.067 2.137z" transform="translate(-1741.961 -233.346)" style="fill:#151a4f"/>
                        <path data-name="패스 19216" d="m1794.159 297.516-1.067-2.137 2.187-1.069 1.014 2.137z" transform="translate(-1748.876 -229.882)" style="fill:#151a4f"/>
                        <path data-name="패스 19217" d="m1807.057 291.114-1.067-2.137 2.133-1.069 1.067 2.137z" transform="translate(-1755.854 -226.419)" style="fill:#151a4f"/>
                        <path data-name="패스 19218" d="m1819.955 284.712-1.067-2.137 2.134-1.069 1.067 2.137z" transform="translate(-1762.831 -222.955)" style="fill:#151a4f"/>
                        <path data-name="패스 19219" d="m1832.853 278.31-1.067-2.137 2.134-1.069 1.067 2.137z" transform="translate(-1769.809 -219.492)" style="fill:#151a4f"/>
                        <path data-name="패스 19220" d="m1768.616 319.8 1.067 2.137-2.133 1.069-1.067-2.191z" transform="translate(-1734.48 -243.673)" style="fill:#151a4f"/>
                        <path data-name="패스 19221" d="m1782.581 315.537-2.134 1.069-1.067-2.137 2.133-1.069z" transform="translate(-1741.458 -240.209)" style="fill:#151a4f"/>
                        <path data-name="패스 19222" d="m1793.345 310.2-1.067-2.137 2.134-1.069 1.067 2.137z" transform="translate(-1748.436 -236.746)" style="fill:#151a4f"/>
                        <path data-name="패스 19223" d="m1806.244 303.8-1.067-2.137 2.133-1.069 1.067 2.137z" transform="translate(-1755.414 -233.283)" style="fill:#151a4f"/>
                        <path data-name="패스 19224" d="m1819.088 297.4-1.013-2.137 2.134-1.069 1.067 2.137z" transform="translate(-1762.391 -229.819)" style="fill:#151a4f"/>
                        <path data-name="패스 19225" d="m1831.924 291-1.067-2.137 2.187-1.069 1.013 2.137z" transform="translate(-1769.306 -226.356)" style="fill:#151a4f"/>
                        <path data-name="패스 19226" d="m1768.144 332.373-.267.107c.213.8.427 1.55.693 2.351l.64-.321z" transform="translate(-1735.235 -250.473)" style="fill:#151a4f"/>
                        <path data-name="패스 19227" d="m1778.841 325.971 1.067 2.137-2.134 1.069-1.067-2.191z" transform="translate(-1740.012 -247.01)" style="fill:#151a4f"/>
                        <path data-name="패스 19228" d="m1791.739 319.569 1.067 2.137-2.134 1.069-1.067-2.191z" transform="translate(-1746.99 -243.547)" style="fill:#151a4f"/>
                        <path data-name="패스 19229" d="m1804.638 313.167 1.067 2.137-2.187 1.069-1.013-2.137z" transform="translate(-1753.968 -240.083)" style="fill:#151a4f"/>
                        <path data-name="패스 19230" d="m1818.6 308.9-2.187 1.069-1.013-2.137 2.134-1.069z" transform="translate(-1760.945 -236.62)" style="fill:#151a4f"/>
                        <path data-name="패스 19231" d="m1828.184 301.432 2.187-1.069 1.013 2.137-2.134 1.069z" transform="translate(-1767.86 -233.157)" style="fill:#151a4f"/>
                        <path data-name="패스 19232" d="m1842.149 297.167-1.067-2.137 2.134-1.069 1.067 2.137z" transform="translate(-1774.838 -229.693)" style="fill:#151a4f"/>
                        <path data-name="패스 19233" d="m1777.912 338.543 1.067 2.137-2.134 1.069-1.067-2.137z" transform="translate(-1739.509 -253.811)" style="fill:#151a4f"/>
                        <path data-name="패스 19234" d="m1790.81 332.141 1.067 2.137-2.134 1.069-1.067-2.137z" transform="translate(-1746.487 -250.348)" style="fill:#151a4f"/>
                        <path data-name="패스 19235" d="m1804.775 327.876-2.134 1.069-1.067-2.137 2.134-1.069z" transform="translate(-1753.465 -246.884)" style="fill:#151a4f"/>
                        <path data-name="패스 19236" d="m1814.473 320.405 2.133-1.069 1.067 2.137-2.134 1.069z" transform="translate(-1760.443 -243.421)" style="fill:#151a4f"/>
                        <path data-name="패스 19237" d="m1830.571 315.072-2.133 1.069-1.067-2.141 2.134-1.069z" transform="translate(-1767.42 -239.958)" style="fill:#151a4f"/>
                        <path data-name="패스 19238" d="m1841.336 309.738-1.067-2.137 2.134-1.069 1.067 2.137z" transform="translate(-1774.398 -236.494)" style="fill:#151a4f"/>
                        <path data-name="패스 19239" d="M1777.173 352.957c.427.641.907 1.229 1.387 1.817l-1.013-2.031z" transform="translate(-1740.264 -261.493)" style="fill:#151a4f"/>
                        <path data-name="패스 19240" d="m1788.486 346.341 1.067 2.137-2.187 1.069-1.013-2.137z" transform="translate(-1745.23 -258.03)" style="fill:#151a4f"/>
                        <path data-name="패스 19241" d="m1801.321 339.939 1.013 2.137-2.134 1.069-1.067-2.137z" transform="translate(-1752.144 -254.567)" style="fill:#151a4f"/>
                        <path data-name="패스 19242" d="m1814.166 333.537 1.067 2.137-2.133 1.069-1.067-2.137z" transform="translate(-1759.123 -251.103)" style="fill:#151a4f"/>
                        <path data-name="패스 19243" d="m1828.131 329.273-2.131 1.068-1.067-2.137 2.134-1.069z" transform="translate(-1766.1 -247.64)" style="fill:#151a4f"/>
                        <path data-name="패스 19244" d="m1841.029 322.871-2.134 1.069-1.067-2.137 2.134-1.069z" transform="translate(-1773.078 -244.177)" style="fill:#151a4f"/>
                        <path data-name="패스 19245" d="m1851.794 317.537-1.067-2.137 2.134-1.069 1.067 2.137z" transform="translate(-1780.056 -240.713)" style="fill:#151a4f"/>
                        <path data-name="패스 19246" d="m1787.556 359.029-2.134 1.069.533 1.122.96.8 1.707-.855z" transform="translate(-1744.727 -264.894)" style="fill:#151a4f"/>
                        <path data-name="패스 19247" d="m1800.454 352.627 1.067 2.137-2.134 1.069-1.067-2.137z" transform="translate(-1751.705 -261.431)" style="fill:#151a4f"/>
                        <path data-name="패스 19248" d="m1813.353 346.225 1.067 2.137-2.134 1.069-1.067-2.137z" transform="translate(-1758.682 -257.967)" style="fill:#151a4f"/>
                        <path data-name="패스 19249" d="m1824.117 340.892 2.133-1.069 1.067 2.137-2.133 1.069z" transform="translate(-1765.66 -254.504)" style="fill:#151a4f"/>
                        <path data-name="패스 19250" d="m1837.016 334.49 2.134-1.069 1.067 2.137-2.187 1.069z" transform="translate(-1772.638 -251.04)" style="fill:#151a4f"/>
                        <path data-name="패스 19251" d="m1850.927 330.225-1.014-2.137 2.134-1.069 1.067 2.137z" transform="translate(-1779.616 -247.577)" style="fill:#151a4f"/>
                        <path data-name="패스 19252" d="m1797.781 365.2-2.134 1.069.907 1.87.32.16 1.973-.962z" transform="translate(-1750.258 -268.232)" style="fill:#151a4f"/>
                        <path data-name="패스 19253" d="m1810.68 358.8 1.067 2.137-2.134 1.063-1.067-2.137z" transform="translate(-1757.237 -264.768)" style="fill:#151a4f"/>
                        <path data-name="패스 19254" d="m1823.578 352.394 1.067 2.137-2.187 1.069-1.013-2.137z" transform="translate(-1764.214 -261.305)" style="fill:#151a4f"/>
                        <path data-name="패스 19255" d="m1836.476 345.992 1.013 2.137-2.134 1.069-1.013-2.137z" transform="translate(-1771.192 -257.841)" style="fill:#151a4f"/>
                        <path data-name="패스 19256" d="m1849.258 339.59 1.067 2.137-2.134 1.069-1.067-2.137z" transform="translate(-1778.107 -254.378)" style="fill:#151a4f"/>
                        <path data-name="패스 19257" d="m1862.156 333.188 1.067 2.137-2.134 1.069-1.067-2.137z" transform="translate(-1785.085 -250.915)" style="fill:#151a4f"/>
                        <path data-name="패스 19258" d="m1809.75 371.367-2.134 1.069.587 1.229c.48.16.96.267 1.494.427l1.12-.534z" transform="translate(-1756.734 -271.569)" style="fill:#151a4f"/>
                        <path data-name="패스 19259" d="m1822.649 364.965 1.067 2.137-2.134 1.069-1.067-2.137z" transform="translate(-1763.711 -268.106)" style="fill:#151a4f"/>
                        <path data-name="패스 19260" d="m1835.547 358.563 1.067 2.137-2.133 1.069-1.067-2.137z" transform="translate(-1770.689 -264.642)" style="fill:#151a4f"/>
                        <path data-name="패스 19261" d="m1848.445 352.161 1.067 2.137-2.134 1.069-1.067-2.137z" transform="translate(-1777.667 -261.179)" style="fill:#151a4f"/>
                        <path data-name="패스 19262" d="m1861.343 345.759 1.067 2.191-2.134 1.015-1.067-2.137z" transform="translate(-1784.645 -257.715)" style="fill:#151a4f"/>
                        <path data-name="패스 19263" d="M1820.167 378.071a12.145 12.145 0 0 0 1.387.107l-.32-.641z" transform="translate(-1763.523 -274.907)" style="fill:#151a4f"/>
                        <path data-name="패스 19264" d="m1832.874 371.135 1.067 2.137-2.134 1.069-1.067-2.137z" transform="translate(-1769.243 -271.443)" style="fill:#151a4f"/>
                        <path data-name="패스 19265" d="m1845.772 364.733 1.067 2.137-2.134 1.069-1.067-2.137z" transform="translate(-1776.221 -267.98)" style="fill:#151a4f"/>
                        <path data-name="패스 19266" d="m1858.671 358.331 1.067 2.137-2.187 1.069-1.013-2.137z" transform="translate(-1783.199 -264.516)" style="fill:#151a4f"/>
                        <path data-name="패스 19267" d="m1871.569 351.929-2.134 1.071 1.067 2.137.427-.214c.48-.534.906-1.069 1.333-1.6z" transform="translate(-1790.177 -261.053)" style="fill:#151a4f"/>
                    </g>
                    <g data-name="그룹 1678">
                        <path data-name="패스 19268" d="m1912.25 188.387-3.307 1.71h4.16z" transform="translate(-1811.55 -172.579)" style="fill:#a1c3fc"/>
                        <path data-name="패스 19269" d="M1883.96 201.263h18.615l-1.547-3.1h-11.041z" transform="translate(-1798.034 -177.868)" style="fill:#a1c3fc"/>
                        <path data-name="패스 19270" d="M1858.861 214.067h33.176l-1.6-3.1h-25.5z" transform="translate(-1784.456 -184.795)" style="fill:#a1c3fc"/>
                        <path data-name="패스 19271" d="M1860.408 226.987h34.669l-1.6-3.1h-34.616z" transform="translate(-1784.456 -191.785)" style="fill:#a1c3fc"/>
                        <path data-name="패스 19272" d="M1866.968 239.791h34.616l-1.6-3.1h-34.616z" transform="translate(-1787.976 -198.712)" style="fill:#a1c3fc"/>
                        <path data-name="패스 19273" d="M1873.592 252.6h24.855l6.08-3.1h-32.536z" transform="translate(-1791.56 -205.639)" style="fill:#a1c3fc"/>
                        <path data-name="패스 19274" d="M1880.1 265.516h10.4l6.027-3.1H1878.5z" transform="translate(-1795.08 -212.628)" style="fill:#a1c3fc"/>
                        <path data-name="패스 19275" d="m1885.869 276.664 2.774-1.443h-3.52z" transform="translate(-1798.663 -219.555)" style="fill:#a1c3fc"/>
                    </g>
                    <path data-name="패스 19276" d="M1844.033 157.625a9.05 9.05 0 0 1 3.36-.374 8.476 8.476 0 0 1 4.374 2.4 24.673 24.673 0 0 1 4.16 4.648c2.72 4.167 3.467 9.3 3.307 14.265s-1.173 9.831-1.707 14.747a82.419 82.419 0 0 0-.16 15.387 98.654 98.654 0 0 0-34.3 1.069c7.414-10.793 11.788-24.31 9.174-37.133-.8-3.793-1.974-8.281.64-11.167 1.44-1.549 3.627-2.137 5.707-2.618 1.818-.422 3.631-.849 5.445-1.224z" transform="translate(-1765.094 -155.708)" style="fill:#151a4f"/>
                    <path data-name="패스 19277" d="M1867.807 199.313a.761.761 0 0 0-.32.107c-.32.214-.267.694-.213 1.122a44.332 44.332 0 0 1-1.44 21.318c4.107-3.046 9.547 0 14.294-1.229-1.333-3.1-1.067-6.839-1.013-10.365 0-4.114.906-9.724 0-13.731-3.361.481-8.002 2.297-11.308 2.778z" transform="translate(-1788.228 -176.987)" style="fill:#f2a19c"/>
                    <path data-name="패스 19278" d="M1852.6 166.357a20.084 20.084 0 0 0 1.867 10.1c1.6 3.9 4.534 7.48 8.534 8.869s8.107.855 10.08-2.885a14.388 14.388 0 0 0 1.174-5.824c-.107-4.809-1.227-9.777-4.694-13.037-2.08-1.923-4.214-4.7-7.04-4.915-2.827-.267-6.827 1.015-8.427 3.366-1.388 1.869-1.282 2.029-1.494 4.326z" transform="translate(-1781.021 -156.48)" style="fill:#ffbeb6"/>
                    <path data-name="패스 19279" d="M1877.849 193.533a4.955 4.955 0 0 1-2.187 1.229 7.437 7.437 0 0 1-3.893.214 4.721 4.721 0 0 1-3.147-2.137 8.63 8.63 0 0 0 2.347.053c3.734-.427 6.774-3.259 9.121-6.251a25.2 25.2 0 0 1-.694 4.007 9.4 9.4 0 0 1-1.547 2.885z" transform="translate(-1789.737 -171.634)" style="fill:#fff"/>
                    <path data-name="패스 19280" d="M1844.507 174.81a26.074 26.074 0 0 1 17.761-11.915c1.227 1.122 2.454 2.19 3.68 3.313-8.16 1.122-14.988 6.946-20.055 13.517-1.013-1.443-2.08-3.313-1.227-4.862-.373 2.405.747-2.351-.159-.053z" transform="translate(-1776.609 -158.788)" style="fill:#e94a47"/>
                    <path data-name="패스 19281" d="M1837.176 211.857c3.2-13.3 2.667-15.868 2.614-29.546 0-3.046 1.333-15.281 3.467-19.021 3.04-5.183 5.814-6.091 8.694-7.053-6.774-5.663-15.147.534-17.121 4.007s-2.24 7.694-2.56 11.7a380.6 380.6 0 0 1-5.014 39.59 76.969 76.969 0 0 1 9.92.323z" transform="translate(-1767.358 -153.947)" style="fill:#23286b"/>
                    <g data-name="그룹 1679">
                        <path data-name="패스 19282" d="M1858.842 181.309a.23.23 0 0 1-.213-.214 37.64 37.64 0 0 1 3.147-14.319c1.333-3.259 4.32-6.786 6.08-7.747.107-.054.214 0 .32.107.053.106 0 .213-.107.32-1.653.908-4.587 4.381-5.92 7.533a36.685 36.685 0 0 0-3.149 14.159c.055.107-.051.161-.158.161z" transform="translate(-1784.331 -156.685)" style="fill:#23286b"/>
                    </g>
                    <g data-name="그룹 1680">
                        <path data-name="패스 19283" d="M1862.211 179.306c-.16 0-.213-.107-.213-.267a43.294 43.294 0 0 1 8.267-20.089c.054-.107.213-.107.32-.054s.107.214.053.321a42.918 42.918 0 0 0-8.161 19.876.354.354 0 0 1-.266.213z" transform="translate(-1786.153 -156.606)" style="fill:#23286b"/>
                    </g>
                    <g data-name="그룹 1681">
                        <path data-name="패스 19284" d="M1821.426 217.659a.2.2 0 0 1-.214-.213 212.69 212.69 0 0 1 6.241-39.965l.107-.321c.853-3.419 2.133-8.6 4.587-10.846.107-.107.214-.053.32 0 .107.107.053.214 0 .32-2.347 2.191-3.627 7.267-4.48 10.632l-.106.32a212.2 212.2 0 0 0-6.24 39.911.237.237 0 0 1-.215.162z" transform="translate(-1764.088 -160.605)" style="fill:#23286b"/>
                    </g>
                    <path data-name="패스 19285" d="M1881.786 233.051c-.107 2.458-.267 4.862-.373 7.32 0 .107 0 .214-.107.267-.053.053-.106 0-.213 0-2.56-.32-4 11.54-6.561 11.487-2.72-.053-6.507-11.968-9.227-11.647v-4.435c0-.534-.053-1.87-.053-1.87a5.98 5.98 0 0 1 1.173-.855c1.654-.748 3.307 1.924 5.014 1.336.907-.267 1.441-1.443 2.347-1.6 1.333-.267 2.187 1.443 3.52 1.87a3.016 3.016 0 0 0 2.4-.481c.694-.431 1.333-1.018 2.08-1.392z" transform="translate(-1787.913 -196.726)" style="fill:#fff"/>
                    <path data-name="패스 19286" d="M1846.405 256.419c2.187-3.686 4.427-7.373 6.614-11.113a54.738 54.738 0 0 1 13.761 5.129 22.835 22.835 0 0 1 6.24 4.541c2.56 2.778 3.894 6.465 4.8 10.1 2.773 10.686 2.24 27.837-.587 38.522-3.52-.588-6.561-1.176-10.081-.748-3.947.481-8.747 1.389-12.694 1.122-14.187-1.015-22.881-1.442-36.642 2.244-.587-7.907-5.6-20.944-5.227-28.852.374-7.747 1.387-15.868 5.921-22.119 3.893-5.4 18.4-9.564 18.4-9.564s7.095 7.799 9.495 10.738z" transform="translate(-1759.413 -203.372)" style="fill:#3d76f6"/>
                    <path data-name="패스 19287" d="M1747.759 224.062c-1.067-4.328-2.827-4.488-5.974-7.64-.533-.534-1.067-1.336-1.653-.855-.533 1.549 3.36 4.274 3.734 7.961a35 35 0 0 0-17.441-4.114c-1.653.107 1.174 1.443 4.907 1.977 3.36.481 5.44 1.87 8.481 3.42.16.534-1.867-.374-2.4-.481a80.336 80.336 0 0 0-14.028-2.618c-1.6.213 1.173 2.885 2.614 3.473 3.627 1.389 7.681 2.458 11.307 3.9-.96 1.763-10.507-4.167-8.64-1.817a17.35 17.35 0 0 0 13.441 5.664 5.361 5.361 0 0 1 2.453.16 3.448 3.448 0 0 1 2.027 2.19c3.734 13.464 7.787 26.234 10.934 34.836.907-1.282 4.267-13.3 5.707-13.891-2.827-7.747-8.107-11.754-10.827-19.555-1.174-3.366-2.721-5.877-3.734-8.388-.161-.589-1.121-4.757-.908-4.222z" transform="translate(-1710.904 -187.203)" style="fill:url(#4nx50gks1a)"/>
                    <path data-name="패스 19288" d="M1776.132 258.343c6.293 9.724 7.093 13.731 13.068 24.524 3.093 5.556 7.627 13.09 8.747 19.341.267 1.6-.587 10.633-1.867 11.648-1.014.8-3.787-.481-4.854-1.229a8.951 8.951 0 0 1-2.4-3.045 376.73 376.73 0 0 1-23.041-47.071 21.179 21.179 0 0 0 10.347-4.168z" transform="translate(-1734.103 -210.424)" style="fill:#3d76f6"/>
                    <ellipse data-name="타원 220" cx="2.294" cy="2.297" rx="2.294" ry="2.297" transform="translate(101.02 17.518)" style="fill:#d9e021"/>
                    <path data-name="패스 19289" d="m1725.195 197.4-4.96-2.3 2.293-4.969 4.96 2.3z" transform="translate(-1709.46 -173.523)" style="fill:#e94a47"/>
                    <path data-name="패스 19290" d="m1762.263 181.685-4.96-2.3 2.293-4.969 4.96 2.3z" transform="translate(-1729.514 -165.022)" style="fill:#1d72d8"/>
                    <g data-name="그룹 1682">
                        <path data-name="패스 19291" d="M1731.116 187.256c-.054 0-.16-.053-.16-.107a13.966 13.966 0 0 0-15.468-5.663c-.107.053-.214-.053-.267-.16s.053-.214.16-.267a14.473 14.473 0 0 1 16 5.823.252.252 0 0 1-.054.321.839.839 0 0 1-.211.053z" transform="translate(-1706.741 -168.295)" style="fill:#23286b"/>
                    </g>
                    <g data-name="그룹 1683">
                        <path data-name="패스 19292" d="M1699.648 228.577a.2.2 0 0 1-.213-.213 9.509 9.509 0 0 1 8.587-8.549.214.214 0 0 1 0 .427 9.054 9.054 0 0 0-8.214 8.121c.053.107-.053.214-.16.214z" transform="translate(-1698.208 -189.581)" style="fill:#23286b"/>
                    </g>
                    <path data-name="사각형 12132" transform="translate(50.297 100.386)" style="fill:#eee" d="M0 0h73.712v3.58H0z"/>
                    <g data-name="그룹 1684">
                        <path data-name="패스 19293" d="M1883.127 171.6a.214.214 0 0 1 0-.427 6.316 6.316 0 0 0 5.814-5.5.213.213 0 1 1 .427 0 6.68 6.68 0 0 1-6.241 5.931z" transform="translate(-1797.469 -160.173)" style="fill:#23286b"/>
                    </g>
                    <path data-name="사각형 12133" transform="translate(61.551 58.658)" style="fill:url(#gzi0czq1ac)" d="M0 0h62.457v45.308H0z"/>
                    <path data-name="사각형 12134" transform="translate(88.433 78.32)" style="fill:#fff" d="M0 0h9.334v9.35H0z"/>
                    <path data-name="패스 19294" d="M1942.31 321.359c1.12 1.977 9.494-2.832 11.041-4.488-.054 2.244-3.361 3.793-3.627 4.648-.267.748 1.547.161 2.187-.267 3.253-2.083 4.694-6.572 4.64-10.525a11.4 11.4 0 0 0-.853-3.206c-1.333-3.954-1.44-12.663-2.347-10.739-.96 2.564-1.867 6.946-.533 9.243-4.694 3.366-7.627 6.946-10.774 11.808-.48.694-.8 1.816-.106 2.244 2.24-2.137 4.48-4.221 6.72-6.358 1.44-1.336 2.773-3.1 4.32-1.87-2.078 2.404-11.255 8.495-10.668 9.51z" transform="translate(-1829.182 -231.071)" style="fill:url(#raa6bidxed)"/>
                    <path data-name="texture 13 AFEFfmfgLqTwEZLE-rIlD" d="M1838.365 313.394c.053.107.106.214.267.16.106-.053.213-.106.16-.267-.054-.106-.107-.213-.267-.16a.293.293 0 0 0-.16.267zm8.161 19.5a.229.229 0 1 0 .373.267.252.252 0 0 0-.053-.32c-.16-.16-.267-.054-.32.053zm2.773-4.595a.229.229 0 1 0 .373.267.253.253 0 0 0-.053-.321.2.2 0 0 0-.32.054zm-9.44-4.809a.229.229 0 1 0 .373-.267c-.106-.054-.213-.107-.267-.054-.165.056-.213.163-.106.324zm4.373-3.206a.229.229 0 1 0 .373-.267c-.106-.054-.213-.107-.267-.054-.16.054-.213.267-.106.321zm13.014 13.945c0 .107.053.267.16.267s.266-.053.266-.16c0-.107-.053-.267-.16-.267-.106-.051-.212.056-.266.163zm.853-5.343c0 .107.053.267.16.267s.267-.053.267-.16-.054-.267-.16-.267c-.106-.053-.213.053-.267.16zm-21.228-9.777c.053.053.214.16.267.053.053-.053.16-.213.053-.267-.053-.053-.213-.16-.267-.053-.107.053-.107.16-.053.267zm4.161-2.458c.053.053.213.16.267.053.053-.053.16-.16.053-.267-.053-.053-.16-.16-.267-.053a.186.186 0 0 0-.053.267zm12 14.479c0 .107 0 .214.107.267s.16 0 .267-.107c0-.107 0-.213-.107-.267-.16-.053-.267-.053-.267.107zm1.173-4.7c0 .107 0 .213.107.267a.293.293 0 0 0 .267-.107c0-.107 0-.214-.107-.267-.16 0-.267 0-.267.107zm-9.334-1.977a.23.23 0 1 0 .32-.053c-.107-.107-.213-.054-.32.053zm-10.454-.855a.229.229 0 1 0 .32-.054c-.107-.107-.213-.053-.32.054zm3.307-4.435a.229.229 0 1 0 .32-.053c-.107-.107-.213-.053-.32.053zm3.307-4.541a.252.252 0 0 0 .053.321c.106.107.214.053.32-.054a.253.253 0 0 0-.053-.32c-.159.001-.266.001-.319.054zm16 14.8c.053.107.107.214.267.16.107-.053.214-.107.16-.267-.054-.107-.107-.213-.267-.16-.107-.053-.213.107-.16.267zm-18.988-21.959c-.107.107-.16.213-.053.32m7.413 18.326c0 .107.053.267.16.267s.267-.053.267-.16-.053-.267-.16-.267a.2.2 0 0 0-.267.16zm-3.787.054c0 .107.053.267.16.267s.267-.054.267-.16 0-.214-.16-.267a.18.18 0 0 0-.267.16zm1.547-5.343c0 .107.053.267.16.267s.213 0 .267-.16a.383.383 0 0 0-.16-.321c-.106 0-.267.107-.267.214zm-6.881-7.053a.252.252 0 0 0 .053.32.267.267 0 1 0 .32-.427.449.449 0 0 0-.373.107zm2.187-.534a.192.192 0 1 0 .267-.053c-.106 0-.267 0-.267.053z" transform="translate(-1771.214 -236.998)" style="fill:#fff"/>
                </g>
            </g>
        </g>
    </g>
</svg>
