<svg xmlns="http://www.w3.org/2000/svg" width="120" height="120" viewBox="0 0 120 120">
    <defs>
        <linearGradient id="1v0e6b2thb" x1="356.022" y1="1396.174" x2="345.433" y2="1394.991" gradientUnits="objectBoundingBox">
            <stop offset="0" stop-color="#f5f3f3"/>
            <stop offset=".253" stop-color="#f7f5f5"/>
            <stop offset="1" stop-color="#d8d8d8"/>
        </linearGradient>
        <linearGradient id="ca5r9msimc" x1="3227.097" y1="7723.688" x2="3227.392" y2="7709.841" gradientUnits="objectBoundingBox">
            <stop offset=".032" stop-color="#ffbeb5"/>
            <stop offset="1" stop-color="#f49e95"/>
        </linearGradient>
        <clipPath id="wayr9wgfda">
            <circle data-name="타원 222" cx="60" cy="60" r="60" style="fill:#f7f8fb"/>
        </clipPath>
    </defs>
    <g>
        <circle data-name="타원 218" cx="60" cy="60" r="60" style="fill:#d8e8ef;opacity:.997"/>
        <g data-name="마스크 그룹 7" style="clip-path:url(#wayr9wgfda)">
            <g data-name="그룹 2275">
                <g data-name="womansfZx-WibppLU c9WNVO1Z">
                    <g data-name="shoessfZx-WibppLU c9WNVO1Z">
                        <path data-name="L shoe 2 sfZx-WibppLU c9WNVO1Z" d="m1744.378 1001.873 6.15 7.984-21.41 12.894s-1.478-1.715.532-4.258 5.914-11.533 5.914-11.533z" transform="translate(-1673.893 -832.153)" style="fill:#4484f7"/>
                        <path data-name="R shoe 2 sfZx-WibppLU c9WNVO1Z" d="m1795.6 929.354 9.4-4.14 7.688 23.835s-2.011 1.005-4.021-1.479c-2.011-2.543-10.586-8.4-10.586-8.4z" transform="translate(-1688.687 -815.228)" style="fill:#4484f7"/>
                    </g>
                    <g data-name="trousers 1 sfZx-WibppLU c9WNVO1Z">
                        <g data-name="L trousers 1 sfZx-WibppLU c9WNVO1Z">
                            <path data-name="L trousers 2 sfZx-WibppLU c9WNVO1Z" d="m1742.183 979.385-8.871 5.086s-13.721-34.539-14.372-41.518a102.925 102.925 0 0 1 .828-22.178c.947-6.86 2.662-12.6 1.361-18.807h.237c4.908.71 11.473-.769 14.371-1.6a10.082 10.082 0 0 1 1.833-.354c.474.769 4.022 7.393-1.005 22.356-5.382 15.969-1.361 18.275.414 23.125s2.662 7.807 2.307 12.361c-.414 4.555 1.6 3.372 2.662 9.286a45.9 45.9 0 0 1 .235 12.243z" transform="translate(-1671.698 -809.665)" style="fill:#eee"/>
                        </g>
                        <g data-name="R trousers 1 sfZx-WibppLU c9WNVO1Z">
                            <path data-name="R trousers 2 sfZx-WibppLU c9WNVO1Z" d="M1785.422 938.468s-37.615 12.835-46.131 7.453c-1.361-3.312-1.952-7.866 1.656-18.571.592-1.833 1.124-3.549 1.478-5.145a.458.458 0 0 0 .059-.178s1.479 8.28 9.286 7.275 7.57-1.242 11.532-.118 6.683-1.6 8.812-1.833 9.168-.591 10.883 1.36z" transform="translate(-1676.02 -814.525)" style="fill:url(#1v0e6b2thb)"/>
                        </g>
                    </g>
                    <g data-name="sweatersfZx-WibppLU c9WNVO1Z">
                        <path data-name="sweater 4 sfZx-WibppLU c9WNVO1Z" d="M1753.153 857.39c-5.8 8.339-10.173 12.538-10.232 21.291s-.947 9.227-.947 9.227a16.3 16.3 0 0 0-8.871-.533c-3.785 1.006-13.78 3.253-18.216.3s-7.333-5.855-8.162-9.108l4.672-4.376a5.936 5.936 0 0 1 1.6 1.892s8.576-3.844 12.184-9.758a75.09 75.09 0 0 0 4.908-9.049s-.532 3.194.887 2.957c1.42-.177 4.081-3.725 4.081-3.725s2.779 1.3 5.027-4.5 2.483-10.054 2.307-11.119l14.786.946c-.121 0 1.771 7.216-4.024 15.555z" transform="translate(-1669.065 -796.611)" style="fill:#9abcf7"/>
                    </g>
                    <g data-name="handssfZx-WibppLU c9WNVO1Z">
                        <path data-name="L hand 1 sfZx-WibppLU c9WNVO1Z" d="M1759.142 832.672s4.318-10.941 1.952-15.791-4.2-8.043-4.2-8.043 1.183-.769 2.247.768c1.064 1.6 1.774 2.543 2.011 1.6.178-.947 1.064-7.925 1.3-8.635s1.064-.768 1.241.474-.768 5.323.177 4.554 1.952-4.672 2.13-4.85 2.9 2.07 3.726 4.258c.769 2.188-1.3 5.5-2.661 7.511-1.3 2.011-.651 5.323 1.005 18.748z" transform="translate(-1680.141 -788.039)" style="fill:#ffbeb5"/>
                        <path data-name="R hand 5 sfZx-WibppLU c9WNVO1Z" d="M1700.076 879.4c1.952 1.6 3.135 2.425 3.962 3.135l-4.554 4.318c-4.731 1.774-10.883 3.725-12.775 4.968a59.484 59.484 0 0 0-6.032 4.672c-1.42-2.188 3.134-5.264 2.9-6.21-.178-.947-1.006-1.064-5.678-1.242s-5.027-2.011-4.081-2.07c1.006-.059 4.791.474 5.146-.118s-5.56 0-4.731-.71a9.822 9.822 0 0 1 .828-.591 5.032 5.032 0 0 1 4.2-.651c3.076.946 7.156 1.952 8.576 1.715 1.715-.237 10.586-6.86 11.651-7.629.233.122.351.299.588.413z" transform="translate(-1661.706 -805.023)" style="fill:#ffbeb5"/>
                    </g>
                    <path data-name="texture 2 sfZx-WibppLU c9WNVO1Z" d="M1751.961 842.342v-.059h.059v.059c-.059.058-.059.058-.059 0zm2.129-1.006v-.059h-.059v.059c0 .064 0 .064.059 0zm-2.07 2.78s.059-.059 0-.059c0 0-.059-.059-.059 0 0 0-.059.059 0 .059zm.473-2.78v-.059h-.059v.059zm.946.828v-.059h-.059v.059zm.947.828v-.059h-.059v.059zm-2.721 3.016a.059.059 0 1 0-.059-.058.057.057 0 0 0 .059.059zm2.662-4.495c0-.059 0-.059-.059-.059s-.059 0-.059.059 0 .059.059.059.059.001.059-.058zm1.36.591c0-.059 0-.059-.058-.059s-.059 0-.059.059 0 .059.059.059a.057.057 0 0 0 .057-.058zm-3.253.828v-.059h-.059v.059zm1.005 1.005v-.059h-.059v.059c0 .063.059.063.059.002zm1.006 1.064v-.059h-.059V845zm-2.307-3.489v-.059h-.058v.059zm1.125.473v-.059h-.059v.059c-.004.061.058.061.058.002zm1.124.532v-.059h-.059v.059c.058.061.058.002.058.002zm-1.834 1.6v-.059h-.059v.059c.058.059.058.059.058 0zm.887.946V845h-.059v.059zm-1.478.178v-.059h-.059v.059c-.003.059-.003.059.058-.001zm.946.532v-.059h-.059v.059zm-.71-3.962c-.059 0-.059-.059 0 0h-.059c-.058.058 0 .058.059 0zm1.006-.355h-.059c0 .059.059.059.059 0-.004.058.058.058-.004-.001zm-1.361 6.506v-.062h-.059v.059zm1.064-4.318c-.059-.058-.118-.058-.118 0s.059.059.118 0c-.059.056 0 .056 0-.001zm1.124.118c0-.059-.059-.059 0 0-.059-.059-.119-.059-.119 0zm-1.656 3.845v-.059h-.059v.059c-.001.058-.001.058.059-.001zm1.124.887v-.059h-.059v.059c-.001.058.06.058.06-.001zm-1.419-5.027a.059.059 0 1 0-.059.059.058.058 0 0 0 .058-.06zm1.419-.178a.059.059 0 1 0-.059.059c.06-.001.117-.06.06-.06zm1.479-.178a.059.059 0 1 0-.059.059.058.058 0 0 0 .058-.059zm-4.081 6.743s.058-.059 0-.059c0 0-.059-.059-.059 0 0 0-.059.059 0 .059zm.709 1.242s.059-.059 0-.059c0 0-.059-.059-.059 0 0 0-.058.059 0 .059-.001.004-.001.059.059.004zm1.006-5.619c0-.059 0-.059-.059-.059s-.059 0-.059.059 0 .059.059.059a.058.058 0 0 0 .059-.06zm1.419.415c0-.059 0-.059-.059-.059s-.059 0-.059.059 0 .059.059.059a.058.058 0 0 1 .059-.06zm1.42.354c0-.059 0-.059-.059-.059s-.059 0-.059.059 0 .059.059.059zm-3.312-4.731s-.058-.059-.058 0c0 0-.059.059 0 .059 0 0 .058.059.058 0zm-1.183 7.748v-.063h-.058v.059zm1.006-3.9c0-.059-.059-.059 0 0-.059-.059-.059-.059-.119 0 0 0 0 .058.119 0-.062.054-.062-.004-.001-.004zm1.064.118c-.059-.059-.059-.059-.118 0 .059 0 .059.059.118 0zm-1.183 1.893v-.059h-.059v.059zm.946.532v-.059h-.059v.059c-.001.055.058.055.058-.006zm-.473-4.376h-.118c0 .059.059.059.118 0zm1.064-.3h-.059c-.058.059 0 .059.059 0zm-1.6 5.264v-.059h-.059v.059c.003.058.062.058.062-.001zm1.124.769v-.063h-.059v.059zm-.414-4.791a.059.059 0 0 0-.119 0l.059.059c.063-.001.063-.001.063-.06zm1.3-.3a.059.059 0 1 0-.059.058.058.058 0 0 0 .063-.054zm-3.135 6.506s.059-.059 0-.059c0 0-.059-.059-.059 0 0 0-.059.059 0 .059zm.71 1.064s.059-.059 0-.059c0 0-.059-.059-.059 0 0 0-.059.059 0 .059zm.473-5.2c0-.059 0-.059-.059-.059a.058.058 0 0 0-.059.059c0 .058 0 .058.059.058a.058.058 0 0 0 .063-.058zm1.3.236c0-.059 0-.059-.059-.059a.058.058 0 0 0-.059.059c0 .059 0 .059.059.059a.058.058 0 0 0 .065-.059zm1.3.237c0-.059 0-.059-.059-.059s-.059 0-.059.059 0 .059.059.059a.058.058 0 0 0 .066-.06zm-2.248-4.731s-.059-.059-.059 0c0 0-.058.059 0 .059 0 0 .059.058.059 0zm1.065-.769s-.059-.059-.059 0c0 0-.059.059 0 .059 0 0 .059.059.059 0 .007-.001.066-.001.007-.06zm-2.721 8.458v-.059h-.059v.059zm1.124.946v-.059h-.059v.059zm1.064.947v-.059h-.058v.059zm-1.124-5.146a.059.059 0 1 0-.059.059.058.058 0 0 0 .067-.061zm1.42-.059a.059.059 0 1 0-.059.059.058.058 0 0 0 .066-.061zm1.478-.118a.059.059 0 1 0-.058.058.057.057 0 0 0 .062-.059zm-2.366-5.5h-.058v.059h.058zm-1.951 12.006c.059 0 .059-.059 0-.059 0-.059-.059-.059-.059 0-.059 0-.059.059 0 .059zm.651 1.3c.059 0 .059-.059 0-.059 0-.058-.059-.058-.059 0-.059 0-.059.059 0 .059zm1.3-5.559c0-.059 0-.059-.058-.059s-.059 0-.059.059 0 .059.059.059a.058.058 0 0 1 .066-.06zm1.361.473c0-.059 0-.059-.059-.059s-.059 0-.059.059 0 .059.059.059zm1.361.473c0-.059 0-.059-.059-.059s-.059 0-.059.059 0 .059.059.059a.058.058 0 0 1 .066-.06zm-3.016-4.909c0-.058-.059-.058-.059 0 0 0-.059.059 0 .059 0 .059.059.059.059 0zm1.3-.591c0-.058-.059-.058-.059 0s-.059.059 0 .059c0 0 .059.059.059 0zm1.3-.65c0-.059-.059-.059-.059 0s-.059.058 0 .058c0 .059.059.059.059 0z" transform="translate(-1678.637 -796.644)" style="fill:#fff"/>
                    <g data-name="head 1 sfZx-WibppLU c9WNVO1Z">
                        <g data-name="hair 1 sfZx-WibppLU c9WNVO1Z">
                            <path data-name="hair 5 sfZx-WibppLU c9WNVO1Z" d="M1733.268 846.886s-2.011-3.193-6.92-1.774-6.565 8.1-3.489 10.291a41.775 41.775 0 0 0 4.2 2.779 18.127 18.127 0 0 1-8.221.473c-3.9-.828-12.834-3.489-18.866 2.425 0 0 2.129 7.629 5.914 10.7 3.785 3.135 4.731 3.43 5.56 5.028 0 0 8.575-3.845 12.183-9.759a72.378 72.378 0 0 0 4.909-9.108 4.047 4.047 0 0 0 .236-.769 1.661 1.661 0 0 0-.887-1.479 15.2 15.2 0 0 0-1.538-.473 1.576 1.576 0 0 1-.768-2.425c.768-.887 1.478-.532 2.188-.768.649.064 4.02-.941 5.499-5.141z" transform="translate(-1667.573 -797.463)" style="fill:#1c2868"/>
                            <path data-name="hair 9 sfZx-WibppLU c9WNVO1Z" d="M1699.852 863.552a16.127 16.127 0 0 1 13.307-2.543c3.785.828 7.392 2.13 11.3 1.715.118 0 .118-.236 0-.236-4.672.473-8.871-1.538-13.366-2.13a15.722 15.722 0 0 0-11.3 2.957c-.178.118-.059.3.059.237z" transform="translate(-1667.514 -800.88)" style="fill:#1c2868"/>
                        </g>
                        <path data-name="neck 1 sfZx-WibppLU c9WNVO1Z" d="M1741.568 860.743c-.354.414-2.72 3.489-4.081 3.725-1.36.178-.946-2.661-.887-2.957a2.908 2.908 0 0 0 .177-.768v-.3a10.481 10.481 0 0 0 1.42.059 8.483 8.483 0 0 0 2.839-.414c-.059.118.119.355.3.473a1.01 1.01 0 0 0 .232.182z" transform="translate(-1675.637 -800.85)" style="fill:url(#ca5r9msimc)"/>
                        <path data-name="face 6 sfZx-WibppLU c9WNVO1Z" d="M1743.748 852.063c-.592.473-.946.414-1.005.887a5.457 5.457 0 0 1-.947 3.313l-.059.058a3.938 3.938 0 0 1-1.537 1.065 8.485 8.485 0 0 1-2.839.414c-.532 0-1.005-.059-1.42-.059a1.46 1.46 0 0 0-.827-1.183 11.373 11.373 0 0 0-1.6-.473h-.059a1.244 1.244 0 0 1-.354-.237l-.059-.059a1.494 1.494 0 0 1-.3-2.07c.768-.887 1.478-.532 2.129-.769a8.086 8.086 0 0 0 4.791-3.667.058.058 0 0 1 .059-.059 10.427 10.427 0 0 0 .769-1.656 16.211 16.211 0 0 0 2.661 3.076c.893.532 1.189.887.597 1.419z" transform="translate(-1674.742 -798.085)" style="fill:#ffbeb5"/>
                        <g data-name="eyeglassessfZx-WibppLU c9WNVO1Z">
                            <path data-name="eyeglasses 1 sfZx-WibppLU c9WNVO1Z" d="M1745.913 848.367a1.37 1.37 0 0 0-1.42-1.183 1.3 1.3 0 0 0-.828 1.656c0 .118.059.178.059.237a1.512 1.512 0 0 0-.71.887l-.118-.118a1.342 1.342 0 0 0-1.006-.3 1.545 1.545 0 0 0-.946 1.893 2.092 2.092 0 0 0 .591 1.064 1.418 1.418 0 0 0 .828.3h.236a1.1 1.1 0 0 0 .828-.71 1.75 1.75 0 0 0 .118-1.241 1.546 1.546 0 0 0-.355-.769 1.175 1.175 0 0 1 .651-.828 1.2 1.2 0 0 0 1.064.71h.178a1.232 1.232 0 0 0 .83-1.598zm-2.721 3.667a1.152 1.152 0 0 1-.71.591.879.879 0 0 1-.828-.237 1.394 1.394 0 0 1-.532-.946 1.316 1.316 0 0 1 .768-1.657h.177a1.239 1.239 0 0 1 .651.237 1.4 1.4 0 0 1 .532.946 1.126 1.126 0 0 1-.058 1.066zm1.833-2.248a1.1 1.1 0 0 1-1.183-1.005 1.2 1.2 0 0 1 .651-1.42 1.1 1.1 0 0 1 1.183 1.006 1.069 1.069 0 0 1-.651 1.419z" transform="translate(-1676.61 -797.997)" style="fill:#1c2868"/>
                        </g>
                    </g>
                </g>
            </g>
        </g>
    </g>
</svg>
