<svg xmlns="http://www.w3.org/2000/svg" width="120" height="120" viewBox="0 0 120 120">
    <defs>
        <clipPath id="clip-path">
            <circle id="타원_223" data-name="타원 223" cx="60" cy="60" r="60" style="fill:#f7f8fb"/>
        </clipPath>
        <clipPath id="clip-path-2">
            <circle id="타원_252" data-name="타원 252" cx="60" cy="60" style="fill:#fff" r="60"/>
        </clipPath>
        <style>
            
        </style>
    </defs>
    <g id="img_sub_06" transform="translate(-1128 -1745)">
        <g id="그룹_2342" data-name="그룹 2342" transform="translate(1128 1745)">
            <circle id="타원_219" data-name="타원 219" cx="60" cy="60" r="60" style="fill:#d8e8ef"/>
            <g id="마스크_그룹_23" data-name="마스크 그룹 23" style="clip-path:url(#clip-path-2)">
                <g id="그룹_1696" data-name="그룹 1696" transform="translate(26.906 27.938)">
                    <path id="패스_19254" data-name="패스 19254" d="M146.655 321.387a4.679 4.679 0 0 0-6.478-1.347l-.108.074c-.664.5-1.162 1.217-1.937 1.437-1.938.664-3.709-1.716-5.756-1.437-3.431.5-2.491 7.25-5.923 7.75-1.881.277-3.541-1.882-5.421-1.605-2.713.387-3.1 5.095-5.866 5.369-1 .111-1.938-.5-2.99-.664-1-.167-2.325.664-1.937 1.605a35.357 35.357 0 0 0 1.273 5.038c1.437 4.7 2.713 9.521 6.753 12.4a41.2 41.2 0 0 0 12.952 5.978 39.892 39.892 0 0 0 13.727 1.772c5.813-.554 11.015-3.875 15-8.137 3.93-4.263 6.808-9.411 9.631-14.5-1.162 1.052-3.044.166-4.04-1.052s-1.882-2.713-3.377-3.1c-1.273-.332-2.711.332-3.984-.056-2.49-.775-2.933-4.927-5.535-5.259-1-.167-2.048.388-3.043.11-1.834-.388-1.996-2.768-2.941-4.376z" transform="translate(-106.467 -319.274)" style="fill:#102b4c"/>
                    <path id="패스_19285" data-name="패스 19285" d="m137.215 397-.033-.181a4.64 4.64 0 0 0 .074-.373q-.046-.181-.105-.362a5.303 5.303 0 0 0-.076-.362q.014-.19.014-.384a5.845 5.845 0 0 0-.114-.354 2.843 2.843 0 0 0-.149-.34q-.118-.152-.244-.293a6.202 6.202 0 0 0-.154-.33l-.047-.174-.041-.165c-.046-.1-.09-.209-.136-.317l-.259-.271a3.319 3.319 0 0 0-.109-.371 1.691 1.691 0 0 0-.32-.282.826.826 0 0 0-.421-.249.934.934 0 0 0-.462.085 1.749 1.749 0 0 0-.362.181c-.112.066-.213.14-.31.207-.11.052-.217.111-.326.167-.1.073-.193.146-.286.222s-.181.158-.271.239c-.068.1-.136.207-.2.312q-.144.108-.285.221c-.094.075-.2.135-.307.2-.078.09-.157.181-.233.271s-.14.2-.208.294l-.266.244-.079.165-.078.166a1.091 1.091 0 0 0-.09.072l-.069.06c-.017.013-.121.072.161.288l-.013-.006c-.026-.013-.051-.026-.072-.034-.046-.018-.068-.014-.08 0a1.418 1.418 0 0 0-.162.219c-.07.1-.142.191-.209.29s-.125.2-.181.307c-.075.09-.147.19-.217.287s-.145.194-.219.291c-.048.111-.09.224-.137.336s-.127.208-.181.317c-.036.117-.073.233-.1.353s-.069.234-.1.353-.067.235-.1.354v.373c-.025.12-.06.24-.076.362l-.021.181c-.007.063-.007.125-.011.187a3.165 3.165 0 0 0 .07.371 2.617 2.617 0 0 0 .023.391 2.009 2.009 0 0 0 .16.374 1.671 1.671 0 0 0 .255.331 1.861 1.861 0 0 0 .271.324 2.2 2.2 0 0 0 .379.143 2.818 2.818 0 0 0 .373.09 3.709 3.709 0 0 0 .338.181l.181.045.186.033c.13-.013.257-.044.382-.068.121.037.245.074.372.1.124-.035.247-.066.362-.111.061-.006.123-.011.181-.019l.181-.029c.123-.014.241-.047.362-.07s.25-.032.374-.056c.119-.041.237-.08.352-.132.1-.079.2-.166.29-.252.107-.059.207-.133.31-.2.123-.037.253-.07.377-.117q.117-.154.22-.319c.09-.08.181-.167.271-.255.109-.068.209-.146.315-.223.054-.117.114-.228.159-.346l.079-.169c.025-.057.047-.115.07-.173a3.814 3.814 0 0 0 .285-.271 5.75 5.75 0 0 0 .054-.382c.065-.1.137-.21.2-.321l.027-.185.017-.186c.064-.11.115-.225.172-.341a6.485 6.485 0 0 0-.05-.381c.033-.119.073-.239.1-.362z" transform="translate(-117.415 -360.477)" style="fill:#ffbeb6"/>
                    <path id="패스_19286" data-name="패스 19286" d="M222.779 395.182a1.08 1.08 0 0 0-.141-.342c-.04-.07-.046-.158-.138-.194-.014-.006-.043-.067-.145-.007l-.031.021.019-.011a1.154 1.154 0 0 0 .191-.133c.076-.071 0-.073-.006-.084s-.03-.046-.062-.09a.732.732 0 0 0-.047-.057l-.021-.025q-.086-.136-.177-.271-.053-.158-.11-.317c-.08-.073-.162-.143-.242-.214l-.129-.3c-.086-.066-.172-.131-.26-.2-.038-.106-.075-.214-.115-.32-.08-.071-.158-.143-.239-.213s-.146-.154-.22-.228-.15-.149-.228-.222a2.76 2.76 0 0 1-.2-.247c-.108-.041-.214-.083-.324-.12-.04-.112-.08-.225-.126-.336-.1-.045-.205-.09-.311-.131-.09-.059-.181-.119-.271-.175-.073-.08-.146-.16-.224-.237a1.712 1.712 0 0 0-.264-.188 5.227 5.227 0 0 0-.242-.227c-.1-.04-.213-.075-.32-.109s-.211-.076-.316-.111c-.086-.077-.181-.147-.271-.221-.12-.014-.232-.038-.354-.04-.053-.028-.107-.057-.162-.084l-.176-.07a1.5 1.5 0 0 0-.193.047 1.4 1.4 0 0 0-.186.063q-.091-.021-.194-.039a4.558 4.558 0 0 0-.207-.01 1.2 1.2 0 0 0-.181.105l-.085.057a.983.983 0 0 0-.076.067 1.832 1.832 0 0 0-.21.048 1.777 1.777 0 0 0-.206.081 1.574 1.574 0 0 0-.112.419 1.484 1.484 0 0 0-.112.148 1.707 1.707 0 0 0-.1.157 1.935 1.935 0 0 0-.124.149c-.04.052-.079.1-.113.158a2.841 2.841 0 0 0 .04.369 4.33 4.33 0 0 0-.061.337c-.036.11-.071.222-.1.335.056.112.113.222.176.327 0 .109 0 .217.007.326a3.084 3.084 0 0 1-.023.329c.035.1.074.207.113.308-.011.11-.019.222-.026.333.019.106.037.212.059.317l.212.276a7.15 7.15 0 0 0-.082.362q.069.149.141.294c.027.105.055.21.09.315.077.09.154.176.236.26 0 .119.007.238.015.362.09.082.176.161.271.237.044.1.09.205.144.306.037.11.084.22.13.33.1.073.191.144.291.208.033.049.069.095.106.142s.073.09.114.139a3.115 3.115 0 0 0 .3.2l.167.072c.056.023.115.041.171.061l.168.062a1.491 1.491 0 0 0 .172.051 2.294 2.294 0 0 0 .346.08 2.557 2.557 0 0 0 .346.09 2.781 2.781 0 0 0 .351-.016 1.272 1.272 0 0 0 .173-.012c.057-.007.115-.012.171-.022a3.366 3.366 0 0 0 .35 0c.11-.034.216-.073.321-.115.09-.072.181-.147.271-.224a5.517 5.517 0 0 0 .59-.26c.106-.027.214-.053.318-.09.093-.054.186-.11.277-.167s.171-.133.255-.2c.1-.047.194-.1.29-.148l.181-.3a2.739 2.739 0 0 0 .281-.181 1.778 1.778 0 0 0 .2-.295 1.057 1.057 0 0 0 .215-.328.965.965 0 0 0-.006-.417z" transform="translate(-165.648 -359.059)" style="fill:#ffbeb6"/>
                    <path id="패스_19287" data-name="패스 19287" d="M166.592 439.943a26.281 26.281 0 0 0-.347-3.1c-.249-1.009-.547-2-.873-2.975-.256-1-.543-1.985-.832-2.966l-1.086-2.858a68.652 68.652 0 0 1-.753-2.943q-.442-1.441-.777-2.912-.316-1.476-.535-2.972c-.148-1-.265-2-.362-3q-.112-1.511-.15-3.027-.153-1.511-.245-3.034.105-1.522.259-3.039l-.034-3.061c.013-1.024.006-2.048-.006-3.071.022-1.022.037-2.045.041-3.067q-.029-1.532-.075-3.063l-.02-3.063-.187-3.052-.036-.763c-.013-.251-.02-.514-.05-.792a3.284 3.284 0 0 0-.2-.863 1.936 1.936 0 0 0-.568-.79 2.966 2.966 0 0 0-.759-.479c-.253-.116-.481-.209-.716-.311l-1.407-.6-2.895-1c-.234-.1-.468-.2-.724-.3a3.756 3.756 0 0 0-.848-.219 2.468 2.468 0 0 0-.481-.014 2.038 2.038 0 0 0-.247.034l-.122.025c-.041.009-.08.023-.119.034a2.7 2.7 0 0 0-.845.442 7.151 7.151 0 0 0-1.046 1.274l-.216.3c-.071.1-.147.188-.221.284-.038.047-.073.1-.113.14l-.122.132c-.082.09-.158.181-.248.263l-.287.221-.3.2c-.1.07-.206.125-.308.188l-.156.09c-.053.029-.108.055-.161.082a7.608 7.608 0 0 1-1.333.543c-.22.1-.452.167-.678.245a5.042 5.042 0 0 1-.7.181 8.651 8.651 0 0 1-1.44.2 10.1 10.1 0 0 1-2.845-.562 12.824 12.824 0 0 1-1.419-.355 14.607 14.607 0 0 1-1.384-.533c-.431-.246-.847-.518-1.251-.8s-.782-.6-1.2-.923a6.757 6.757 0 0 0-.655-.494 2.946 2.946 0 0 0-.84-.384 2.739 2.739 0 0 0-.953-.073 4.667 4.667 0 0 0-.86.166 20.689 20.689 0 0 0-2.81 1.413c-.458.225-.909.446-1.364.649a4.1 4.1 0 0 0-.388.19 1.625 1.625 0 0 0-.428.341 1.442 1.442 0 0 0-.286.527 1.655 1.655 0 0 0-.057.548 3.1 3.1 0 0 0 .189.9c.046.134.1.263.147.385l.135.347c.173.46.33.926.459 1.4a16.752 16.752 0 0 1 .863 2.847q.091.741.119 1.487c.018.495.015 1-.012 1.487a7.2 7.2 0 0 1-.255 1.415 13.573 13.573 0 0 1-.488 1.39 18.76 18.76 0 0 0-.876 3c-.061.259-.106.508-.159.763l-.077.381c-.024.127-.044.255-.066.383l-.128.765-.107.767a65.387 65.387 0 0 0-.226 3.076c.01 1.026.035 2.047.05 3.066a75.799 75.799 0 0 1-.415 3.018c-.057 1.006-.161 2-.294 2.994-.1.49-.181.983-.3 1.466l-.083.366-.043.181-.05.181-.2.724a34.8 34.8 0 0 1-.8 2.9 48.923 48.923 0 0 1-1.35 2.714 76.733 76.733 0 0 1-1.176 2.8c-.471.9-.955 1.8-1.435 2.7-.5.89-1 1.786-1.48 2.694q-.624 1.408-1.183 2.85a49.68 49.68 0 0 0-1.2 2.85 31.289 31.289 0 0 0-.879 2.985c-.112.511-.21 1.028-.278 1.553a10.334 10.334 0 0 0-.09 1.607 4.843 4.843 0 0 0 .292 1.671 2.593 2.593 0 0 0 .486.793 2.24 2.24 0 0 0 .781.553 2.846 2.846 0 0 0 .886.216 4.42 4.42 0 0 0 .442.008 3.228 3.228 0 0 0 .443-.054 5 5 0 0 0 1.55-.633c.234-.128.46-.263.678-.4s.44-.271.657-.41q.652-.417 1.288-.863.311-.231.617-.47l.3-.24.119-.1.031-.027a.376.376 0 0 1 .031-.025l.036.016.035.019.013.009.025.016.03.022a2.592 2.592 0 0 1 .458.444 7.727 7.727 0 0 1 .75 1.218 13.51 13.51 0 0 0 .792 1.378 4.3 4.3 0 0 0 .543.682 2.857 2.857 0 0 0 1.663.849 3.308 3.308 0 0 0 .947-.017 4.215 4.215 0 0 0 .851-.278c.137-.054.259-.125.388-.188a3.333 3.333 0 0 0 .362-.212 10.737 10.737 0 0 0 1.3-.968l2.214-2.123.581-.493c.191-.16.38-.315.573-.452a2.672 2.672 0 0 1 1.176-.529 1.5 1.5 0 0 1 .582.045 2.153 2.153 0 0 1 .57.264 5.247 5.247 0 0 1 1.039.94c.633.755 1.184 1.609 1.861 2.43a9.136 9.136 0 0 0 1.176 1.129 6.215 6.215 0 0 0 1.454.85 4.406 4.406 0 0 0 1.719.323 3.8 3.8 0 0 0 .893-.133 4 4 0 0 0 .822-.348 4.565 4.565 0 0 0 .724-.472c.116-.085.217-.181.325-.271a3.527 3.527 0 0 0 .3-.288 14.646 14.646 0 0 0 1.04-1.21l.409-.64c.131-.205.271-.4.416-.592a5.7 5.7 0 0 1 .977-1.021 2.688 2.688 0 0 1 1.23-.432 1.949 1.949 0 0 1 .311.007 1.823 1.823 0 0 1 .307.049 2.488 2.488 0 0 1 .6.237 8.188 8.188 0 0 1 1.219.768c.21.148.428.3.66.443s.466.261.7.383a19.084 19.084 0 0 0 2.834 1.348q.747.243 1.513.426a12.038 12.038 0 0 0 1.574.281 5.607 5.607 0 0 0 1.675-.053 3.561 3.561 0 0 0 .84-.28 3.231 3.231 0 0 0 .745-.5 4.371 4.371 0 0 0 .807-.928 2.863 2.863 0 0 0 .431-1.086 3.33 3.33 0 0 0 .1-.436c.017-.186-.01-.362-.173-.407a.315.315 0 0 0-.109-.008l.007-.021.035.01a.456.456 0 0 0 .413-.062c.21-.172.192-.557.214-.688 0 0 .025-.127.055-.317s.068-.446.1-.7c.06-.511.08-1.022.08-1.022a18.912 18.912 0 0 0-.057-3.126z" transform="translate(-109.099 -355.059)" style="fill:#fff"/>
                    <path id="패스_19288" data-name="패스 19288" d="m177.946 484.056-.023-.159c-.013-.1-.033-.223-.052-.349s-.041-.254-.058-.347l-.027-.157a26.043 26.043 0 0 0-.244-1.547q-.078-.78-.194-1.557-.23-.75-.489-1.486-.154-.765-.331-1.524a83.247 83.247 0 0 0-.58-1.441l-.339-1.517-.548-1.438q-.253-.724-.5-1.447c-.164-.483-.32-.967-.473-1.447-.132-.491-.26-.982-.376-1.474q-.283-.709-.543-1.433-.063-.767-.1-1.538-.21-.733-.4-1.476-.07-.374-.136-.751l-.064-.377-.09-.6c.028-.135-.122-.142-.21-.2l-.3-.137-.222-.1c-.061-.028-.123-.053-.181-.079-.247-.1-.5-.2-.749-.285q-.763-.226-1.546-.374a22.377 22.377 0 0 0-1.549-.317l-.785-.037c-.261-.013-.522-.013-.782-.02s-.521-.013-.781-.017-.52-.006-.78 0c-.259-.03-.518-.058-.777-.08s-.519-.05-.779-.065c-.26.019-.519.034-.778.057l-.776.069-.779-.021-.779-.01c-.514.09-1.025.181-1.538.287h-.778c-.26 0-.519 0-.778.005-.51.09-1.019.181-1.526.279h-1.558c-.5.148-1 .294-1.5.452-.513.057-1.026.113-1.538.181-.519.024-1.038.067-1.559.1-.251.069-.5.152-.748.228s-.5.151-.745.236c-.508.109-1.017.209-1.522.338-.256.049-.515.091-.77.147l-.768.168c-.241.106-.476.231-.711.348s-.471.232-.7.362c-.488.181-.982.352-1.46.564-.244.095-.492.181-.733.284l-.724.314c-.231.124-.452.271-.672.414l-.332.213c-.11.07-.221.14-.327.22-.46.253-.932.5-1.373.789l-.322.22-.161.116c-.052.04-.1.083-.154.125l-.618.509a7.285 7.285 0 0 0-.537.622 3.631 3.631 0 0 0-.458.753 2.363 2.363 0 0 0-.243.4 1.869 1.869 0 0 0-.152.493 1.958 1.958 0 0 0 .124 1.072 1.7 1.7 0 0 0 .385.458 1.5 1.5 0 0 0 .167.119l.027.277.325.119.271.1.271.09c.524.188 1.04.306 1.491.452a3.8 3.8 0 0 1 1.286.443l.062.06.067.068.135.136.271.277c.181.181.371.373.574.558a6.669 6.669 0 0 0 1.538.694 3.947 3.947 0 0 0 .846.247 3.548 3.548 0 0 0 .893.033 7.939 7.939 0 0 0 1.637-.3c.484-.205.957-.421 1.425-.633.489-.158.973-.314 1.457-.452.471-.175.942-.338 1.416-.472a10.723 10.723 0 0 1 1.426-.347 7.858 7.858 0 0 1 1.447-.072 6.126 6.126 0 0 1 1.407.242 4.664 4.664 0 0 1 1.22.67 7.279 7.279 0 0 1 1.1.919c.343.355.673.743 1.022 1.129a12.259 12.259 0 0 0 1.069 1.213 5.4 5.4 0 0 0 1.483.893l.436.1a4.257 4.257 0 0 0 .439.055 5.293 5.293 0 0 0 .847-.012c.543.013 1.07-.033 1.573-.063a11.612 11.612 0 0 1 1.477 0l.362.065.181.034.181.042.357.085.35.1.181.037.175.047.35.09.344.114a3.58 3.58 0 0 1 .339.123l.339.124c.112.044.221.1.331.143.224.09.431.212.647.321.1.068.194.143.291.212a3.265 3.265 0 0 1 .281.222l.271.233c.09.08.167.166.251.249l.151.1c.05.033.095.07.144.106l.288.217c.09.077.181.159.271.24l.137.122c.045.041.084.09.127.131a9.815 9.815 0 0 1 .676 1.314c.252.439.5.9.781 1.347a6.937 6.937 0 0 0 .848 1.427 3.865 3.865 0 0 0 .691.571 3.108 3.108 0 0 0 .844.375 2.946 2.946 0 0 0 .922.107 2.988 2.988 0 0 0 .9-.181 5.165 5.165 0 0 0 .591-.229 1.093 1.093 0 0 0 .471-.408 1.249 1.249 0 0 0 .151-.19.262.262 0 0 0-.062-.328.566.566 0 0 0-.082-.069l.008-.007h.036a.7.7 0 0 0 .375-.11c.139-.091.024-.269.012-.335z" transform="translate(-120.387 -398.961)" style="fill:#5fc6be"/>
                    <path id="패스_19289" data-name="패스 19289" d="m170.138 427.208-.024-.289-.1-1.149-.25-1.283-.241-1.285c-.038-.87-.065-1.741-.1-2.611l-.374-2.582v-2.616a264.69 264.69 0 0 1-.488-2.576c-.045-.869-.082-1.737-.12-2.605 0-.872.02-1.744.029-2.615l-.327-2.591c-.032-.869-.067-1.737-.09-2.605l.011-1.3.018-1.3c-.123-.864-.235-1.73-.351-2.6l-.039-2.608.01-.652.005-.326v-1.645h-.07l-.143.007-.287.013-.582.029-.3.027-.181.019-.324.035-.65.07-1.3.143-2.614.053-2.605.175-2.588.407-2.623-.073-2.6.271-2.606.181-2.587.409-2.623.018-2.586.414-2.6.173-2.612.106-2.588.35-2.605.155-2.6.267-2.593.3-2.6.261c-.865.08-1.732.162-2.6.228l-2.606.125-2.6.215-1.3.09c-.43.027-.859.05-1.292.069-.866 0-1.739-.007-2.623.013a25.993 25.993 0 0 0-2.653.311l-.059.014-.11.023-.219.046-.422.1q.048.3.076.575c0-.016 0-.01.007 0v.005c.014.043.031.117.049.188l.026.111.013.057v.007h-.007l-.079.01-.157.02-.155.02h-.039v.012l.007.023.029.09.048.181.052.194c.067.264.127.536.181.809.113.852.2 1.714.285 2.577l.125 1.3c.011.11.021.216.035.335l.04.324.08.648.226 2.617.327 2.59.371 2.584.255 2.6.543 2.563c.086.869.169 1.726.234 2.589.114.859.214 1.719.312 2.586.045.869.09 1.74.157 2.613.106.869.224 1.738.375 2.6s.331 1.727.543 2.582a8.736 8.736 0 0 0 .543 1.785c.047.09.214.623.388.556a.13.13 0 0 0 .05-.037l.007.017a.326.326 0 0 0-.038.018.174.174 0 0 0-.1.126.179.179 0 0 0 0 .083.4.4 0 0 0 .017.081.549.549 0 0 0 .147.226.781.781 0 0 0 .7.115l.279-.01a21.156 21.156 0 0 0 1.191-.094l.271-.03c.877-.066 1.747-.148 2.616-.236q1.311-.051 2.623-.117L121 432.5l2.612-.171 1.286-.221.633-.106.64-.1 2.623-.053 2.594-.318 2.6-.271 2.6-.271 2.6-.209 2.576-.484 2.623-.011 2.581-.445 2.591-.343 2.61-.21 2.592-.3 2.6-.209 2.582-.413 2.585-.379 2.611-.161 2.58-.419.652-.043.326-.022.547-.048.593-.053.15-.014.075-.007h.057c.012-.004.019-.002.019-.011z" transform="translate(-103.83 -360.354)" style="fill:#d9381a"/>
                    <path id="패스_19290" data-name="패스 19290" d="M110.578 433.736a1.526 1.526 0 0 0-.165-.337 2.185 2.185 0 0 0-.193-.289l-.013-.017-.008-.012v-.007a.035.035 0 0 1 0-.01.042.042 0 0 1 0-.015.329.329 0 0 1-.057-.017c-.033-.015-.023-.007-.021-.013l.007-.012a.152.152 0 0 0 .024-.039.885.885 0 0 0 .133-.258.917.917 0 0 0 .033-.146.811.811 0 0 0 .005-.145 1.422 1.422 0 0 0-.162-.745 2.522 2.522 0 0 0-.214-.249 4.212 4.212 0 0 0-.219-.224 2.908 2.908 0 0 0-.181-.255c-.064-.082-.127-.165-.193-.246a6.582 6.582 0 0 0-.535-.321c-.068-.076-.14-.15-.209-.225l-.217-.218c-.127-.07-.256-.136-.384-.2.022-.009.043-.017.064-.027a1.076 1.076 0 0 0 .334-.249 1.233 1.233 0 0 0 .348-.744 1.47 1.47 0 0 0-.3-.695 2.26 2.26 0 0 0-.378-.543 5.993 5.993 0 0 0-.421-.452q-.248-.175-.5-.335-.219-.209-.452-.406-.249-.172-.506-.33a14.196 14.196 0 0 0-.581-.2 5.419 5.419 0 0 0-.506-.384 3.93 3.93 0 0 0-.628-.153 2.649 2.649 0 0 0-.669-.076 2.127 2.127 0 0 0-.654.237 1.37 1.37 0 0 0-.663.367 1.076 1.076 0 0 0-.141.411.983.983 0 0 0 .036.413 1.63 1.63 0 0 0 .271.657 2.951 2.951 0 0 0 .174.271c.059.082.124.174.191.258a4.6 4.6 0 0 0 .52.376c.027.023.019.018.023.023v.01a.089.089 0 0 1 .005.015.014.014 0 0 1-.007.018.021.021 0 0 1 0 .015l-.014.009v.007l-.055.048a2.216 2.216 0 0 0-.423.543 1.332 1.332 0 0 0-.137.352 1.053 1.053 0 0 0-.013.392 1.426 1.426 0 0 0 .09.339 1.692 1.692 0 0 1 .079.236.129.129 0 0 1-.022.1.161.161 0 0 1-.035.029.671.671 0 0 1-.08.044c-.061.039-.151.08-.253.141a1.257 1.257 0 0 0-.293.243 1.342 1.342 0 0 0-.337.66 1.275 1.275 0 0 0-.044.384 2.946 2.946 0 0 0 .042.338 1.1 1.1 0 0 1 .045.2.137.137 0 0 1-.017.09.753.753 0 0 1-.116.211 2.056 2.056 0 0 0-.326 1 1.86 1.86 0 0 0 .132.661 2.976 2.976 0 0 0 .251.6c.12.174.246.334.371.488s.263.295.4.441c.116.16.23.322.353.478l.488.362q.181.232.374.459l.44.394c.127.152.254.3.384.452l.222.2q.11.1.227.19l.463.368a1.282 1.282 0 0 0 .33.255c.023.009.112.091.181.021a.131.131 0 0 0 .017-.027v-.005l.006-.011a.736.736 0 0 0 .034-.079.091.091 0 0 0-.013-.1 2.21 2.21 0 0 0-.122-.115v-.008h.023a.8.8 0 0 0 .237-.072c.1-.055.019-.111.013-.136l-.09-.372-.07-.579.026-.589-.119-.572c0-.265.034-.222.06-.234a.305.305 0 0 1-.033-.065c0-.012.017-.02.039-.026a.35.35 0 0 1 .037.04l.012.018c0 .006 0 .009.032.023.1.044.194.085.292.124q.311.046.623.063a3.245 3.245 0 0 0 .666.006 1.558 1.558 0 0 0 .724-.257l.09-.06a.7.7 0 0 0 .09-.079.735.735 0 0 0 .079-.09 5.11 5.11 0 0 0 .067-.09 1.255 1.255 0 0 0 .1-.2l.036-.1.011-.035a.454.454 0 0 1-.075-.1.783.783 0 0 0-.075-.09l.027.023.061.058a.425.425 0 0 1 .074.09.11.11 0 0 1 .01.024.036.036 0 0 1 0-.023s0-.007.01-.01h.09a1.481 1.481 0 0 0 .386-.039 1.128 1.128 0 0 0 .7-.383 1.094 1.094 0 0 0 .291-.761 1.45 1.45 0 0 0-.064-.374zm-1.99.934a.423.423 0 0 0-.05-.034l.044.021a.076.076 0 0 1 .009.014z" transform="translate(-101.658 -379.1)" style="fill:#ffbeb6"/>
                    <path id="패스_19291" data-name="패스 19291" d="M237.253 437.5a.057.057 0 0 1-.008.017.052.052 0 0 1 .018-.014h-.009z" transform="translate(-178.277 -386.082)" style="fill:#96cdef"/>
                    <path id="패스_19292" data-name="패스 19292" d="M247.149 430.878a2.217 2.217 0 0 0-.257-.576 3.552 3.552 0 0 0-.4-.424.167.167 0 0 0-.078-.041l-.033-.013-.018-.008c-.006 0-.015-.007-.01-.009h.006a.185.185 0 0 0 .034-.042l.016-.025.01-.016.018-.03a1.2 1.2 0 0 0 .071-.144 1.445 1.445 0 0 0 .118-.646 1.515 1.515 0 0 0-.024-.329 1.915 1.915 0 0 0-.084-.307 2.535 2.535 0 0 0-.323-.506 5.193 5.193 0 0 0-.362-.426q-.159-.218-.328-.43-.2-.181-.405-.354-.237-.138-.478-.266a9.093 9.093 0 0 0-.418-.342 3.268 3.268 0 0 0-.482-.3 2.338 2.338 0 0 0-.543-.259 3.906 3.906 0 0 0-.569-.068c-.186 0-.362 0-.543.007q-.271-.028-.536-.045-.271.07-.528.15-.271-.007-.535 0c-.175.032-.351.064-.535.112a1.834 1.834 0 0 0-.589.137 1.323 1.323 0 0 0-.263.208 1.034 1.034 0 0 0-.111.135.817.817 0 0 0-.09.169.969.969 0 0 0-.04.537h-.155q-.271-.035-.555-.048a6.32 6.32 0 0 0-.536.151 2.4 2.4 0 0 0-.6.112 1.474 1.474 0 0 0-.5.48 1.177 1.177 0 0 0-.327.689.3.3 0 0 0 .007.08.149.149 0 0 0 .007.034h.007l.02.013.017.01h-.028l-.081.043a1.354 1.354 0 0 0-.515.5 1.3 1.3 0 0 0-.156.345.851.851 0 0 0 .362 1.005 1.318 1.318 0 0 0 .213.28 1.3 1.3 0 0 0 .139.12l.038.028.015.01a.629.629 0 0 1 .09-.037.022.022 0 0 1 .013 0 .2.2 0 0 0-.012.05v.016l-.007.043a1.353 1.353 0 0 0 .053.567 1.166 1.166 0 0 0 .181.311 2.119 2.119 0 0 0 .483.384c.157.114.3.206.441.307l.484.205.476.221.417.324.485.2q.21.159.414.318.249.083.492.175c.126.118.247.239.362.362.145.08.289.167.424.26a1.867 1.867 0 0 1 .225.429 1.232 1.232 0 0 1 .324.306 3.246 3.246 0 0 1 .072.476l-.026.53.175.5.015.13.007.065.015.107.03.231a1.1 1.1 0 0 0 .045.221.741.741 0 0 0 .033.095.715.715 0 0 0 .036.084.462.462 0 0 0 .111.131.51.51 0 0 0 .181.086.6.6 0 0 0 .181.019.9.9 0 0 0 .356-.264c.055-.064.106-.129.154-.19l.072-.09.037-.059.4-.342.422-.313.348-.394.438-.3.2-.176a2.3 2.3 0 0 0 .218-.219 1.394 1.394 0 0 0 .14-.332 1.091 1.091 0 0 0 .034-.362c.033-.041.055-.053.08-.048a.156.156 0 0 1 .043.021.219.219 0 0 1 .036.03.019.019 0 0 1 0-.01l.017-.007a.827.827 0 0 0 .082-.032l.156-.077.143-.09a1.806 1.806 0 0 0 .5-.438 1.7 1.7 0 0 0 .188-.633 1.406 1.406 0 0 0 .133-.68c0-.015-.011-.03-.012-.025h-.022a.084.084 0 0 1-.029-.02.068.068 0 0 1-.012-.07h.031l.038-.02a1.106 1.106 0 0 0 .157-.1 1.125 1.125 0 0 0 .251-.271 1.5 1.5 0 0 0 .28-.648 1.691 1.691 0 0 0-.162-.658z" transform="translate(-177.233 -379.171)" style="fill:#ffbeb6"/>
                    <path id="패스_19293" data-name="패스 19293" d="M250.652 430.194c.1-.08.023-.045.017-.049l-.077-.049a.86.86 0 0 0-.069-.111l.007-.181c-.05-.014-.1-.03-.149-.041l-.02-.164c-.053-.008-.1-.018-.156-.022v-.194a1.682 1.682 0 0 0-.13-.046l-.109-.068c-.037-.021-.073-.043-.111-.063l-.09-.1a3.02 3.02 0 0 0-.189.067 1.938 1.938 0 0 0-.013-.219c-.056.013-.111.025-.167.042l-.127-.02c-.027-.034-.054-.071-.082-.1l-.111-.049-.084-.106-.144.024h-.131l-.074-.135-.141.032-.081-.122-.159.09-.074-.147-.139.043-.068-.181-.167.146-.1-.076-.08-.157-.145.085-.1-.048-.1-.117-.151.14-.112-.04-.1-.083-.127.043-.1-.105-.115-.029-.134.119-.09-.191-.121.032-.113-.036-.127.11-.1-.147-.131.115-.111-.051-.107-.1-.12.073-.109-.06-.116.021-.117.048-.115.018h-.113l-.106-.056-.107.005-.1-.018c-.031-.029-.06-.059-.09-.09a.711.711 0 0 0-.1 0 1.3 1.3 0 0 1-.12.1l-.09-.03a.918.918 0 0 1-.084-.033.879.879 0 0 1-.043-.1.257.257 0 0 1-.034-.017l-.034-.011a.348.348 0 0 1-.085-.012.544.544 0 0 1-.028-.079.693.693 0 0 1-.153.018.8.8 0 0 1-.014-.09.484.484 0 0 1-.075-.057.713.713 0 0 1 .019-.09.4.4 0 0 1-.041-.07.324.324 0 0 1-.024-.077c0-.021.038-.026-.014-.06-.008-.006 0-.02-.109-.06l-.053-.017-.09-.027c-.058-.014-.077-.013-.08-.006a.26.26 0 0 0-.017.114.673.673 0 0 0-.018.147.761.761 0 0 0 .031.142 1.181 1.181 0 0 0-.007.152 1.3 1.3 0 0 0 0 .165.882.882 0 0 0 .1.112 1.536 1.536 0 0 0 .047.152 1.212 1.212 0 0 0 .127.083.944.944 0 0 0 .114.09l.053.058.056.049a1.108 1.108 0 0 0 .161-.014c.032.04.065.077.1.116a.721.721 0 0 0 .115.09 1.427 1.427 0 0 0 .142-.022c.036.038.073.075.111.111h.128a.947.947 0 0 0 .127-.017l.11.13.124-.079.12-.069.1.133.111.026.123-.141.1.153.122-.114.11.023.11.029.1.1.109.028.124-.127h.112l.09.2.127-.129.107.028.09.15.124-.09.121-.062.074.2.136-.131.083.127.125-.066c.025.052.049.1.073.157l.144-.126c.027.041.052.084.077.126l.13-.058.064.161.13-.056.107.02.049.187.1.033.1.009.157-.107.09.06.045.163.084.07.171-.112.035.167a2.19 2.19 0 0 1 .143-.046l.064.1a.871.871 0 0 1 .117.005l.09.052c.029.021.055.043.083.065l.027.144c.025.023.047.05.07.074l.08.059c.057-.019.11-.034.167-.05l.034.116a1.455 1.455 0 0 1-.013.157l.083.049c.038.007.071.017.108.026l.014.111.08-.006a.689.689 0 0 0 .085-.007l-.01.044-.007.034s-.013.023.033 0a3.777 3.777 0 0 0 .379-.246c.126-.096.201-.151.242-.186z" transform="translate(-181.614 -380.235)" style="fill:#de7c8a"/>
                    <path id="패스_19294" data-name="패스 19294" d="M247.2 435.5c.116-.047.033-.047.029-.054l-.032-.055-.033-.054a.92.92 0 0 0-.065-.181 1.321 1.321 0 0 0 0-.234 1.375 1.375 0 0 0-.187-.109 2.112 2.112 0 0 0-.061-.212 2.44 2.44 0 0 0-.2-.057 4.595 4.595 0 0 0-.057-.224 4.034 4.034 0 0 0-.168-.064.839.839 0 0 1-.144-.082l-.14-.072-.109-.107-.205.055a2.1 2.1 0 0 1-.007-.228c-.029 0-.058.007-.09.009h-.095l-.146-.056-.09-.136-.124-.09-.09-.141-.175-.031-.161-.05c-.023-.058-.049-.115-.075-.173l-.181-.024c-.03-.054-.059-.109-.09-.162-.072.01-.143.022-.214.034a2.342 2.342 0 0 0-.09-.181h-.187q-.039-.106-.09-.211l-.224.109c-.042-.034-.085-.071-.128-.1l-.1-.181c-.064.017-.128.034-.192.053l-.142-.077c-.04-.047-.081-.091-.122-.138l-.19.111c-.048-.023-.1-.043-.146-.064l-.134-.106-.17.02-.13-.127-.151-.049-.181.1-.115-.21-.164.013-.15-.054-.181.09-.131-.164-.178.1-.148-.064-.142-.117-.166.061-.148-.07-.158.009-.161.038-.157.009h-.155l-.15-.06h-.155l-.153-.017-.143-.084-.147.007c-.053.035-.1.068-.157.1l-.141-.024-.137-.026a2.204 2.204 0 0 1-.112-.1 2.03 2.03 0 0 1-.124-.033 1.072 1.072 0 0 0-.129-.017l-.09-.091a.888.888 0 0 1-.181.04 1.176 1.176 0 0 1-.079-.106.855.855 0 0 1-.12-.062 3.1 3.1 0 0 1-.043-.124.843.843 0 0 1-.09-.09c-.025-.033-.049-.068-.072-.1s.012-.061-.046-.082c-.009 0-.008-.03-.113-.02l-.049.007c-.031.006-.062.011-.085.017-.051.013-.067.023-.067.032a.416.416 0 0 0 .031.136.866.866 0 0 0 .049.174 1.067 1.067 0 0 0 .1.151 1.627 1.627 0 0 0 .067.172c.022.06.047.12.075.181a1.365 1.365 0 0 0 .155.1c.036.052.074.1.116.154a1.1 1.1 0 0 0 .177.061 1.6 1.6 0 0 0 .166.066 1.544 1.544 0 0 1 .156.084 1.8 1.8 0 0 0 .181-.031c.049.035.1.07.15.1l.155.08c.057-.009.113-.02.168-.032l.149.1h.157l.155-.015.141.114.158-.07c.053-.02.105-.039.158-.061l.137.141.148.033.177-.131.13.164.164-.1.147.036.145.043.133.114.143.043.172-.111.15.014c.037.07.072.142.107.214l.181-.111.142.047.111.167.174-.068.166-.041.09.216c.061-.036.124-.073.186-.107l.107.148c.056-.015.112-.028.169-.04l.09.181.193-.1.1.147c.057-.011.113-.018.171-.028l.08.181.164-.025c.044.017.09.033.131.052.016.07.03.137.042.208.04.021.081.043.12.067s.09.033.133.051c.068-.018.137-.033.208-.05l.107.1.04.193.1.113.226-.046.037.2.188.01.09.143.164.053a1.548 1.548 0 0 0 .14.09l.13.1.078.171.117.091.12.075c.066-.014.128-.028.194-.04.025.044.044.09.064.132a1.219 1.219 0 0 1 .005.169.891.891 0 0 1 .085.061.793.793 0 0 1 .108.042c0 .04-.009.083-.009.118h.026a.267.267 0 0 1 .056.01c.045.006.09.017.09.017a.128.128 0 0 0-.008.022.22.22 0 0 0-.011.023l-.014.033c0 .009-.06.055.463-.09a1.494 1.494 0 0 0 .263-.078z" transform="translate(-178.237 -382.352)" style="fill:#de7c8a"/>
                    <path id="패스_19295" data-name="패스 19295" d="M245.41 440.28c.122-.035.037-.04.033-.046l-.06-.1c-.009-.056-.016-.113-.028-.168.023-.066.043-.134.063-.2a1.491 1.491 0 0 0-.14-.132c.008-.066.014-.133.02-.2a1.627 1.627 0 0 0-.162-.11c.013-.073.025-.148.036-.225-.043-.043-.09-.081-.136-.12a1.2 1.2 0 0 1-.109-.135l-.118-.123c-.027-.05-.054-.1-.086-.151q-.117-.007-.23-.011c.007-.084.011-.166.013-.248l-.2-.023c-.05-.026-.1-.048-.151-.071l-.09-.147-.13-.09c-.03-.048-.06-.1-.09-.145l-.181-.025c-.054-.015-.107-.03-.161-.043l-.076-.169a2.63 2.63 0 0 0-.175-.014l-.084-.158c-.069.013-.137.028-.206.042l-.07-.181h-.176l-.053-.214-.227.09a2.988 2.988 0 0 0-.111-.117l-.075-.2a5.367 5.367 0 0 0-.2.038l-.13-.09c-.033-.052-.069-.1-.1-.151l-.215.1c-.045-.027-.09-.05-.138-.075l-.121-.117c-.056 0-.114.006-.17.008l-.117-.136c-.048-.022-.1-.04-.144-.06l-.191.083a3.422 3.422 0 0 0-.1-.214h-.163l-.145-.061-.181.077-.117-.167-.181.08-.142-.071-.133-.118-.167.05-.142-.078h-.157l-.16.026h-.155l-.153-.012-.145-.066h-.153l-.15-.023-.143-.09h-.154l-.163.1-.147-.019-.142-.017a4.511 4.511 0 0 1-.125-.09 1.497 1.497 0 0 1-.128-.02.831.831 0 0 0-.131.005 1.443 1.443 0 0 1-.1-.071.894.894 0 0 1-.164.069c-.031-.029-.06-.059-.09-.09a.769.769 0 0 1-.124-.042.825.825 0 0 1-.053-.112.6.6 0 0 1-.09-.079.521.521 0 0 1-.07-.095c-.014-.025.013-.057-.043-.076-.009 0-.007-.029-.11-.02l-.048.006c-.03 0-.06.01-.083.015-.051.012-.065.023-.065.031a.38.38 0 0 0 .035.137.6.6 0 0 0 .174.321 1.691 1.691 0 0 0 .081.164 1.823 1.823 0 0 0 .09.174 1.016 1.016 0 0 0 .165.084c.042.048.09.09.139.136a1.5 1.5 0 0 0 .181.034 1.355 1.355 0 0 0 .167.044c.053.022.106.042.158.06.059-.016.116-.034.172-.055l.147.09.146.068.153-.04.137.1h.147l.15-.011.132.116.157-.064.157-.051.127.146.141.04.17-.117.117.166.167-.085.14.044.138.05.12.12.136.052.174-.09.144.026.086.219.181-.09.132.06c.031.059.063.116.09.181l.171-.053.164-.026.064.227c.063-.03.128-.062.193-.09l.085.161c.056-.01.113-.019.169-.027l.065.19c.067-.029.134-.056.2-.081l.076.159a2.41 2.41 0 0 1 .174-.013l.06.194.176-.011.136.06.04.217.127.07.138.05.209-.059.109.1c.016.062.029.127.041.19l.1.105c.073-.021.145-.04.219-.059l.027.194h.175c.022.046.046.09.065.137l.138.053.1.09.09.106v.163l.069.111c.027.034.05.068.075.1.063.007.131.014.194.026l.008.147a1.212 1.212 0 0 1-.052.168l.071.1a1.042 1.042 0 0 1 .1.09c-.006.046-.016.09-.018.134l.027.012.056.028.081.044-.026.047-.02.036c-.005.009-.072.06.484-.043a2.847 2.847 0 0 0 .292-.07z" transform="translate(-177.575 -384.788)" style="fill:#de7c8a"/>
                    <path id="패스_19296" data-name="패스 19296" d="M244.582 445.878c.127-.005.047-.023.044-.028l-.027-.083.013-.064.006-.064c.044-.043.083-.09.122-.134l-.09-.125.1-.138c-.034-.04-.073-.08-.109-.119.044-.049.087-.1.129-.15-.02-.041-.04-.083-.064-.123l-.034-.127-.038-.126v-.135q-.095-.044-.189-.084c.05-.058.1-.118.147-.181l-.156-.09-.082-.108c.007-.047.007-.09.009-.14l-.048-.117c0-.048.009-.1.009-.145l-.13-.084-.106-.09c.014-.054.023-.107.034-.16l-.137-.073c.007-.053.014-.106.019-.158l-.194-.033.038-.175c-.047-.021-.1-.04-.146-.058.021-.066.042-.132.062-.2-.08 0-.157.006-.236.013l-.039-.13c.011-.06.021-.124.03-.19a2.134 2.134 0 0 0-.181-.017l-.065-.114c0-.054-.009-.109-.015-.163q-.113.016-.222.036l-.079-.1a1.3 1.3 0 0 0-.05-.134l-.144-.031-.04-.152-.1-.085-.188.037v-.22l-.135-.031-.1-.086-.172.039a5.023 5.023 0 0 0-.041-.174l-.169.044-.09-.09-.07-.128-.147.015-.09-.09-.121-.028-.131-.007-.118-.03-.111-.042-.09-.09-.1-.04-.1-.055-.075-.107-.11-.036c-.049.013-.1.025-.148.035l-.1-.06-.1-.058-.072-.11-.107-.055-.12-.035-.09-.09-.167.04a3.45 3.45 0 0 0-.1-.079l-.126-.015-.09-.081-.12-.015c-.038-.007-.076-.015-.113-.025s-.033-.047-.078-.02c-.007 0-.023-.014-.073.068a.41.41 0 0 0-.022.039l-.035.07c-.021.043-.023.058-.018.062a.492.492 0 0 0 .09.04c.035.023.07.047.106.069a.578.578 0 0 0 .114.045l.09.09c.028.033.055.067.08.1l.108.028a.978.978 0 0 1 .07.1l.112.034.1.056.09.083h.137l.073.114.084.1.131.02.072.124.111.047.117.034.067.133.14-.012.136-.005.054.154.1.07.164-.063c.015.058.027.117.04.175l.152-.04.09.07.09.076.053.135.084.077.165-.053.1.05c0 .073-.009.146-.016.218a3.37 3.37 0 0 1 .171-.052l.077.08v.181l.151-.014.137.01q-.023.108-.053.217l.191-.042-.007.157.145.014c-.011.06-.024.12-.037.181.067-.011.134-.021.2-.027l-.017.153.146.025a3.5 3.5 0 0 1-.054.174l.144.032c.025.027.052.053.074.082l-.09.181.06.09c.027.025.051.051.078.078l.2.017c.01.037.023.072.03.109l-.079.157.018.108c.072.007.139.018.211.029l-.09.152c.048.02.1.04.144.063l-.024.123.09.09c.013.034.022.07.033.1l.017.109c-.027.044-.051.09-.079.129v.109l.022.1c.056.026.108.054.162.083l-.054.117c-.038.04-.074.08-.114.119l.028.1.07.1c-.019.037-.047.073-.065.108l.071.051.079.053a.116.116 0 0 0-.014.017l-.017.017-.024.027c-.007.006-.076.038.477.053.138 0 .231 0 .284-.002z" transform="translate(-179.144 -387.381)" style="fill:#de7c8a"/>
                    <path id="패스_19297" data-name="패스 19297" d="M102.792 427.612c-.1.052-.029.033-.024.035l.06.043.037.091-.054.139a1.113 1.113 0 0 0 .109.057l-.036.135c.039.017.08.033.119.048a1.46 1.46 0 0 0-.06.157l.09.066.063.082a1 1 0 0 0 .07.078l.039.1a1.694 1.694 0 0 0 .176-.009c-.024.064-.043.124-.063.187h.151l.1.049.036.107.076.069c.012.037.023.077.037.112l.127.008.11.024a1.9 1.9 0 0 0 .022.135h.127l.032.128a3.62 3.62 0 0 0 .157-.055l.02.15c.043 0 .084-.008.126-.015l.005.181.181-.107.061.09.022.161.139-.055.072.067.043.125.16-.107.076.057.057.1.112-.017.046.119.08.048.142-.085.009.2h.1l.074.058.134-.07.026.157.134-.07.074.075.059.117.123-.036.075.077.1.005.108-.018.1.006.09.018.075.068.09.013.085.032.065.091.09.011.119-.072.041.017c.015.007.033.011.049.018.033.011.066.02.1.029.027.03.055.058.084.085l.1.014.1-.013a.946.946 0 0 0 .09.049l.111-.1.09.042.1-.026.081.052.09-.012c.03 0 .06-.006.09-.007s.033.038.065-.008c.005-.007.021 0 .048-.1l.011-.047.017-.084c.01-.051.009-.067 0-.07a.2.2 0 0 0-.074-.009l-.09-.028a.541.541 0 0 1-.1-.006l-.09-.058-.083-.075-.09.008a2.411 2.411 0 0 1-.08-.068.532.532 0 0 0-.09.014l-.091-.023c-.027-.014-.05-.03-.074-.044l-.1.046c-.02-.028-.04-.055-.057-.085l-.029-.035-.037-.037-.106.014-.063-.1-.09-.02-.1-.006-.055-.116-.11.043-.107.035c-.015-.046-.031-.09-.045-.139l-.076-.047-.129.095a4.158 4.158 0 0 1-.029-.161l-.121.07-.072-.047-.069-.054-.046-.118-.076-.057-.14.08-.09-.027-.006-.2-.143.09-.076-.052-.023-.163-.13.061-.117.034v-.2l-.149.1-.031-.137-.121.042c-.005-.053-.012-.106-.015-.159l-.151.1-.03-.127-.12.036-.007-.157-.121.034c-.028-.01-.053-.022-.08-.033l.014-.174-.072-.04-.082-.024-.158.072a.685.685 0 0 1-.054-.068c0-.05.009-.1.015-.148l-.044-.071a3.612 3.612 0 0 1-.172.068c.008-.05.017-.1.027-.147l-.131.015-.016-.1-.09-.026c-.019-.02-.04-.038-.057-.06l-.043-.071.026-.122a.639.639 0 0 1-.033-.074l-.046-.066h-.157a.427.427 0 0 1 .008-.1l.058-.127-.06-.059a.964.964 0 0 1-.09-.046l.019-.1-.07-.013-.07-.013.022-.039.017-.03s.018-.019-.027-.007a3.562 3.562 0 0 0-.4.155c-.12.044-.199.08-.245.102z" transform="translate(-102.268 -380.34)" style="fill:#de7c8a"/>
                    <path id="패스_19298" data-name="패스 19298" d="M105.918 437.166c0 .115.014.044.019.043a.268.268 0 0 0 .061-.022l.09.013.08.114.1-.06.077.1.1-.066.066.14.09-.021a.228.228 0 0 1 .09.01l.09.009.079.051a3.24 3.24 0 0 1 .123-.111l.04.181.117-.074.1-.006.068.077.084.03c.022.027.041.056.061.084.036-.01.073-.022.11-.031l.1-.007.043.12c.037-.009.075-.018.113-.025l.041.114c.046-.023.09-.046.141-.068l.025.14.12-.019v.174l.173-.1.058.09.016.159.143-.041.072.074.04.13.171-.09.08.066.061.1.119-.007.052.123.086.056.149-.075.016.2h.11l.08.063.139-.068.035.164.139-.07.073.077c.017.04.031.08.045.118l.116-.035.061.091.1.018h.11l.1.023.09.036.065.09.1.032.09.052.058.115.1.027.144-.07.09.049.09.044.071.119c.033.014.068.025.1.036h.115c.03.03.062.057.09.09a1.937 1.937 0 0 0 .144-.131l.1.07c.039-.01.081-.025.119-.037a1.164 1.164 0 0 0 .11.08l.118-.049c.019-.008.038-.014.057-.023l.055-.034c.027 0 .053-.017.066-.11a.216.216 0 0 0 .006-.123l-.008-.04-.017-.076a.337.337 0 0 0-.024-.081.5.5 0 0 0-.04-.056v-.019h-.023a.612.612 0 0 0-.08-.018c-.027 0-.054.011-.08.018-.026-.019-.053-.044-.077-.065s-.047-.059-.068-.09l-.085.03-.064-.082c-.03.011-.06.023-.09.032l-.086-.011a1.612 1.612 0 0 1-.073-.051l-.117.06-.057-.1-.064-.08-.108.02-.047-.118-.09-.024-.1-.013-.04-.13-.127.039-.123.027-.031-.153-.082-.058-.157.09-.029-.173-.144.064-.09-.054-.081-.056-.053-.118-.08-.054-.143.085-.09-.025-.01-.2-.145.091-.079-.052-.025-.158-.131.053-.12.027v-.2l-.154.09-.027-.136-.127.029-.013-.16-.163.08-.027-.147-.13.023-.018-.159-.132.023-.095-.039c0-.06-.01-.121-.017-.181l-.1-.045-.108-.024a3.456 3.456 0 0 0-.159.084c-.028-.021-.056-.043-.085-.062l-.047-.15a1.217 1.217 0 0 0-.09-.065c-.053.035-.105.07-.157.108l-.054-.15-.131.056a2.105 2.105 0 0 0-.081-.083l-.114.015-.1-.026-.1-.036-.079-.116-.1-.04c-.034-.008-.07-.013-.1-.021a4.155 4.155 0 0 0-.127.105l-.09-.076-.09-.124h-.108a.357.357 0 0 0-.111.043c-.033-.023-.066-.047-.1-.069l-.057.054-.056.055a.284.284 0 0 0-.03-.034l-.026-.022c-.005-.007-.038-.067-.056.426a2.757 2.757 0 0 0-.013.274z" transform="translate(-104.065 -385.469)" style="fill:#de7c8a"/>
                    <path id="패스_19299" data-name="패스 19299" d="M110.216 447.346c-.117-.01-.044 0-.043.005l.022.036a.156.156 0 0 0-.028.046.782.782 0 0 1-.12 0 .522.522 0 0 1 .038.082.926.926 0 0 1-.11-.008.552.552 0 0 1 .023.1 1.227 1.227 0 0 1-.137-.047.447.447 0 0 1-.02.07.528.528 0 0 1-.046.047.656.656 0 0 1-.049.049c-.018.015-.049.009-.074.01 0 .053.008.107.008.161a1.594 1.594 0 0 1-.138-.119c-.006.042-.012.084-.02.127l-.053.062c-.028-.008-.055-.019-.081-.028l-.061.018c-.026-.014-.053-.028-.077-.044a1.16 1.16 0 0 1-.062.081.328.328 0 0 1-.071.056 3.128 3.128 0 0 1-.078-.09c-.025.025-.05.05-.079.074a1.039 1.039 0 0 1-.073-.091c-.029.042-.06.082-.09.124l-.068-.121-.09.066-.057-.161a5.457 5.457 0 0 1-.118.16l-.076-.064-.056-.146-.111.09-.079-.047-.067-.106-.129.136-.08-.042-.065-.086-.1.034-.056-.11-.079-.039-.13.1-.023-.194-.1.011-.076-.054-.13.077-.037-.157-.131.077-.074-.071-.056-.112-.118.041-.075-.079-.1-.006-.11.019-.1-.005c-.032-.007-.066-.011-.1-.017-.028-.023-.056-.047-.086-.069l-.1-.008-.1-.026-.09-.09h-.108l-.117.1a.8.8 0 0 0-.1-.012h-.1a1.048 1.048 0 0 0-.107-.068.625.625 0 0 0-.107.012l-.1.042a.8.8 0 0 0-.11-.025l-.079.151a1.25 1.25 0 0 0-.107-.012l-.09.071a.829.829 0 0 0-.109-.007l-.084.069-.041.033-.033.049c-.014.024-.05 0-.049.06 0 .009-.021.013.019.1l.02.038.036.067c.023.04.033.051.037.051.024 0 .038-.022.062-.021h.048l.041-.009.077-.038c.033.007.064.016.1.026s.066.032.1.048l.072-.043c.03.013.061.029.09.045.025-.013.049-.03.074-.045l.079-.014.08.023.08-.08c.027.022.053.047.079.071a.788.788 0 0 0 .076.054l.086-.046.068.09h.082c.027 0 .057-.008.086-.011l.058.112c.033-.021.067-.039.1-.059l.1-.047.046.14.077.041.13-.106.035.161.127-.06.08.045.078.051.053.114.08.051.136-.09.09.021.023.2.139-.1.086.046.048.158.127-.07.117-.046.04.2.137-.122.065.128.117-.064.062.153.13-.127.073.116.115-.068c.023.049.048.1.073.146l.115-.073h.1c.026.055.055.109.085.163h.109l.111-.023c.038-.048.075-.1.11-.148l.107.017c.038.038.077.077.119.113.039.006.078.009.119.013.031-.06.059-.119.084-.181a1.081 1.081 0 0 0 .144.09c.029-.044.057-.09.08-.13.041 0 .082.009.124.012l.081-.09.1-.047.1-.047c.048.01.1.015.145.021a.677.677 0 0 0 .1-.054.551.551 0 0 0 .09-.075v-.176a1.156 1.156 0 0 0 .125-.041 1.263 1.263 0 0 0 .167-.024c.022-.041.043-.078.063-.12a.46.46 0 0 0 .021-.146 1.157 1.157 0 0 0 .117-.1s-.016-.047-.034-.09a.625.625 0 0 0-.045-.086l.039-.038.03-.032c.008-.007.081-.051-.426-.1z" transform="translate(-103.19 -391.49)" style="fill:#de7c8a"/>
                    <path id="패스_19300" data-name="패스 19300" d="M104.088 441.309c.015.115.021.042.024.04a.314.314 0 0 0 .061-.029h.1c.032.037.062.073.09.109l.1-.068.084.1.105-.067c.025.047.049.1.071.142l.1-.02a.461.461 0 0 1 .09.017l.1.013c.028.018.056.039.084.058q.067-.05.138-.1c.014.062.027.125.039.187l.131-.062a.69.69 0 0 1 .108.006l.075.085a.964.964 0 0 1 .09.04l.07.09.125-.018h.116l.053.127.128-.014.056.121.154-.06.043.147.131-.015.024.181.181-.1.074.09.037.164.155-.039.09.075.058.13.174-.09.09.065.073.1.128-.007.064.124.1.058.156-.07.031.2.12.006.09.065.148-.062.052.162.147-.063.09.078.07.119.132-.03.085.086.113.015.122-.009.112.016.107.029.09.08.1.023.09.044.066.1.1.027.146-.057.1.05.1.047.072.112.112.041.125.012c.033.026.07.05.108.075.052-.03.106-.065.154-.1a1.044 1.044 0 0 0 .115.062.969.969 0 0 0 .131-.028.783.783 0 0 0 .126.054 1.325 1.325 0 0 0 .129-.037.728.728 0 0 0 .122-.048c.027-.013.065.022.08-.048 0-.011.03-.009 0-.131l-.015-.057-.028-.1c-.018-.06-.027-.079-.031-.08-.025-.005-.045.013-.069.02a.448.448 0 0 1-.09 0 .4.4 0 0 0-.09.021.6.6 0 0 1-.09-.055.972.972 0 0 1-.08-.08.9.9 0 0 1-.09.015 1.055 1.055 0 0 1-.074-.078c-.033 0-.065.007-.1.006a.315.315 0 0 1-.09-.024l-.083-.062-.127.033-.069-.1-.077-.09h-.123l-.07-.12-.111-.034-.12-.019-.076-.129-.13.039-.127.029-.069-.144-.09-.054-.151.09-.049-.167-.142.063-.09-.053-.1-.061-.066-.12-.09-.058-.15.077-.1-.031-.025-.2-.154.08-.09-.057-.043-.159-.141.047-.13.022-.018-.2-.162.083-.047-.14-.136.028-.033-.163-.167.081-.05-.133-.137.023-.034-.162-.138.023-.1-.04-.027-.181-.1-.047-.113-.027-.167.076-.09-.068-.049-.155-.09-.073-.171.09-.055-.156-.145.044a.929.929 0 0 0-.09-.09h-.127c-.037-.013-.072-.026-.11-.037l-.108-.044a1.528 1.528 0 0 0-.09-.124l-.113-.047c-.04-.01-.079-.021-.119-.029-.049.033-.1.066-.144.1l-.109-.08-.109-.124h-.127l-.129.046c-.041-.022-.083-.049-.125-.067l-.124.12a.352.352 0 0 0-.041-.032l-.033-.021c-.007-.007-.053-.065-.013.431.007.154.015.238.025.285z" transform="translate(-103.002 -387.796)" style="fill:#de7c8a"/>
                    <path id="패스_19301" data-name="패스 19301" d="M114.336 432.529c.018.015.037.031.057.045l.037.07c.019.016.04.029.059.043l.062.04.078.016c.02.014.039.03.06.043l.052.058a.611.611 0 0 0 .065.039h.081l.063.049a.481.481 0 0 0 .08 0l.073.027h.08a.3.3 0 0 0 .079 0l.08-.009.084-.01a.242.242 0 0 0 .076-.034l.07-.046a.724.724 0 0 0 .041-.074.443.443 0 0 0 .062-.056.181.181 0 0 0 .082-.159.373.373 0 0 0-.01-.09.147.147 0 0 0-.061-.158l-.007-.026-.005-.02s0-.033-.085.02l.013-.013c.007-.008.008-.013.007-.015a.422.422 0 0 0-.034-.044l-.046-.057-.052-.051-.048-.067-.046-.057-.059-.043-.051-.053-.06-.039-.059-.042-.056-.045-.066-.03-.053-.049-.054-.046-.064-.033-.049-.05-.06-.04-.063-.037-.053-.053-.07-.024-.07-.023-.06-.049c-.023-.011-.046-.019-.07-.029a.222.222 0 0 0-.08 0l-.071-.037a.356.356 0 0 0-.08.014.671.671 0 0 0-.08.006.4.4 0 0 0-.079.02.359.359 0 0 0-.082.027.172.172 0 0 0-.1.127.4.4 0 0 0-.041.071.29.29 0 0 0-.05.086.367.367 0 0 0 .031.082.684.684 0 0 0 .015.078.753.753 0 0 0 .006.083.721.721 0 0 0 .052.062c.017.02.034.038.052.056s.011.053.017.08l.068.04.031.068.061.043.03.07.071.033.037.065.063.038c.012.023.023.047.036.069z" transform="translate(-108.463 -382.563)" style="fill:#de7c8a"/>
                    <path id="패스_19302" data-name="패스 19302" d="M117.8 438.6a.459.459 0 0 0-.059.07.331.331 0 0 0-.079.039.363.363 0 0 0-.042.075l-.069.055a.705.705 0 0 0-.008.09.421.421 0 0 0-.05.073.351.351 0 0 0 .007.09.49.49 0 0 0-.015.09.479.479 0 0 0 .043.077.676.676 0 0 0 .037.073.7.7 0 0 0 .013.09c0 .033.03.043.044.065s.033.04.05.06a.23.23 0 0 0 .073.041c.024.013.03.04.046.061a.465.465 0 0 1 .033.075.277.277 0 0 0 .05.06c.017.02.053.019.08.027l.04.071c.013.023.049.023.073.032s.035.038.054.056a.232.232 0 0 0 .07.035.576.576 0 0 1 .065.041l.065.042.058.056.068.038.07.032h.082l.069.039c.022.016.045.033.069.047a.22.22 0 0 0 .08.015.531.531 0 0 0 .083 0q.04.012.082.021l.043-.013c.021-.006.042-.015.042-.015l.027.005h.022s.035.013.012-.1l.007.014c0 .008.009.011.013.01a.266.266 0 0 0 .057-.014.318.318 0 0 0 .075-.021.473.473 0 0 0 .071-.036l.072-.04.068-.056c.013-.027.024-.054.035-.082l.031-.083v-.086a.472.472 0 0 0-.013-.081c0-.027-.011-.053-.016-.08a.46.46 0 0 0-.043-.068.684.684 0 0 0-.022-.076l-.03-.073-.051-.06a.949.949 0 0 0-.032-.073l-.049-.06-.054-.054a.707.707 0 0 0-.039-.069l-.065-.043-.065-.041c-.022-.013-.026-.047-.042-.068l-.057-.052a.7.7 0 0 0-.077-.025l-.046-.067-.076-.024a.7.7 0 0 0-.063-.043l-.064-.042a.756.756 0 0 0-.061-.05.313.313 0 0 0-.069-.036l-.081-.006a.63.63 0 0 0-.074-.023c-.022-.018-.043-.038-.067-.054l-.083.01c-.027 0-.053-.009-.08-.011a.42.42 0 0 0-.082-.026.609.609 0 0 0-.082.027l-.078.033a.319.319 0 0 1-.096.016z" transform="translate(-110.603 -386.664)" style="fill:#de7c8a"/>
                    <path id="패스_19303" data-name="패스 19303" d="M120.185 444.98a.416.416 0 0 0 .011-.083.457.457 0 0 0-.043-.07.587.587 0 0 0-.008-.083.622.622 0 0 0-.059-.053.592.592 0 0 0-.049-.055c-.017-.017-.015-.052-.025-.077s-.037-.033-.054-.049-.04-.028-.059-.042a.211.211 0 0 0-.077-.016l-.054-.043-.043-.061-.055-.041h-.077l-.047-.058-.071-.013-.056-.041-.067-.019-.063-.027-.063-.028-.057-.044-.064-.026-.067-.02a.548.548 0 0 0-.075.01l-.064-.03-.063-.04-.07-.008h-.07l-.068-.023-.036.01-.036.012-.022-.009-.017-.007s-.025-.018-.028.09v-.023c0-.015-.006-.018-.009-.019a.232.232 0 0 0-.055 0 .3.3 0 0 0-.076.013.181.181 0 0 0-.071.047.2.2 0 0 0-.054.069.383.383 0 0 0-.03.078.612.612 0 0 0 .006.074.537.537 0 0 0 0 .075.685.685 0 0 0 .025.071c.008.023.015.046.025.068s.015.046.023.069.032.037.049.054.017.045.025.068a.7.7 0 0 0 .033.064c.012.022.037.032.054.047s.023.043.035.063a.217.217 0 0 0 .053.047l.056.043.043.06c.022.011.045.018.068.027l.067.026c.023.008.03.04.046.058l.06.037h.076c.016.02.033.037.05.056h.074l.064.026.065.025c.02.013.042.023.063.036a.228.228 0 0 0 .068.019.173.173 0 0 0 .074-.015l.07.007.067.043a.735.735 0 0 0 .072-.027.193.193 0 0 1 .07 0 .357.357 0 0 1 .073.023l.069-.032.066-.03a.6.6 0 0 0 .081.02.567.567 0 0 0 .062-.059.307.307 0 0 0 .086-.025.261.261 0 0 0 .049-.086.306.306 0 0 0 .06-.08.3.3 0 0 0-.036-.073z" transform="translate(-111.001 -389.722)" style="fill:#de7c8a"/>
                    <path id="패스_19304" data-name="패스 19304" d="M116.868 448.223a.365.365 0 0 0-.05-.047.605.605 0 0 0-.028-.072.563.563 0 0 0-.071-.007l-.053-.032c-.013-.018-.028-.036-.043-.054h-.124l-.04-.059-.067.013-.046-.043h-.062l-.045-.047-.066.016-.049-.038h-.062l-.048-.044h-.061l-.057-.011-.048-.048-.058-.012-.06-.006-.065.023-.058-.013-.057-.036-.06-.01-.063.035c-.02-.009-.04-.019-.062-.027l-.061.028a.614.614 0 0 0-.069 0 .528.528 0 0 0-.06.032.442.442 0 0 0-.061.03.336.336 0 0 0-.061.041.232.232 0 0 0-.071.053.236.236 0 0 0-.033.09.229.229 0 0 0 .014.1.216.216 0 0 0 .071.059.382.382 0 0 0 .041.06.716.716 0 0 0 .04.062l.058.029.06.017.048.038h.063l.013.014.009.011s.008.021.06-.073l-.008.02a.021.021 0 0 0 0 .019.318.318 0 0 0 .04.018l.05.028.052.023.047.035.045.038.055.02.049.034.057.016.055.02.054.024h.061l.053.028.056.023h.061l.057.025h.121l.062.019c.021-.005.04-.013.06-.019l.059-.022.065.013a.172.172 0 0 0 .063-.012.67.67 0 0 0 .05-.049.662.662 0 0 0 .071 0 .42.42 0 0 0 .045-.055.338.338 0 0 0 .055-.043.25.25 0 0 0 .049-.062.205.205 0 0 0 .04-.085.228.228 0 0 0-.013-.09.22.22 0 0 0-.069-.038z" transform="translate(-109.168 -391.844)" style="fill:#de7c8a"/>
                    <path id="패스_19305" data-name="패스 19305" d="M244.738 426.182a.351.351 0 0 0-.024-.125.427.427 0 0 0-.048-.124.482.482 0 0 0-.09-.078.5.5 0 0 0-.114 0 .884.884 0 0 0-.09-.024.98.98 0 0 0-.068-.09l-.1.04-.082-.016c-.026-.02-.052-.041-.079-.06a1.671 1.671 0 0 0-.085.038l-.082.03c-.027-.023-.054-.047-.082-.069q-.041.031-.08.064a1.14 1.14 0 0 0-.09-.034l-.075.045-.085-.041-.071.071-.084-.025-.073.048-.09-.035-.071.05-.076.023-.09-.04-.077.022-.074.03-.061.078-.078.015-.09-.022c-.027 0-.053.009-.083.016l-.059.09a.7.7 0 0 0-.1 0 .714.714 0 0 0-.062.09.434.434 0 0 0-.09.06.392.392 0 0 0-.044.109.385.385 0 0 0-.029.112.416.416 0 0 0 0 .114.489.489 0 0 0 0 .118.541.541 0 0 0 .05.1.56.56 0 0 0 .071.083.553.553 0 0 0 .113.026.65.65 0 0 0 .078.069.788.788 0 0 0 .078.074.922.922 0 0 0 .1.014.449.449 0 0 0 .09-.009c.029.011.058.02.09.029l.043-.023.041-.027.026.012.02.009s.03.025.026-.158v.062c0 .031.007.041.011.041a.2.2 0 0 0 .059-.006h.078a.59.59 0 0 0 .078-.012l.079.02.08.028.078-.02.08.018.078-.024a.492.492 0 0 0 .079-.013h.08l.075-.046c.028.006.056.01.084.014h.084l.075-.042c.029.005.059.007.09.01s.053-.02.079-.032l.076-.043a.7.7 0 0 0 .1 0 .725.725 0 0 0 .062-.074c.02-.026.04-.049.057-.075.033-.007.067-.015.1-.025a.709.709 0 0 0 .07-.07.456.456 0 0 0 .007-.109.574.574 0 0 0 .09-.057.632.632 0 0 0-.009-.115.385.385 0 0 0 .03-.109z" transform="translate(-180.995 -379.417)" style="fill:#de7c8a"/>
                    <path id="패스_19306" data-name="패스 19306" d="M238.885 429.3a.646.646 0 0 0-.071-.083.613.613 0 0 0-.1-.03.782.782 0 0 0-.09-.031c-.027-.013-.055-.027-.083-.037a.4.4 0 0 0-.09.013l-.08-.044-.084-.032-.09.017-.09-.038a.371.371 0 0 0-.09.007l-.084.017-.09-.033-.08.043-.08.041-.09-.038-.084.006-.072.073-.09-.043-.072.063-.083.013-.082.011-.09-.016-.082.013-.066.075-.078.027c-.033-.016-.066-.033-.1-.048-.023.027-.046.054-.068.083a.949.949 0 0 0-.09.03.631.631 0 0 0-.116 0 .764.764 0 0 0-.063.1.515.515 0 0 0-.05.1.114.114 0 0 0-.1.194.152.152 0 0 0-.007.215.15.15 0 0 0 .032.026.461.461 0 0 0 .028.135.419.419 0 0 0 .128.028.13.13 0 0 0 .157.1h.017c.023.027.047.051.072.077a.57.57 0 0 0 .1-.014.35.35 0 0 1 .09.01c.026.024.052.049.08.073h.09c.03 0 .059 0 .09-.007l.09-.06.084.007.086.046.084.006.078-.071.085.044.079-.046.084.015.08-.028.083-.01.084-.006.09.026.09-.008.086-.019c.024-.023.049-.049.071-.073h.09c.03 0 .066.011.1.013.028-.013.055-.028.082-.042a.449.449 0 0 0 .076-.061.815.815 0 0 0 .1-.031s.015-.025.028-.051a.435.435 0 0 0 .022-.056l.033-.016.025-.014c.007 0 .047-.017-.1-.132l.007.006.042.027c.026.015.035.017.039.013a.32.32 0 0 0 .034-.062.385.385 0 0 0 .047-.085.46.46 0 0 0 .014-.048v-.054a.287.287 0 0 0 .018-.115.4.4 0 0 0-.017-.128.48.48 0 0 0-.093-.083z" transform="translate(-177.663 -381.296)" style="fill:#de7c8a"/>
                    <path id="패스_19307" data-name="패스 19307" d="m235.55 434.481.073.062.078.018c.028-.022.054-.042.08-.065l.076.055.075-.043.076.022.073-.027.073-.005h.068l.077.036h.075l.075-.008.068-.066.08.015c.028.012.057.023.09.034l.077-.027.071-.045h.09l.033-.04.035-.048a.248.248 0 0 0 .039-.006l.033-.01c.007 0 .065-.015-.09-.16l.007.006.04.032c.024.018.034.02.038.017a.259.259 0 0 0 .039-.067.279.279 0 0 0 .031-.107.188.188 0 0 0-.005-.056.39.39 0 0 0-.019-.049.4.4 0 0 0-.024-.1.7.7 0 0 0-.035-.09l-.074-.047-.05-.07-.076-.031a2.319 2.319 0 0 0-.069-.037.494.494 0 0 1-.062-.047c-.021-.015-.056 0-.084 0l-.057-.058-.063-.049-.082-.005-.066-.057-.077-.014a.358.358 0 0 1-.078-.006l-.068-.054-.081.023-.08.022-.07-.059-.075-.013-.079.055-.072-.063-.076.046-.074-.006-.074-.008-.074-.035-.074-.005-.075.06a.349.349 0 0 0-.08.014.688.688 0 0 0-.1-.058.763.763 0 0 0-.072.083.543.543 0 0 0-.09.036.475.475 0 0 0-.116.015.515.515 0 0 0-.042.11.42.42 0 0 0-.025.108.107.107 0 0 0-.036.2.118.118 0 0 0 .024.165.115.115 0 0 0 .03.016.744.744 0 0 0 0 .108.607.607 0 0 0 .107.03.8.8 0 0 0 .033.09.738.738 0 0 0 .09.027c.012.03.024.061.039.09a.9.9 0 0 0 .09.011c.025.012.05.022.076.031.017.03.033.061.053.09l.08.026a.447.447 0 0 0 .084.012 1.07 1.07 0 0 0 .09-.043z" transform="translate(-176.79 -383.675)" style="fill:#de7c8a"/>
                    <path id="패스_19308" data-name="패스 19308" d="M238.382 438.068a.293.293 0 0 0-.082-.052.64.64 0 0 0-.022-.09.36.36 0 0 0-.077-.011c-.02-.011-.038-.017-.057-.026a1.149 1.149 0 0 0-.027-.083l-.057-.023a.344.344 0 0 0-.06-.011l-.074.039-.05-.025-.039-.064-.05-.027-.07.052-.042-.064-.062.029-.049-.034-.057.011-.053-.009-.052-.013-.047-.05-.052-.015-.053-.007-.06.049-.051-.032-.049-.054h-.055l-.057.019a.6.6 0 0 0-.054-.031l-.03.025-.03.028a.1.1 0 0 0-.019-.012l-.016-.006s-.032-.017-.017.169v-.009l-.006-.048c0-.029-.009-.037-.012-.038a.243.243 0 0 0-.066.017.28.28 0 0 0-.082.036.164.164 0 0 0-.049.064.183.183 0 0 0-.035.055.156.156 0 0 0-.007.02.316.316 0 0 0-.013.09.335.335 0 0 0 .039.061.183.183 0 0 0 .008.065.622.622 0 0 0 .046.044.89.89 0 0 0 .038.048.293.293 0 0 1 .03.054c.01.017.043.015.064.022l.023.06.033.054c.012.018.04.014.06.02s.02.04.031.06.036.019.054.027.039.013.058.019.024.04.038.06l.069-.007.064-.007.041.064.055.022a.866.866 0 0 0 .069-.043l.046.067c.022-.011.043-.024.063-.036l.055.013.055.014.054.038.057.009.056-.054.055-.007.058.07.052-.06h.059a.635.635 0 0 0 .072.043.85.85 0 0 0 .06-.06.506.506 0 0 0 .057-.057.339.339 0 0 0 .11.013.245.245 0 0 0 .013-.1l.039-.011a.42.42 0 0 0 .042-.026l.009-.048a.3.3 0 0 0 0-.048.3.3 0 0 0 .074-.08.28.28 0 0 0-.067-.09.31.31 0 0 0 .001-.082z" transform="translate(-177.878 -386.108)" style="fill:#de7c8a"/>
                    <path id="패스_19309" data-name="패스 19309" d="M153.15 382.145a50.554 50.554 0 0 1 7.737-1.8c4.049-.578 10.582.35 12.812.9s-4.279 4.887-4.279 4.887l-4.05.868s-4.483.144-5.5 0-7.37-2.9-7.37-2.9z" transform="translate(-130.387 -353.68)" style="fill:#fff"/>
                    <path id="패스_19255" data-name="패스 19255" d="M179.8 372.764c-.333-.1-.664-.206-.941-.274a47.99 47.99 0 0 0-.111-10.547 17.94 17.94 0 0 1-7.968 1.1 21.939 21.939 0 0 1 .164 10.029 95.298 95.298 0 0 1 8.856-.308z" transform="translate(-140.717 -343.386)" style="fill:#f2a19c"/>
                    <path id="패스_19265" data-name="패스 19265" d="M167.868 349.251a7.476 7.476 0 0 0 4.372-2.159 12.854 12.854 0 0 0 4.1-9.411 10.035 10.035 0 0 0-.554-3.377 8.436 8.436 0 0 0-9.685-5.095 8.205 8.205 0 0 0-3.984 2.38c-2.1 2.381-2.547 5.813-2.1 8.913a12.367 12.367 0 0 0 2.269 6.034 6.644 6.644 0 0 0 5.582 2.715z" transform="translate(-134.544 -324.771)" style="fill:#ffbeb6"/>
                    <g id="그룹_1662" data-name="그룹 1662" transform="translate(26.832 6.85)">
                        <path id="패스_19266" data-name="패스 19266" d="M163.869 354.37c-.055 0-.11 0-.11-.056-.554-.609-.055-1.384.332-1.993l.111-.167a3.152 3.152 0 0 0 0-3.266c-.055-.111-.166-.221-.222-.332a1.994 1.994 0 0 1-.5-1.437 2.172 2.172 0 0 1 .718-1.162c.332-.388.664-.719.5-1.11-.056-.222-.388-.388-.61-.553-.387-.222-.831-.5-.718-.941.111-.665.665-1 1.219-1.329a5.932 5.932 0 0 0 .609-.443c.387-.332 0-1.162-.11-1.384a1.938 1.938 0 0 0-.278-.443 4.156 4.156 0 0 1-.553-1.11 2.523 2.523 0 0 1 1.052-2.435 7.739 7.739 0 0 1 2.656-1.162c.111-.056.221 0 .221.111.056.11 0 .221-.11.221a7.915 7.915 0 0 0-2.491 1.107 2.121 2.121 0 0 0-.885 2.1 2.8 2.8 0 0 0 .5 1c.111.166.166.277.276.443.222.388.609 1.329.056 1.829a4.532 4.532 0 0 1-.665.444c-.5.332-.94.609-1.051 1.11-.056.221.165.387.553.609a1.415 1.415 0 0 1 .775.719c.222.609-.221 1.052-.609 1.5a2.122 2.122 0 0 0-.608 1 1.951 1.951 0 0 0 .443 1.218c.055.11.166.221.222.332a3.5 3.5 0 0 1 0 3.6l-.111.167c-.443.664-.718 1.217-.387 1.55a.246.246 0 0 1 0 .277z" transform="translate(-163.353 -335.025)" style="fill:#102b4c"/>
                    </g>
                    <path id="패스_19272" data-name="패스 19272" d="M158.173 332.775a10.509 10.509 0 0 1 8.36-6.531 8.734 8.734 0 0 1 8.967 5.2 16.71 16.71 0 0 1-17.327 1.331z" transform="translate(-133.594 -323.186)" style="fill:#102b4c"/>
                    <ellipse id="타원_251" data-name="타원 251" cx="1.006" cy="1.565" rx="1.006" ry="1.565" transform="translate(32.545 19.4)" style="fill:#de7c8a"/>
                    <g id="img_message_warning_s" transform="rotate(-5.13 441.49 -169.656)">
                        <g id="ic_warning_n" transform="rotate(-2 32.504 .57)">
                            <g id="사각형_12210" data-name="사각형 12210" style="stroke:#fff;stroke-width:2px;fill:none">
                                <path d="M6.793 0a6.793 6.793 0 0 1 6.793 6.793V19.02H0V6.793A6.793 6.793 0 0 1 6.793 0z" style="stroke:none" transform="translate(9.51 8.151)"/>
                                <path d="M6.793 1a5.793 5.793 0 0 1 5.793 5.793V18.02H1V6.793A5.793 5.793 0 0 1 6.793 1z" style="fill:none" transform="translate(9.51 8.151)"/>
                            </g>
                            <g id="사각형_12211" data-name="사각형 12211" style="stroke:#d9381a;stroke-width:1.1px;fill:#fff">
                                <path d="M1.359 0a1.359 1.359 0 0 1 1.358 1.359v10.868H0V1.359A1.359 1.359 0 0 1 1.359 0z" style="stroke:none" transform="translate(14.944 14.944)"/>
                                <path d="M1.359.55a.809.809 0 0 1 .809.809v10.318H.55V1.359A.809.809 0 0 1 1.359.55z" style="fill:none" transform="translate(14.944 14.944)"/>
                            </g>
                            <g id="그룹_1655" data-name="그룹 1655" transform="translate(2.386 2.249)">
                                <path id="선_146" data-name="선 146" transform="translate(13.595)" style="stroke-linecap:round;stroke:#fff;stroke-width:2px;fill:none" d="M0 0v3.382"/>
                                <path id="선_148" data-name="선 148" transform="translate(23.739 13.526)" style="stroke-linecap:round;stroke:#fff;stroke-width:2px;fill:none" d="M3.945 0H0"/>
                                <path id="선_147" data-name="선 147" transform="rotate(45 7.224 30.677)" style="stroke-linecap:round;stroke:#fff;stroke-width:2px;fill:none" d="M0 0v3.382"/>
                                <path id="선_149" data-name="선 149" transform="translate(0 13.526)" style="stroke-linecap:round;stroke:#fff;stroke-width:2px;fill:none" d="M0 0h3.945"/>
                                <path id="선_150" data-name="선 150" transform="rotate(135 1.836 4.432)" style="stroke-linecap:round;stroke:#fff;stroke-width:2px;fill:none" d="M0 3.382V0"/>
                            </g>
                            <path id="선_151" data-name="선 151" transform="translate(6.113 26.491)" style="stroke:#fff;stroke-width:2px;fill:none" d="M0 0h20.378"/>
                            <circle id="타원_238" data-name="타원 238" cx="2.096" cy="2.096" r="2.096" transform="translate(14.207 14.207)" style="fill:#fff"/>
                        </g>
                    </g>
                </g>
            </g>
            <g id="그룹_2343" data-name="그룹 2343" transform="translate(40.651 40.909)">
                <path id="패스_19317" data-name="패스 19317" d="M159.437 253.092a1.433 1.433 0 0 1-2.866 0A5.688 5.688 0 0 1 158 250.2a6.633 6.633 0 0 1 1.437 2.892z" transform="translate(-129.586 -250.197)" style="fill:#fff"/>
                <path id="패스_19318" data-name="패스 19318" d="M159.437 253.092a1.433 1.433 0 0 1-2.866 0A5.688 5.688 0 0 1 158 250.2a6.633 6.633 0 0 1 1.437 2.892z" transform="translate(-147.04 -240.924)" style="fill:#b9f4ff"/>
                <path id="패스_19319" data-name="패스 19319" d="M2.866 2.895a1.433 1.433 0 0 1-2.866 0A5.688 5.688 0 0 1 1.433 0a6.633 6.633 0 0 1 1.433 2.895z" transform="rotate(25.97 -6.442 5.817)" style="fill:#fff"/>
                <path id="패스_19320" data-name="패스 19320" d="M2.866 2.895a1.433 1.433 0 0 1-2.866 0A5.688 5.688 0 0 1 1.433 0a6.633 6.633 0 0 1 1.433 2.895z" transform="rotate(-25.97 43.301 -65.98)" style="fill:#fff"/>
            </g>
        </g>
    </g>
</svg>
