<svg xmlns="http://www.w3.org/2000/svg" xmlns:xlink="http://www.w3.org/1999/xlink" width="120" height="120" viewBox="0 0 120 120">
    <defs>
        <linearGradient id="fslkuh7k1d" x1="294.851" y1="3005.296" x2="273.545" y2="2971.545" gradientUnits="objectBoundingBox">
            <stop offset=".129" stop-color="#428dfc"/>
            <stop offset=".999" stop-color="#1d72d8"/>
        </linearGradient>
        <linearGradient id="jw3egrxtba" x1="-1618.289" y1="3770.118" x2="-1610.87" y2="3798.531" gradientUnits="objectBoundingBox">
            <stop offset="0" stop-color="#ffbeb6"/>
            <stop offset="1" stop-color="#f2a19c"/>
        </linearGradient>
        <linearGradient id="ev0k6p1d9e" x1="-698.393" y1="3243.855" x2="-707.865" y2="3257.267" xlink:href="#jw3egrxtba"/>
        <linearGradient id="bsm5qy61pb" x1="-329.51" y1="995.132" x2="-325.484" y2="1010.796" gradientUnits="objectBoundingBox">
            <stop offset="0" stop-color="#23286b"/>
            <stop offset=".361" stop-color="#1e2361"/>
            <stop offset="1" stop-color="#151a4f"/>
        </linearGradient>
        <linearGradient id="ln2hac8avf" x1="181.883" y1="433.878" x2="242.415" y2="445.86" gradientUnits="objectBoundingBox">
            <stop offset="0" stop-color="#a1c3fc"/>
            <stop offset=".696" stop-color="#81aef2"/>
            <stop offset="1" stop-color="#78a9ef"/>
        </linearGradient>
        <linearGradient id="5o99jcq78g" x1="361.227" y1="756.326" x2="349.039" y2="775.233" xlink:href="#bsm5qy61pb"/>
        <linearGradient id="jz835sgljh" x1="1260.271" y1="3872.169" x2="1246.263" y2="3868.993" gradientUnits="objectBoundingBox">
            <stop offset="0" stop-color="#ffbeb6"/>
            <stop offset="1" stop-color="#f29b94"/>
        </linearGradient>
        <linearGradient id="swuhx4f7fi" x1="494.494" y1="3430.688" x2="502.344" y2="3467.564" gradientUnits="objectBoundingBox">
            <stop offset="0" stop-color="#e94a47"/>
            <stop offset=".847" stop-color="#a74a47"/>
        </linearGradient>
        <clipPath id="npyecct0ac">
            <circle data-name="타원 221" cx="60" cy="60" r="60" style="fill:#f7f8fb"/>
        </clipPath>
    </defs>
    <g>
        <circle data-name="타원 217" cx="60" cy="60" r="60" style="fill:#d8e8ef"/>
        <g data-name="마스크 그룹 8" style="clip-path:url(#npyecct0ac)">
            <g data-name="그룹 2261">
                <path data-name="R shoeW3f2Obu7 g CpJv1wViM" d="M1251.6 683.7h-11.327s-5.91 5.565-12.213 8.274-8.224 6.353-8.224 6.353h36.984l-5.22-14.627" transform="translate(-1174.677 -498.492)" style="fill:url(#fslkuh7k1d)"/>
                <path data-name="L shoeW3f2Obu7 g CpJv1wViM" d="M1222.142 683.7h-11.917a38.9 38.9 0 0 1-11.425 8.274c-6.3 2.709-8.225 6.353-8.225 6.353h36.984l-5.417-14.627" transform="translate(-1168.216 -498.492)" style="fill:#428dfc"/>
                <path data-name="R handW3f2Obu7 g CpJv1wViM" d="M1211.515 527.562s-3.447-1.773-3.842-3.743c-.344-1.625-3.447-3.3-3.447-3.3l2.61 5.171 1.379 2.906s4.185 5.417 3.3-1.034z" transform="translate(-1171.23 -462.465)" style="fill:url(#jw3egrxtba)"/>
                <path data-name="phoneW3f2Obu7 g CpJv1wViM" d="m1196.507 524.994 6.549-1.477a.733.733 0 0 0 .542-.887.427.427 0 0 0-.147-.3l-8.667-11.376a.653.653 0 0 0-.739-.246l-6.6 1.625a.733.733 0 0 0-.542.886.27.27 0 0 0 .147.246l8.717 11.229a.736.736 0 0 0 .74.3z" transform="translate(-1167.401 -460.292)" style="fill:#23286b"/>
                <path data-name="L handW3f2Obu7 g CpJv1wViM" d="M1206.421 528.6a9.569 9.569 0 0 1-2.906-2.56s-1.231.3-2.019.394c0 0-.1-1.97-3.989-2.266-3.5-.3-3-1.034-5.171-1.773-2.167-.69-3.054-.049-3.152.641 0 0 2.265.837 2.807 1.674s1.133 2.9 3.054 3.546c1.871.641 8.568 1.477 9.9 5.861l1.477-5.516" transform="translate(-1167.909 -462.814)" style="fill:url(#ev0k6p1d9e)"/>
                <path data-name="R sleeveW3f2Obu7 g CpJv1wViM" d="M1209.788 535.988s1.329 2.758 6.008 2.955 5.713.936 9.111 3.152c3.447 2.167 9.9 3.053 16.35-7.043 5.959-9.258 7.929-19.453 6.895-24.87-.492-3.25-.641-4.432-1.133-5.466a18.065 18.065 0 0 0-2.609 1.576c-.838.542-3.3 2.512-3.891 2.512-1.084 3.644-2.955 18.861-11.475 18.91a30.16 30.16 0 0 1-15.907-4.974z" transform="translate(-1172.458 -458.974)" style="fill:url(#bsm5qy61pb)"/>
                <path data-name="R trousersW3f2Obu7 g CpJv1wViM" d="M1239.528 565.969s-12.754 26.691-15.66 38.314c-2.462 9.9 12.558 53.137 12.558 53.137h15.956s2.807-6.6-.2-12.8-1.33-7.731-1.526-12.607c-.2-4.925-.542-12.46-4.334-20.733-3.743-8.274 7.88-17.335 10.883-23s7.535-17.137 5.27-23.392c0 0-11.229.591-11.967.789-.69.2-10.982.3-10.982.3" transform="translate(-1175.506 -472.26)" style="fill:url(#ln2hac8avf)"/>
                <path data-name="L trousersW3f2Obu7 g CpJv1wViM" d="M1263.953 557.933c-.246.1-.936.492-1.822.936a18 18 0 0 1-10.145 1.675l-13.248-1.773c-.394 5.959-6.5 23.49-6.5 23.49-2.659 6.7-5.762 19.305-8.618 29.007-2.955 9.948-9.6 40.136-10.735 44.716h14.183c6.107-5.073 7.633-11.475 11.031-21.619 4.137-12.46 4.974-7.83 7.732-20.044s2.412-9.7 11.081-25.756c8.47-15.71 7.337-30.041 7.041-30.632z" transform="translate(-1173.142 -470.725)" style="fill:#a1c3fc"/>
                <path data-name="textureW3f2Obu7 g CpJv1wViM" d="M1260.989 571.17c-.05 0-.1 0-.1.049s0 .1.049.1c.05 0 .1 0 .1-.049a.152.152 0 0 0-.049-.1zm-2.069-.838c-.049 0-.1 0-.1.049s0 .1.049.1.1 0 .1-.049c0 0 0-.099-.049-.099zm-2.068-.837c-.049 0-.1 0-.1.049s0 .1.05.1.1 0 .1-.049 0-.1-.049-.1zm-2.069-.838c-.049 0-.1 0-.1.05s0 .1.049.1.1 0 .1-.049c.05-.05.001-.1-.049-.1zm-2.068-.837c-.049 0-.1 0-.1.049s0 .1.049.1.1 0 .1-.05c.049-.049 0-.1-.049-.1zm1.675 10.047c0-.049-.049-.049-.1-.049s-.049.049-.049.1.049.049.1.049c.049 0 .1-.049.049-.1zm-.838-2.069c0-.049-.049-.049-.1-.049-.049 0-.049.049-.049.1s.1.049.147.049v-.1zm-.837-2.019c0-.049-.1-.049-.148-.049s-.049.1-.049.148.049.049.1.049c.1-.049.1-.1.1-.148zm-.887-2.068c0-.049-.049-.049-.1-.049-.049 0-.049.1-.049.147s.049.049.1.049c.049-.049.1-.1.049-.147zm-6.845 6.156c-.05 0-.1 0-.1.049s0 .1.049.1c.05 0 .1 0 .1-.049.049-.049 0-.1-.049-.1zm12.607-3.6a.1.1 0 1 0 0 .148v-.148zm-1.625-1.576a.092.092 0 0 0-.147 0 .048.048 0 0 1-.05.049c0 .049 0 .049.05.1h.1c.1-.049.1-.1.049-.147zm-1.576-1.576a.1.1 0 1 0 0 .148.093.093 0 0 0 0-.148zm-1.576-1.576a.1.1 0 1 0-.147.148c.049.049.1.049.1 0 .1-.05.1-.1.049-.148zm-3.151 8.028a.1.1 0 1 0 .1.1.106.106 0 0 0-.1-.094zm0-2.216a.1.1 0 1 0 0 .2.106.106 0 0 0 .1-.1.106.106 0 0 0-.1-.1zm16.842 2.955a.221.221 0 0 0-.246 0 .224.224 0 0 0 0 .246.224.224 0 0 0 .246 0 .22.22 0 0 0 0-.246zm-3.2-2.758a.224.224 0 0 0-.246 0 .224.224 0 0 0 0 .246.174.174 0 1 0 .246-.246zm-3.2-2.807a.174.174 0 1 0 0 .246c.1-.049.1-.148 0-.246zm-3.2-2.758a.224.224 0 0 0-.246 0 .18.18 0 0 0-.049.147c0 .05 0 .05.049.1a.048.048 0 0 1 .049.049.18.18 0 0 0 .246-.1.122.122 0 0 0-.049-.2zm-3.25 18.96c-.1 0-.148.1-.148.2s.1.147.2.147.148-.1.148-.2c-.05-.1-.1-.147-.2-.147zm-.3-4.186c-.1 0-.148.1-.148.2s.1.147.2.147.147-.1.147-.2c-.049-.1-.1-.147-.2-.147zm-.3-4.235c-.1 0-.147.1-.147.2s.1.148.2.148.147-.1.147-.2c-.049-.049-.1-.147-.2-.147zm-.3-4.186c-.1 0-.147.1-.147.2s.1.148.2.148.148-.1.148-.2c-.049-.1-.1-.147-.2-.147zm-.3-4.236c-.1 0-.148.1-.148.2s.1.148.2.148.148-.1.148-.2c-.049-.049-.1-.148-.2-.148zm15.857-1.034a.188.188 0 1 0 .1.246c.049-.147 0-.246-.1-.246zm-4.038-1.329c-.1-.049-.2 0-.2.1-.049.1 0 .2.1.2.1.049.2 0 .2-.1.05-.1 0-.2-.1-.2zm-2.364 15.02a.187.187 0 1 0-.1.246.18.18 0 0 0 .1-.246zm-1.871-3.792a.188.188 0 1 0-.1.246.18.18 0 0 0 .1-.246zm-1.872-3.743c-.049-.1-.147-.1-.246-.1-.1.049-.1.147-.1.246.049.1.147.1.246.1a.319.319 0 0 0 .1-.246zm-1.921-3.792a.187.187 0 1 0-.344.147c.049.1.148.1.246.1a.179.179 0 0 0 .1-.246zm-1.871-3.792c-.049-.1-.148-.1-.246-.049s-.1.148-.1.246c.05.1.148.1.246.1.1-.1.148-.2.1-.3zm-8.667 16.3c-.1-.05-.2 0-.2.1-.049.1 0 .2.1.2a.18.18 0 0 0 .246-.1c.017-.095-.032-.193-.13-.193zm1.329-3.99a.18.18 0 0 0-.246.1.187.187 0 1 0 .344.147c.05-.147 0-.246-.1-.246zm1.329-4.038a.181.181 0 0 0-.246.1c-.049.1 0 .2.1.2.1.049.2 0 .2-.1.1-.049.049-.148-.05-.2zm1.33-3.989c-.1-.049-.2 0-.2.1-.049.1 0 .2.1.2a.18.18 0 0 0 .246-.1.263.263 0 0 0-.147-.2zm21.127-4.876-.05.049c0 .049 0 .1.05.1v-.148zm-5.27 13.789c-.049-.049-.147-.1-.2-.049s-.1.147-.049.2c.049.049.148.1.2.049s.115-.143.066-.192zm-2.019-3.2c-.049-.049-.148-.1-.2-.049s-.1.147-.049.2.148.1.2.049a.122.122 0 0 0 .049-.2zm-1.97-3.2a.048.048 0 0 0-.049-.049h-.148a.122.122 0 0 0-.049.2c.049.049.148.1.2.049.049 0 .049-.049.049-.1v-.1zm-2.019-3.2c-.049-.049-.148-.1-.2-.049a.122.122 0 0 0-.049.2c.049.049.147.1.2.049.1 0 .1-.1.049-.2zm-1.97-3.2c-.049-.049-.148-.1-.2-.049s-.1.147-.049.2.147.1.2.049c.049 0 .049-.1.049-.2zm-7.781 15.316a.256.256 0 0 0-.2.1.256.256 0 0 0 .1.2.258.258 0 0 0 .2-.1c.065-.098.016-.15-.083-.197zm.838-3.644a.256.256 0 0 0-.2.1.258.258 0 0 0 .1.2.256.256 0 0 0 .2-.1c.049-.1 0-.2-.1-.2zm.886-3.694a.259.259 0 0 0-.2.1c0 .1 0 .147.1.2a.259.259 0 0 0 .2-.1.259.259 0 0 0-.1-.2zm.838-3.644a.156.156 0 1 0 .1.2c0-.1-.049-.2-.1-.2zm.837-3.693a.156.156 0 1 0-.1.3.254.254 0 0 0 .2-.1c.05-.049 0-.147-.1-.2zm13.838 3.151a.122.122 0 0 0-.2.05.121.121 0 0 0 .05.2.121.121 0 0 0 .2-.049c.065-.05.02-.148-.034-.198zm-3.053-2.216a.144.144 0 1 0 .049.2.3.3 0 0 0-.033-.197zm-3.1-2.166a.121.121 0 0 0-.2.049.143.143 0 1 0 .246.147.121.121 0 0 0-.049-.2zm-3.053 14.282c-.1 0-.148.1-.148.2s.1.148.2.148.148-.1.148-.2c-.04-.146-.089-.195-.187-.146zm-.641-3.743c-.1 0-.147.1-.147.2s.1.148.2.148a.158.158 0 0 0 .148-.148.181.181 0 0 0-.184-.198zm-.591-3.694a.158.158 0 0 0-.148.148c0 .1.1.148.2.148s.148-.1.148-.2a.379.379 0 0 0-.2-.1zm-.641-3.693c-.1 0-.147.1-.147.2 0 .049 0 .049.049.1a.18.18 0 0 0 .147.049c.1 0 .148-.1.148-.2-.049-.148-.1-.2-.2-.148zm-.64-3.743c-.05 0-.05 0-.1.049 0 .05-.049.05-.049.1v.049c0 .1.1.148.2.148s.148-.1.148-.2-.1-.148-.2-.148zm-11.475 11.77a.144.144 0 0 0-.148.246.122.122 0 0 0 .2-.049.122.122 0 0 0-.049-.2zm2.216-3.1a.144.144 0 1 0 .049.2c.049 0 0-.1-.049-.2zm6.55-9.16a.144.144 0 1 0 .049.2.122.122 0 0 0-.034-.2zm12.656 5.22a.1.1 0 1 0 0 .148v-.148zm-1.526-1.625a.1.1 0 1 0 0 .147.092.092 0 0 0 0-.147zm-1.526-1.625a.093.093 0 0 0-.148 0c-.049.049-.049.1 0 .1a.093.093 0 0 0 .148 0c.049 0 .049-.05 0-.1zm-5.762 6.5a.1.1 0 1 0 .1.1c-.05-.049-.05-.1-.1-.1zm.049-2.216a.106.106 0 0 0-.1.1.106.106 0 0 0 .1.1.1.1 0 1 0 0-.2zm.1-2.216a.106.106 0 0 0-.1.1.1.1 0 1 0 .1-.1zm.049-2.216a.1.1 0 1 0 0 .2.171.171 0 0 0 .1-.049c0-.1-.049-.147-.1-.147zm-3.792-1.724a.1.1 0 1 0 0 .147c.049-.049.049-.147 0-.147zm8.027 6.5c0-.049-.049-.049-.1-.049-.049 0-.049.049-.049.1 0 .049.049.049.1.049s.049-.049.049-.1zm-.788-2.068c0-.05-.049-.05-.1-.05-.05 0-.05.05-.05.1s.05.049.1.049.1-.049.049-.1zm-.788-2.069c0-.049-.049-.049-.1-.049s-.049.049-.049.1.049.05.1.05c.049 0 .1-.05.049-.1zm-.739-2.117c0-.05-.049-.05-.1-.05s-.049.05-.049.1.049.049.1.049a.171.171 0 0 0 .049-.1zm-6.255 6.008c-.049 0-.1 0-.1.049s0 .1.049.1.1 0 .1-.05c.064-.049.015-.098-.035-.098zm.936-2.068c-.049 0-.1 0-.1.049s0 .1.049.1a.183.183 0 0 0 .148-.049c-.05 0-.05-.049-.1-.1zm.936-2.02a.181.181 0 0 0-.148.05.178.178 0 0 0 .05.147.11.11 0 0 0 .1-.2zm.936-1.97c0-.049 0-.049-.049-.049s-.1 0-.1.049v.05c0 .049 0 .049.049.1.05 0 .1 0 .1-.049.049-.049.049-.049 0-.1zm11.77 7.092a.182.182 0 0 0-.148-.049.181.181 0 0 0-.049.148.18.18 0 0 0 .147.049c.05 0 .05-.1.05-.148zm-1.379-2.117a.179.179 0 0 0-.148-.05.11.11 0 1 0 .1.2c.049-.049.1-.1.049-.147zm-1.379-2.118a.11.11 0 0 0-.2.1.091.091 0 0 0 .147 0c.049 0 .1-.049.049-.1zm-1.378-2.167c-.1-.049-.1-.049-.148-.049a.11.11 0 1 0 .1.2c.1 0 .1-.1.049-.148zm-6.451 8.225c-.05 0-.1.049-.148.1 0 .049 0 .1.1.148.05 0 .1 0 .1-.05.049-.1 0-.147-.049-.2zm.542-2.462c-.049 0-.1.049-.148.1 0 .049 0 .1.1.148.049 0 .1 0 .147-.1 0-.049-.049-.1-.1-.147zm.542-2.462c-.049 0-.1.049-.148.1 0 .049 0 .1.1.148.049 0 .1 0 .1-.05.049-.147 0-.2-.049-.2zm.542-2.462c-.049 0-.1.049-.147.1 0 .049 0 .1.1.148.049 0 .1 0 .1-.05.057-.149.007-.198-.042-.198zm11.77.935a.093.093 0 0 0-.148 0c-.049.05 0 .1 0 .148.05.049.1 0 .148-.049.049 0 .049-.1 0-.1zm-2.068-1.477c-.05-.049-.1 0-.148 0-.049.05 0 .1.049.148.049.049.1 0 .148 0a.183.183 0 0 0-.049-.148zm-6.009 6.845a.106.106 0 0 0-.1-.1.1.1 0 1 0 0 .2h.049a.155.155 0 0 0 .049-.1zm-.591-2.61c-.049 0-.1.049-.1.147 0 .049.05.1.148.1a.106.106 0 0 0 .1-.1q-.062-.147-.136-.147zm-.443-2.512a.1.1 0 1 0 .1.1c.05-.049-.049-.1-.1-.1zm-.444-2.462a.106.106 0 0 0-.1.1.106.106 0 0 0 .1.1.106.106 0 0 0 .1-.1c0-.1-.05-.1-.1-.1zm-8.077 5.467c-.049-.05-.1 0-.147 0-.049.049 0 .1 0 .147a.092.092 0 0 0 .147 0 .091.091 0 0 0 0-.147zm1.428-2.069c-.049-.049-.1 0-.147.049s0 .1 0 .148a.092.092 0 0 0 .147 0c.1-.1.049-.148 0-.2zm1.477-2.068c-.049-.049-.1 0-.147.049-.05.049 0 .1.049.148s.1 0 .147-.05a.18.18 0 0 0-.049-.147zm15.612-.542c-.1-.05-.2-.05-.246.049s-.05.2.049.246.2.049.246-.049c.049-.05 0-.2-.049-.246zm-5.221 17.187c-.1 0-.147.1-.147.2s.1.148.2.148.147-.1.147-.2-.1-.148-.2-.148zm-.689-4.284c-.1 0-.148.1-.148.2s.1.147.2.147.147-.1.147-.2-.1-.148-.2-.148zm-.641-4.284c-.1 0-.148.1-.148.2s.1.148.2.148.148-.1.148-.2c-.049-.1-.1-.147-.2-.147zm-.69-4.285c-.1 0-.147.1-.147.2s.1.148.2.148.148-.1.148-.2-.1-.2-.2-.148zm-.69-4.333c-.1 0-.147.1-.147.2s.1.148.2.148.147-.1.147-.2a.219.219 0 0 0-.2-.147zm-14.97 12.951c-.1-.049-.2-.049-.246.049s-.05.2.049.246.2.05.246-.049.064-.197-.034-.246zm2.56-3.545c-.1-.049-.2-.049-.246.049s-.049.2.049.246c.1.049.2.049.246-.049.049-.049.049-.148-.049-.246zm2.561-3.5c-.1-.05-.2-.05-.246.049-.049.1-.049.2.05.246s.2.049.246-.049a.171.171 0 0 0-.05-.246zm2.561-3.5c-.1-.049-.2-.049-.246.05-.049.1-.049.2.049.246s.2.049.246-.05.049-.2-.049-.246zm2.561-3.545c-.1-.049-.2-.049-.246.049s-.049.2.049.246.2.049.246-.049c.05-.049.05-.148-.049-.246zm10.982 6.008c-.049-.1-.148-.1-.246-.049s-.1.148-.049.246.147.1.246.049c.049-.1.1-.2.049-.246zm-2.265-3.743c-.05-.1-.148-.1-.246-.049-.1.049-.1.148-.05.246s.148.1.246.049a.364.364 0 0 0 .05-.246zm-9.751 13.789c-.1 0-.2.049-.2.148 0 .1.049.2.148.2s.2-.05.2-.148-.05-.2-.148-.2zm1.034-4.235c-.1 0-.2.049-.2.1 0 .1.05.2.148.2.1 0 .2-.049.2-.147a.157.157 0 0 0-.148-.148zm.985-4.235c-.1 0-.2.049-.2.147s.05.2.148.2.2-.049.2-.147a.262.262 0 0 0-.148-.2zm1.034-4.235c-.1 0-.2.049-.2.147s.049.2.147.2.2-.049.2-.148a.263.263 0 0 0-.148-.2zm-5.367-3.693c-.05-.1-.148-.1-.246-.05s-.1.148-.05.246.148.1.246.05a.172.172 0 0 0 .05-.246zm15.709 3.5c-.049-.1-.147-.1-.246-.049-.1.049-.1.147-.049.246s.148.1.246.049a.216.216 0 0 0 .049-.246zm-10.784 14.282c-.1 0-.2.049-.2.147s.049.2.147.2.2-.049.2-.147-.049-.148-.147-.2zm.837-4.235c-.1 0-.2.049-.2.147s.049.2.148.2.2-.049.2-.148c.049-.1-.05-.2-.148-.2zm.837-4.236c-.1 0-.2.05-.2.148s.049.2.147.2.2-.049.2-.148c.049-.1-.049-.2-.148-.2zm.838-4.284c-.1 0-.2.049-.2.148 0 .1.049.2.148.2s.2-.049.2-.147c.05-.049-.049-.148-.147-.2zm-10.391-2.068c-.05-.1-.148-.1-.246-.05-.1.05-.1.148-.05.246s.148.1.246.05.148-.2.05-.246zm3.594-2.413c0-.049-.049-.049-.1-.049h-.148l-.049.049a.224.224 0 0 0 0 .246.22.22 0 0 0 .246 0c.049 0 .049-.049.049-.1a.092.092 0 0 0 .016-.146zm12.411 10.637c-.1 0-.148.1-.148.2s.1.147.2.147.147-.1.147-.2c-.038-.098-.087-.147-.186-.147zm-.887-4.235c-.1 0-.148.1-.148.2s.1.147.2.147.148-.1.148-.2-.1-.147-.2-.147zm-.837-4.235c-.1 0-.148.1-.148.2s.1.148.2.148.147-.1.147-.2-.1-.147-.2-.147zm-13.593 9.7c-.1-.049-.2-.049-.246.049-.049.1-.049.2.05.246s.2.049.246-.049a.216.216 0 0 0-.05-.246zm2.364-3.644c-.1-.049-.2-.049-.246.049-.049.1-.049.2.049.246s.2.05.246-.049c.1-.049.049-.147-.049-.246zm2.413-3.595c-.1-.05-.2-.05-.246.049s-.049.2.049.246.2.049.246-.049a.172.172 0 0 0-.049-.246zm2.413-3.6c-.1-.049-.2-.049-.246.049s-.05.2.049.246.2.049.246-.049a.172.172 0 0 0-.049-.246zm-6.5-2.216a.156.156 0 1 0-.1.2c.114-.046.114-.096.114-.194zm16.646 2.118c-.049-.05-.1-.1-.148-.1a.156.156 0 0 0 .1.3c.049 0 .1-.1.049-.2zm-10.145 8.864c-.05-.05-.148 0-.2.049-.049.049 0 .147.049.2s.148 0 .2-.05c.063-.094.014-.143-.035-.193zm1.28-3c-.049-.049-.148 0-.2.05-.049.049 0 .147.049.2s.148 0 .2-.049c.049-.1 0-.147-.049-.2zm1.28-3c-.049-.049-.148 0-.2.049s0 .148.049.2.148 0 .2-.049c.049-.1 0-.148-.049-.2zm1.28-3c-.049-.049-.147 0-.2.1-.049.05 0 .148.1.2a.094.094 0 0 0 .147-.049c.05-.1.05-.2-.049-.246zm3 8.716a.131.131 0 0 0-.147.148.157.157 0 0 0 .147.148.131.131 0 0 0 .148-.148.158.158 0 0 0-.148-.148zm.05-3.25a.157.157 0 0 0-.148.148.13.13 0 0 0 .148.147.13.13 0 0 0 .147-.147.157.157 0 0 0-.147-.148zm.049-3.25a.131.131 0 0 0-.148.148.157.157 0 0 0 .148.147c.049 0 .147-.049.147-.1 0-.148-.1-.2-.147-.2zm-11.524 1.724a.15.15 0 0 0-.2 0 .15.15 0 0 0 0 .2.139.139 0 1 0 .2-.2zm2.314-2.265a.139.139 0 1 0 0 .2.149.149 0 0 0 .019-.206zm2.364-2.265a.149.149 0 0 0-.2 0 .139.139 0 0 0 .2.2c.049-.1.049-.147 0-.2zm7.633 2.166c-.049 0-.1 0-.1.05s0 .1.049.1.1 0 .1-.049c.049-.049 0-.1-.049-.1zm.344-1.724c-.049 0-.1 0-.1.05 0 .049 0 .049.049.1.049 0 .1 0 .1-.049a.174.174 0 0 0-.05-.1zm-2.413 4.531a.1.1 0 0 0-.148.049.093.093 0 0 0 0 .148.1.1 0 0 0 .148-.05q.147-.074 0-.147zm1.576-2.511a.11.11 0 1 0-.1.2.094.094 0 0 0 .147-.049c.049-.049.049-.1-.049-.147z" transform="translate(-1179.928 -472.833)" style="fill:#fff;opacity:.86;isolation:isolate"/>
                <path data-name="sweaterW3f2Obu7 g CpJv1wViM" d="M1254.253 503.771a21.122 21.122 0 0 0-6.549 4.826l-5.368 38.9c13.838 10.145 26.544 7.436 29.056 6.8l.443-.147c2.807-35.85-17.135-50.084-17.582-50.379z" transform="translate(-1179.644 -458.768)" style="fill:url(#5o99jcq78g)"/>
                <path data-name="L sleeveW3f2Obu7 g CpJv1wViM" d="M1239.527 508.6s-1.823 9.849-6.846 16.94c-3 4.285-6.845 5.27-13.838 2.512a63.127 63.127 0 0 1-8.766-4.039l-4.777 17.975s7.141 10.982 16.695 8.126c7.83-2.363 12.41 3.5 16.448 3.1 9.062-.838 11.08-3.054 13.839-15.956 2.807-12.952-1.675-27.529-6.255-33.488" transform="translate(-1171.467 -458.768)" style="fill:#23286b"/>
                <path data-name="neckW3f2Obu7 g CpJv1wViM" d="M1247.139 501.089s1.872 4.432 1.625 6.058a27.48 27.48 0 0 1 6.549-4.826s-3.151-4.235-3.151-5.122z" transform="translate(-1180.704 -457.316)" style="fill:url(#jz835sgljh)"/>
                <path data-name="faceW3f2Obu7 g CpJv1wViM" d="M1241.252 500.007c-2.66-.739-4.186-3.1-4.728-3-.542.147-1.773.147-1.97-.394s.739-2.659.3-4.727a2.449 2.449 0 0 1-.1-.591v-.1c0-.148-.049-.344-.049-.641 1.527.542 2.906.591 3.5.2 1.724-1.132 2.069.049 4.039 1.28s3.447.246 5.762-.591 2.66 1.526 1.872 2.462c-.838.936-1.477 1.379-.789 2.265a1.393 1.393 0 0 0 .443.492l-.2.246-.2.2-1.084.887c-2.019 1.618-4.284 2.751-6.796 2.012z" transform="translate(-1177.92 -455.792)" style="fill:#ffbeb6"/>
                <path data-name="cap bottomW3f2Obu7 g CpJv1wViM" d="m1265.047 492.06-30.927-3.841.148-1.133 30.188 3.743a.737.737 0 0 1 .641.838l-.049.393z" transform="translate(-1177.83 -455.084)" style="fill:#e94a47"/>
                <path data-name="cap topW3f2Obu7 g CpJv1wViM" d="m1254.416 487.1-20.043-2.511.3-2.216a7.269 7.269 0 0 1 8.126-6.3l5.319.641a7.581 7.581 0 0 1 6.6 8.421l-.3 1.97z" transform="translate(-1177.886 -452.64)" style="fill:url(#swuhx4f7fi)"/>
                <path data-name="hairW3f2Obu7 g CpJv1wViM" d="M1247.98 495.508s1.526.542 3.447-1.428a5.177 5.177 0 0 0 1.675-3.792s-19.059-2.413-19.7-2.413c-.641-.049-.394-.1-2.659-2.117-2.216-2.02-3.645.935-2.167 3.1s5.663 1.724 7.387 1.034 2.462-.886 3.792.542c1.379 1.477 4.039 1.576 6.107.1s3.743.739 2.069 2.413c-1.576 1.625.049 2.561.049 2.561z" transform="translate(-1176.473 -454.642)" style="fill:#23286b"/>
                <path data-name="eyeW3f2Obu7 g CpJv1wViM" d="M1236.354 493.747a1.591 1.591 0 0 1-2.216.443 1.725 1.725 0 0 1-.592-.739c-.1-.246.246-.394.345-.2a1.223 1.223 0 0 0 1.576.739 1.343 1.343 0 0 0 .591-.443c.098-.195.442.002.296.2z" transform="translate(-1177.699 -456.426)" style="fill:#1c2868"/>
            </g>
        </g>
    </g>
</svg>
