<svg xmlns="http://www.w3.org/2000/svg" xmlns:xlink="http://www.w3.org/1999/xlink" width="120" height="120" viewBox="0 0 120 120">
    <defs>
        <linearGradient id="vdmg7eppyb" x1="108.24" y1="1409.187" x2="95.835" y2="1428.146" gradientUnits="objectBoundingBox">
            <stop offset=".129" stop-color="#428dfc"/>
            <stop offset=".999" stop-color="#1d72d8"/>
        </linearGradient>
        <linearGradient id="wedg79usmd" x1="54.373" y1="370.128" x2="44.157" y2="375.848" gradientUnits="objectBoundingBox">
            <stop offset="0" stop-color="#23286b"/>
            <stop offset="1" stop-color="#151a4f"/>
        </linearGradient>
        <linearGradient id="jis65daz8a" x1="510.65" y1="2283.85" x2="516.538" y2="2303.134" gradientUnits="objectBoundingBox">
            <stop offset="0" stop-color="#ffbeb6"/>
            <stop offset="1" stop-color="#f2a19c"/>
        </linearGradient>
        <linearGradient id="xnujgm248e" x1="176.453" y1="1924.944" x2="169.545" y2="1934.821" xlink:href="#jis65daz8a"/>
        <linearGradient id="axvfsf7oqf" x1="73.41" y1="671.463" x2="75.773" y2="682.162" xlink:href="#vdmg7eppyb"/>
        <linearGradient id="si436i5lzg" x1="92.062" y1="596.179" x2="97.741" y2="609.367" xlink:href="#vdmg7eppyb"/>
        <clipPath id="da7tms53dc">
            <circle data-name="타원 221" cx="60" cy="60" r="60" style="fill:#f7f8fb"/>
        </clipPath>
    </defs>
    <g>
        <circle data-name="타원 217" cx="60" cy="60" r="60" style="fill:#d8efed"/>
        <g data-name="마스크 그룹 8" style="clip-path:url(#da7tms53dc)">
            <g data-name="그룹 1673">
                <g data-name="womanNk6GITstDtL 4nNe3TW4x">
                    <path data-name="R shoeNk6GITstDtL 4nNe3TW4x" d="M1088.133 1312.573h13.015s5.62 5.984 12.423 8.864c6.8 2.955 8.874 6.87 8.874 6.87h-39.932l5.62-15.734" transform="translate(-996.831 -1137.861)" style="fill:#428dfc"/>
                    <path data-name="L shoeNk6GITstDtL 4nNe3TW4x" d="m1095.075 1284.706 12.719-2.659s6.729 4.728 13.976 6.132c7.247 1.477 10.131 4.875 10.131 4.875l-39.044 8.2 2.218-16.547" transform="translate(-999.115 -1131.121)" style="fill:url(#vdmg7eppyb)"/>
                    <path data-name="L trousersNk6GITstDtL 4nNe3TW4x" d="M1036.033 1195.709s29.505 5.171 37.2 8.347c7.69 3.1 8.208 11.45 11.536 28.736 3.845 20.092 5.62 30.139 5.62 30.139l-14.494 2.955s-5.028-2.511-6.8-11.3c-1.7-8.791-.813-9.6-2.884-14.257-2.07-4.728-3.771-7.239-3.771-13.3s-3.475-9.012-8.726-8.716c-5.176.3-28.322.074-38.157-15.808l-2.218-3.546c.148-.074 16.491-6.5 22.7-3.25" transform="translate(-981.557 -1111.857)" style="fill:url(#wedg79usmd)"/>
                    <path data-name="L handNk6GITstDtL 4nNe3TW4x" d="M1079.039 1159.2s2.884-1.255 2.884-3.471c0-2.29 3.845-3.842 3.845-3.842l-2.958 5.91-1.552 3.324c0-.074-3.258 5.466-2.219-1.921z" transform="translate(-996.019 -1102.384)" style="fill:url(#jis65daz8a)"/>
                    <path data-name="R trousersNk6GITstDtL 4nNe3TW4x" d="M1062.707 1275.186c1.7 3.841 6.507 9.676 10.131 12.041h13.015c-.518-2.216-11.61-47.572-15.9-55.551a128.683 128.683 0 0 0-13.532-19.353L1044 1197.77l-12.349 2.438c-.443-.148-1.257-.3-1.7-.443-.887-.3-1.7 3.1-2.884 2.29-1.922.96-12.349.074-13.828.665.888 10.563 10.057 18.394 20.853 23.639 20.114 9.9 16.417 14.774 18.117 21.422s2.884 10.563 6.655 15.292c3.769 4.652.663 4.8 3.843 12.113z" transform="translate(-981.536 -1112.515)" style="fill:#23286b"/>
                    <path data-name="phoneNk6GITstDtL 4nNe3TW4x" d="m1091.11 1156.945-7.542-1.7a.739.739 0 0 1-.592-.96.382.382 0 0 1 .148-.3l9.909-13a.809.809 0 0 1 .888-.3l7.542 1.847a.81.81 0 0 1 .592 1.034.384.384 0 0 1-.148.3l-9.983 12.853a.79.79 0 0 1-.814.226z" transform="translate(-996.925 -1099.907)" style="fill:#23286b"/>
                    <path data-name="R handNk6GITstDtL 4nNe3TW4x" d="M1079.951 1161.375a15.134 15.134 0 0 0 3.105-3.176s1.406.3 2.292.443c0 0 .148-2.216 4.511-2.585 3.993-.369 3.476-1.182 5.916-1.995s3.476-.074 3.623.739c0 0-2.588.961-3.179 1.921s-1.332 3.324-3.476 4.063-9.613 1.329-11.166 6.353l-1.626-5.762" transform="translate(-996.266 -1102.787)" style="fill:url(#xnujgm248e)"/>
                    <path data-name="texture-3Nk6GITstDtL 4nNe3TW4x" d="M1030.836 1210.74c.074 0 .074 0 .148-.074 0-.074 0-.074-.074-.148-.074 0-.074 0-.148.074a.258.258 0 0 0 .074.148zm.887-1.995c.074 0 .074 0 .148-.074 0-.074 0-.074-.074-.147-.074 0-.074 0-.148.073 0 .074 0 .148.074.148zm.814-1.995c.074 0 .074 0 .148-.073 0-.074 0-.074-.074-.148-.074 0-.074 0-.148.074 0 .074 0 .147.074.147zm.813-1.994c.074 0 .074 0 .148-.074 0-.074 0-.074-.074-.148-.074 0-.074 0-.148.074a.229.229 0 0 1 .074.148zm6.655 5.984c0 .073.074.073.148.073a.072.072 0 0 0 .073-.073c0-.074-.073-.074-.147-.074s-.074 0-.074.074zm-12.276-3.472h.148v-.148c0-.073-.074 0-.148 0s-.074.074 0 .148zm1.553-1.551h.074v-.147h-.148c0 .073 0 .073.074.147zm1.553-1.552h.148v-.147h-.148c-.074.074-.074.147 0 .147zm4.511 6.279a.074.074 0 1 0 .074-.073l-.074.073zm0-2.142a.072.072 0 0 0 .074.074c.074 0 .074 0 .074-.074a.074.074 0 1 0-.148 0zM1019 1211.33a.139.139 0 0 0 .222 0 .138.138 0 0 0 0-.221.139.139 0 0 0-.222 0c-.074 0-.074.147 0 .221zm3.106-2.734a.157.157 0 1 0 .222-.221.139.139 0 0 0-.222 0 .138.138 0 0 0 0 .221zm3.106-2.733a.157.157 0 1 0 0-.222.138.138 0 0 0 0 .222zm6.137 15.808a.148.148 0 1 0 .3 0 .159.159 0 0 0-.148-.148l-.148.148zm.3-4.137a.148.148 0 1 0 .148-.147s-.148.073-.148.147zm.3-4.137a.159.159 0 0 0 .147.148.159.159 0 0 0 .148-.148c0-.073-.074-.147-.148-.221-.073.074-.147.148-.147.221zm.3-4.063a.148.148 0 1 0 .148-.147c-.074-.074-.148 0-.148.147zm.3-4.136a.148.148 0 0 0 .3 0 .159.159 0 0 0-.147-.148c-.074-.074-.148 0-.148.148zm-9.022 12.41a.165.165 0 1 0 .148-.3c-.074-.074-.148 0-.222.074 0 .073 0 .221.074.221zm1.849-3.693a.165.165 0 1 0 .147-.3c-.074-.074-.147 0-.221.074 0 .073 0 .221.074.221zm1.848-3.694a.142.142 0 0 0 .222-.074c.074-.074 0-.147-.074-.221a.142.142 0 0 0-.222.074c-.074.073 0 .147.074.221zm1.849-3.693c.073.074.147 0 .221-.074a.165.165 0 1 0-.3-.147.271.271 0 0 0 .074.221zm10.131 12.263a.165.165 0 1 0 .3-.148c0-.074-.147-.147-.221-.147 0 .073-.074.147-.074.3zm-1.257-3.916c0 .074.147.148.221.148a.165.165 0 1 0-.148-.3c-.073-.074-.147 0-.073.147zm-1.332-3.915a.142.142 0 0 0 .222.074c.074 0 .148-.148.148-.222a.142.142 0 0 0-.222-.073c-.148 0-.148.073-.148.221zm-1.331-3.915a.165.165 0 0 0 .3-.148c0-.074-.148-.148-.222-.148-.074.074-.074.148-.074.3zm-15.307 8.642c.074.074.148 0 .222-.074s0-.147-.074-.221-.148 0-.222.074c0 .074 0 .221.074.221zm1.922-3.1c.074.073.148 0 .222-.074s0-.148-.074-.222-.148 0-.222.074a.272.272 0 0 0 .074.222zm1.923-3.177c0 .074 0 .074.074.074.073.074.147 0 .221-.074s0-.147-.074-.221h-.147a.072.072 0 0 0-.074.074v.147zm2-3.1c.074.073.148 0 .222-.074s0-.148-.074-.222-.148 0-.222.074c0 .074 0 .222.074.222zm9.391 11.892c0 .074.074.148.222.148a.159.159 0 0 0 .148-.148.159.159 0 0 0-.148-.147c-.148-.074-.222.074-.222.147zm-.814-3.62c0 .074.074.148.148.074a.159.159 0 0 0 .148-.148.159.159 0 0 0-.148-.147c-.148.074-.148.147-.148.221zm-.813-3.62a.159.159 0 0 0 .148.148.159.159 0 0 0 .148-.148.159.159 0 0 0-.148-.148c-.148 0-.221.074-.148.148zm-.887-3.545c0 .073.074.147.221.073.074 0 .148-.073.074-.147a.159.159 0 0 0-.148-.148c-.073.074-.147.148-.147.222zm-.813-3.62a.148.148 0 1 0 .3 0c0-.073-.074-.147-.221-.147a.258.258 0 0 0-.074.147zm-13.459 3.1a.139.139 0 0 0 .222 0 .273.273 0 0 0 .073-.221.27.27 0 0 0-.221-.074c-.148.147-.148.221-.074.3zm8.874 9.6a.148.148 0 1 0 .148-.148.159.159 0 0 0-.148.148zm.592-3.62c0 .074 0 .147.148.147a.148.148 0 1 0 0-.3s-.148.074-.148.148zm.665-3.693a.148.148 0 1 0 .148-.148c-.088.078-.162.078-.162.152zm.591-3.62a.159.159 0 0 0 .148.147h.148l.074-.074a.159.159 0 0 0-.148-.147c-.148-.074-.222 0-.222.074zm11.98 7.978a.272.272 0 0 0 .222.074.272.272 0 0 0 .074-.222.14.14 0 0 0-.222 0c-.148 0-.148.074-.074.148zm-2.144-3.029a.272.272 0 0 0 .222.074.157.157 0 0 0-.222-.221c-.074 0-.074.073 0 .147zm-18.782-3.915h.147v-.148h-.147c-.074 0 0 .074 0 .148zm8.578 3.1a.074.074 0 1 0 .074-.073.073.073 0 0 0-.074.073zm-.074-2.142a.074.074 0 0 0 .148 0 .073.073 0 0 0-.074-.074c-.074 0-.074 0-.074.074zm-.074-2.216a.074.074 0 0 0 .148 0 .073.073 0 0 0-.074-.074.072.072 0 0 0-.074.074zm-4.067 2.585c.074 0 .074 0 .147-.074 0-.073 0-.073-.073-.147-.074 0-.074 0-.148.074 0 .073 0 .147.074.147zm.74-2.068c.074 0 .074 0 .147-.074 0-.074 0-.074-.073-.148-.074 0-.074 0-.148.074 0 .074 0 .148.074.148zm7.542 1.773c0 .074.074.074.148.074s.074-.074.074-.148a.072.072 0 0 0-.074-.074c-.148.074-.221.148-.148.148zm-.961-1.995c0 .074.074.074.148.074s.073-.074.073-.147a.072.072 0 0 0-.073-.074c-.148.074-.148.147-.148.147zm-13.237 3.1h.147v-.148h-.147c-.074.074-.074.074 0 .148zm1.331-2.068h.148v-.148h-.148c-.074 0-.074.074 0 .148zm8.948 3.841a.072.072 0 0 0 .074.074c.073 0 .073-.074.073-.148s-.073-.073-.147-.073a.1.1 0 0 0 0 .147zm-.591-2.437c0 .074.073.074.147.074s.074-.074.074-.148-.074-.074-.148-.074c0 .074-.073.074-.073.148zm-.518-2.438a.073.073 0 0 0 .074.074c.074 0 .074-.074.074-.147s-.074-.074-.148-.074c.074.074 0 .074 0 .147zm-3.993 3.768c.074 0 .147 0 .147-.074 0-.073 0-.073-.073-.147-.074 0-.074 0-.148.074 0 .073 0 .073.074.147zm.369-2.585c0 .074 0 .074.074.148.074 0 .074 0 .148-.074 0-.074 0-.074-.074-.148-.074 0-.148 0-.148.074zm8.874.591c0 .073.074.073.148 0 .074 0 .074-.074 0-.148 0-.074-.074-.074-.148 0v.148zm-1.4-2.069c0 .074.074.074.148 0 .074 0 .074-.074 0-.147 0-.074-.074-.074-.148 0v.147zm-11.092 10.046c0 .074.074.221.148.221s.222-.073.222-.147-.074-.222-.148-.222c-.148 0-.222.074-.222.148zm.665-4.137c0 .074.074.222.148.222s.148-.074.222-.148c0-.074-.074-.147-.148-.221-.165-.065-.242.009-.242.156zm.665-4.21c0 .073.074.221.148.221s.222-.074.222-.148c0-.073-.074-.221-.148-.221-.148-.074-.222 0-.222.148zm15.455 8.5a.274.274 0 0 0 .222.073.157.157 0 0 0-.222-.221.1.1 0 0 0-.019.152zm-2.514-3.4a.165.165 0 1 0 .074-.222.142.142 0 0 0-.093.228zm-2.515-3.472a.165.165 0 0 0 .3-.147.139.139 0 0 0-.222 0c-.074 0-.148.073-.074.147zm-2.514-3.4a.165.165 0 0 0 .3-.147.139.139 0 0 0-.222 0c-.073-.074-.147 0-.073.147zm-13.089 2.364a.165.165 0 1 0-.074-.221c-.074.073-.074.147.074.221zm11.536 9.824c0 .074.147.148.221.148s.148-.148.148-.221-.148-.148-.222-.148c-.073 0-.147.148-.147.221zm-.962-4.136c0 .073.148.147.222.147.073 0 .147-.147.147-.221 0-.074-.147-.148-.221-.148-.148 0-.222.148-.148.222zm-1.036-4.137c0 .074.148.147.222.147.074 0 .148-.147.148-.221s-.148-.148-.222-.148-.148.074-.148.222zm-.591 9.6c0 .074.148.147.222.147s.148-.147.148-.221-.074-.148-.222-.148c-.074.074-.148.148-.148.222zm-.813-4.137c0 .074.148.148.222.148s.148-.074.148-.222c0-.074-.148-.147-.222-.147-.074.073-.148.147-.148.221zm-.814-4.137c0 .074.148.148.222.148s.148-.074.148-.222c0-.073-.074-.147-.222-.147-.074 0-.148.074-.148.221zm-.813-4.21c0 .073.074.147.222.147.074 0 .148-.074.148-.221 0-.074-.074-.148-.222-.148-.148.074-.148.148-.148.222zm10.353-1.995a.165.165 0 1 0 .148-.3c-.074-.074-.148-.074-.221.074a.273.273 0 0 0 .073.221zm-15.9 7.978c0 .074.074.148.148.222.074 0 .221-.074.221-.148s-.073-.221-.147-.221c-.148 0-.222.074-.222.147zm.813-4.136c0 .073.074.221.148.221s.221-.074.221-.148c0-.073-.074-.221-.147-.221s-.148 0-.222.148zm14.345 5.392a.165.165 0 1 0 .074-.221c-.074.073-.147.147-.074.221zm-2.366-3.472a.165.165 0 1 0 .074-.221c-.074 0-.148.074-.074.221zm-2.366-3.546a.165.165 0 1 0 .074-.221c-.074 0-.074.147-.074.221zm-2.367 4.95c0 .073.074.073.148.073s.074-.073.074-.147-.074-.074-.148-.074-.074.074-.074.148zm-1.257-2.882c0 .074.074.074.148.074s.073-.074.073-.147c0-.074-.073-.074-.147-.074s-.074.074-.074.147zm-1.258-2.955c0 .074.074.074.148.074s.074-.074.074-.147-.074-.074-.148-.074-.074.074-.074.147zm-4.215 5.54a.148.148 0 1 0 .148-.147c-.148 0-.148.074-.148.147zm-.074-3.176a.148.148 0 1 0 .3 0 .159.159 0 0 0-.148-.148.159.159 0 0 0-.148.148zm11.388-1.477c.074.074.148.074.148 0 .074-.074.074-.148 0-.148a.14.14 0 0 0-.222 0c0 .074 0 .148.074.148zm-10.131.443c0 .074.073.074.147 0 .074 0 .074-.074.074-.148s-.074-.074-.148-.074a.274.274 0 0 0-.073.222z" transform="translate(-982.277 -1113.812)" style="fill:#fff;opacity:.66;isolation:isolate"/>
                    <path data-name="texture-4Nk6GITstDtL 4nNe3TW4x" d="M1041.108 1205.286c.074 0 .074 0 .147-.073 0-.074 0-.074-.073-.148s-.074 0-.148.074a.228.228 0 0 1 .074.147zm.887-1.994c.074 0 .074 0 .148-.074 0-.074 0-.074-.074-.148-.074 0-.074 0-.147.074 0 .074 0 .148.073.148zm8.282 1.994c0 .074.074.074.148.074a.072.072 0 0 0 .074-.074c0-.073-.074-.073-.148-.073s-.074 0-.074.073zm-4.658-.3a.074.074 0 1 0 .073-.074l-.073.074zm.073-2.142a.073.073 0 0 0 .074.074c.074 0 .074 0 .074-.074a.072.072 0 0 0-.074-.074c-.074 0-.074 0-.074.074zm-16.416 3.029a.138.138 0 0 0 .221 0 .139.139 0 0 0 0-.222.139.139 0 0 0-.221 0c-.074 0-.074.148 0 .222zm12.423 10.342a.148.148 0 0 0 .3 0 .158.158 0 0 0-.147-.148c-.074 0-.148 0-.148.148zm.222-4.137a.148.148 0 1 0 .147-.148l-.147.148zm.3-4.137a.159.159 0 0 0 .148.148.159.159 0 0 0 .148-.148c0-.074-.074-.147-.148-.221 0 .074-.148.147-.148.221zm.3-4.063a.148.148 0 1 0 .148-.147c0-.074-.148 0-.148.147zm-8.726 8.274a.165.165 0 1 0 .147-.3c-.074-.074-.147 0-.221.073 0 .074 0 .222.074.222zm1.848-3.693a.142.142 0 0 0 .222-.074c0-.074 0-.221-.074-.221-.074-.074-.148 0-.222.073a.272.272 0 0 0 .074.222zm1.849-3.694a.141.141 0 0 0 .221-.074c.074-.074 0-.148-.074-.221a.141.141 0 0 0-.221.073.272.272 0 0 0 .074.222zm11.979 8.569a.166.166 0 0 0 .3-.148c0-.074-.148-.148-.222-.148 0 .074-.074.148-.074.3zm-1.257-3.99c0 .074.148.148.222.148a.165.165 0 1 0-.148-.3c-.074 0-.148.074-.074.147zm-1.331-3.841a.142.142 0 0 0 .222.074c.073 0 .147-.148.147-.222a.141.141 0 0 0-.221-.074c-.148 0-.148.074-.148.222zm-16.639 4.728c.074.074.148 0 .222-.074s0-.147-.074-.221-.148 0-.222.074c0 .073 0 .221.074.221zm1.923-3.1c.074.074.148 0 .221-.073s0-.148-.073-.222-.148 0-.222.074a.27.27 0 0 0 .074.221zm1.922-3.25c0 .074 0 .074.074.074.074.074.148 0 .222-.074s0-.147-.074-.221h-.148a.072.072 0 0 0-.074.074v.147zm11.388 8.864c0 .074.074.148.221.148a.159.159 0 0 0 .148-.148.158.158 0 0 0-.148-.147c-.147-.074-.221.073-.221.147zm-.814-3.619c0 .074.074.148.148.074a.158.158 0 0 0 .147-.148.158.158 0 0 0-.147-.147c-.148.073-.148.147-.148.221zm-.813-3.62a.158.158 0 0 0 .148.147.158.158 0 0 0 .148-.147.159.159 0 0 0-.148-.148c-.148 0-.148.074-.148.148zm-6.286 5.54a.148.148 0 1 0 .148-.148.158.158 0 0 0-.148.148zm.592-3.62c0 .073 0 .147.147.147a.148.148 0 1 0 0-.3l-.147.148zm.666-3.693a.148.148 0 1 0 .148-.148c-.074.074-.148.074-.148.148zm12.571 4.358a.271.271 0 0 0 .221.074.272.272 0 0 0 .074-.222.138.138 0 0 0-.221 0c-.074 0-.148.074-.074.148zm-2.145-3.029a.271.271 0 0 0 .221.074.157.157 0 1 0-.221-.222.1.1 0 0 0 0 .148zm-10.205-.813a.074.074 0 1 0 .148 0l-.074-.074a.072.072 0 0 0-.074.074zm-.073-2.142a.074.074 0 1 0 .147 0 .072.072 0 0 0-.074-.074c-.073 0-.073 0-.073.074zm.221 2.955a.073.073 0 0 0 .074.074c.074 0 .074-.074.074-.148s-.074-.074-.148-.074v.148zm-.591-2.437c0 .073.074.073.148.073s.074-.073.074-.147-.074-.074-.148-.074a.258.258 0 0 0-.074.148zm-4.511 1.255c.074 0 .148 0 .148-.074 0-.073 0-.073-.074-.147-.074 0-.074 0-.148.074 0 .147 0 .147.074.147zm-3.253 6.058c0 .074.073.221.147.221s.222-.074.222-.147-.074-.222-.148-.222c-.148 0-.221.074-.221.148zm.666-4.211c0 .074.074.222.147.222s.148-.074.222-.148c0-.074-.074-.147-.148-.221-.154.002-.223.076-.223.149zm16.12 4.358a.272.272 0 0 0 .222.074.157.157 0 0 0-.222-.221.1.1 0 0 0 0 .147zm-2.515-3.4a.274.274 0 0 0 .222.073.27.27 0 0 0 .074-.221.272.272 0 0 0-.222-.074.142.142 0 0 0-.074.222zm-2.514-3.472a.165.165 0 1 0 .3-.148.139.139 0 0 0-.221 0c-.074 0-.074.074-.074.148zm-4.068 8.79c0 .074.148.148.222.148s.148-.148.148-.222-.148-.147-.222-.147c-.074 0-.148.147-.148.221zm-.962-4.137c0 .074.148.148.222.148.074 0 .148-.148.148-.221 0-.074-.148-.148-.222-.148-.148 0-.221.148-.148.221zm-1.035-4.136c0 .073.148.147.222.147.073 0 .147-.147.147-.221s-.147-.148-.221-.148-.148.074-.148.222zm-.592 9.6c0 .073.147.147.221.147s.148-.147.148-.221-.074-.148-.222-.148c-.073.074-.147.148-.147.222zm-.813-4.137c0 .074.148.147.221.147s.148-.073.148-.221c0-.074-.148-.148-.221-.148-.074.074-.148.148-.148.222zm-.813-4.137c0 .074.148.148.222.148s.147-.074.147-.222c0-.074-.074-.147-.221-.147-.074 0-.148.073-.148.221zm-6.36 1.773c0 .074.074.148.148.222.074 0 .222-.074.222-.148s-.074-.221-.148-.221-.222.073-.222.147zm15.16 1.256a.165.165 0 1 0 .074-.222c-.074.074-.148.148-.074.222zm-2.366-3.472a.165.165 0 1 0 .074-.221c-.074 0-.148.074-.074.221zm-4.732 1.4c0 .074.073.074.147.074s.074-.074.074-.147-.074-.074-.148-.074a.26.26 0 0 0-.073.147zm-6.729-.3a.148.148 0 1 0 .147-.147c-.147 0-.147.073-.147.147z" transform="translate(-984.784 -1113.456)" style="fill:#fff;opacity:.66;isolation:isolate"/>
                    <path data-name="L sleeveNk6GITstDtL 4nNe3TW4x" d="M1071.406 1172.429s-1.552 3.176-6.877 3.4-6.507 1.108-10.427 3.62-11.314 3.472-18.709-8.052c-6.8-10.564-9.1-22.235-7.912-28.514a38.92 38.92 0 0 0 5.546 1.551 16.685 16.685 0 0 0 1.7.3c.962.148 2.958.221 3.623.3 1.257 4.137 2.736 19.871 12.2 18.024a65.229 65.229 0 0 0 17.008-5.836z" transform="translate(-984.616 -1100.396)" style="fill:url(#axvfsf7oqf)"/>
                    <path data-name="sweaterNk6GITstDtL 4nNe3TW4x" d="M1034.1 1190.28c-4.585 1.994-11.018 3.693-20.04 4.063-2.144.073-4.363.073-6.8 0-7.395-8.643-1.774-17.877.37-23.861 2.07-5.984.074-6.131 4.067-16.325a23.46 23.46 0 0 1 1.553-3.028c.665 9.6 4.437 20.314 9.687 29.474 3.173 5.762 6.871 8.716 11.163 9.677z" transform="translate(-979.399 -1102.217)" style="fill:url(#si436i5lzg)"/>
                    <path data-name="R sleeveNk6GITstDtL 4nNe3TW4x" d="M1071.08 1175.063s-1.7 5.023-10.28 6.353-10.2 3.841-14.42 5.023a19.038 19.038 0 0 1-9.465.517c-4.289-.961-7.986-3.989-11.24-9.6-5.25-9.16-9.022-19.871-9.687-29.474a42.474 42.474 0 0 1 3.549-5.393c1.4-1.7 2.589-3.029 3.476-3.989 1.257-.591 10.944-2.29 12.423-2.068 0 0-.665 14.182 6.211 23.269.74.96-.591-.813 0 0 2.663 3.989 5.1 4.505 7.395 4.505 2.663 0 11.832-2.437 16.787-6.87z" transform="translate(-982.144 -1098.967)" style="fill:#428dfc"/>
                    <path data-name="faceNk6GITstDtL 4nNe3TW4x" d="M1036.012 1129.177c2 1.7 6.581 4.58 9.317 3.472 3.254-1.33 4.216-4.063 4.807-3.916.591.074 1.922 0 2.144-.591.148-.591-1.036-2.807-.74-5.171 0-.221.074-.443.074-.665v-1.33c0-.221-.074-.443-.074-.665a3.7 3.7 0 0 0-.148-.886v-.074a.272.272 0 0 0-.074-.222.565.565 0 0 0-.148-.369c0-.073-.073-.221-.073-.3s0-.074-.074-.147c0-.074-.074-.148-.148-.3v-.073a3.613 3.613 0 0 1-.222.517.258.258 0 0 1-.074.148 3.471 3.471 0 0 1-.443.665l-.074.074-.074.074-.222.221c-.073.148-.221.221-.3.3l-.148.148a1.025 1.025 0 0 1-.3.221c-.073.074-.073.074-.147.074l-.666.443c-.073.074-.147.074-.221.147-.074 0-.074.074-.148.074s-.074.074-.148.074h-.074a.271.271 0 0 1-.221.074c-.074 0-.148.074-.222.074s-.148.073-.222.073l-.665.222c-.148.073-.222.073-.369.147a11.714 11.714 0 0 1-1.553.369l-.37.074a12.536 12.536 0 0 0-2.958.887l-.443.221a11.237 11.237 0 0 0-1.184.813 15.411 15.411 0 0 0-3.395 5.103z" transform="translate(-986.565 -1094.892)" style="fill:#ffbeb6"/>
                    <path data-name="eyeNk6GITstDtL 4nNe3TW4x" d="M1056.606 1124.923a1.534 1.534 0 0 1-2.07.443 1.746 1.746 0 0 1-.591-.665c-.074-.221.222-.369.3-.147a1.149 1.149 0 0 0 1.479.665.784.784 0 0 0 .517-.443c.222-.221.517-.074.369.148z" transform="translate(-990.521 -1096.326)" style="fill:#1c2868"/>
                    <path data-name="hairNk6GITstDtL 4nNe3TW4x" d="M1037.578 1106.747a10.917 10.917 0 0 0-3.475-.369h-.074a11.232 11.232 0 0 0-9.539 5.984 18.25 18.25 0 0 0-2.515 5.762c-1.035 3.694-2.144 10.711-7.173 10.564a.186.186 0 0 0 0 .37c3.254.147 4.881-2.734 5.916-5.393.665-1.773 1.11-3.693 1.627-5.466-.148.739-.222 1.551-.3 2.29-.591 8.273-6.581 9.6-6.581 9.6a42.274 42.274 0 0 0 9.1 4.654 38.47 38.47 0 0 0 5.694 1.625 16.651 16.651 0 0 0 1.7.3 20.4 20.4 0 0 0 4.733.3c2.588-3.4 1.626-6.8.517-9.677 1.627 3.1 2.44 5.984.74 9.382-.074.221.222.369.3.148a9.009 9.009 0 0 0 .813-6.353c-.74-2.881-3.4-5.245-3.179-8.274.221-.813.887-1.4 2.44-1.7a.272.272 0 0 0 .222-.074c7.617-1.256 7.469-5.171 7.469-5.171a10.015 10.015 0 0 1 .739 4.432c3.028-7.468-3.552-11.235-9.174-12.934z" transform="translate(-981.845 -1092.333)" style="fill:#e94a47"/>
                </g>
            </g>
        </g>
    </g>
</svg>
