<svg xmlns="http://www.w3.org/2000/svg" xmlns:xlink="http://www.w3.org/1999/xlink" width="120" height="120" viewBox="0 0 120 120">
    <defs>
        <linearGradient id="aiqzbn6fja" x1="-8.031" y1="-76.918" x2="-6.746" y2="-76.918" gradientUnits="objectBoundingBox">
            <stop offset="0" stop-color="#ffbeb6"/>
            <stop offset="1" stop-color="#f2a19c"/>
        </linearGradient>
        <linearGradient id="6oxzqc459e" x1="-12.398" y1="-90.13" x2="-11.113" y2="-90.13" xlink:href="#aiqzbn6fja"/>
        <linearGradient id="vjsu6d2kec" x1="-65.099" y1="-112.58" x2="-63.466" y2="-112.58" gradientUnits="objectBoundingBox">
            <stop offset="0" stop-color="#23286b"/>
            <stop offset="1" stop-color="#151a4f"/>
        </linearGradient>
        <linearGradient id="ym4zflgt6f" x1="-5.999" y1="-109.109" x2="-4.731" y2="-109.109" gradientUnits="objectBoundingBox">
            <stop offset="0" stop-color="#eee"/>
            <stop offset=".554" stop-color="#d6d7d8"/>
        </linearGradient>
        <linearGradient id="2nnrzn65ib" x1="-4.989" y1="-197.302" x2="-3.703" y2="-197.302" gradientUnits="objectBoundingBox">
            <stop offset="0" stop-color="#e94a47"/>
            <stop offset="1" stop-color="#d62929"/>
        </linearGradient>
        <linearGradient id="vy9vwlytlg" x1="15.672" y1="-24.585" x2="16.942" y2="-24.585" xlink:href="#2nnrzn65ib"/>
        <linearGradient id="6cqzew3bkh" x1="-7.12" y1="-26.844" x2="-5.834" y2="-26.844" xlink:href="#vjsu6d2kec"/>
        <linearGradient id="kozafjdw4i" x1="-19.937" y1="-162.391" x2="-18.651" y2="-162.391" xlink:href="#aiqzbn6fja"/>
        <linearGradient id="lwop2o9bej" x1="-17.726" y1="-291.832" x2="-19.015" y2="-291.742" xlink:href="#aiqzbn6fja"/>
        <clipPath id="dn7cq0ispd">
            <circle data-name="타원 222" cx="60" cy="60" r="60" style="fill:#f7f8fb"/>
        </clipPath>
    </defs>
    <g>
        <circle data-name="타원 218" cx="60" cy="60" r="60" style="fill:#d8efed;opacity:.997"/>
        <g data-name="마스크 그룹 7" style="clip-path:url(#dn7cq0ispd)">
            <g data-name="그룹 1676">
                <path data-name="패스 19171" d="M2332.786 502.736c-.545 2.119.182 4.662-.545 6.781.97-1.211 2.607-3.511 3.941-4.238-.182-.726-.909-4.3-1.455-3.814a11.948 11.948 0 0 1-1.941 1.271z" transform="translate(-2272.538 -463.736)" style="fill:#d62929"/>
                <path data-name="패스 19172" d="M2310.532 513.521c-.848.242-1.636.484-2.485.726-.061-.121.06-.363.182-.363-.364.787-.728 1.635-1.152 2.422a.87.87 0 0 0-.122.424.459.459 0 0 0 .122.3c.424.909.788 1.816 1.212 2.725a3.571 3.571 0 0 0 .667 1.15c.3.3.849.485 1.152.182a1.011 1.011 0 0 0 0-1.089 25.805 25.805 0 0 0-1.273-2.967l.909 1.453a1.919 1.919 0 0 0 .667.726.723.723 0 0 0 .909-.121c.242-1.09-.486-2.18-1.152-3.088.485.182.727.727.97 1.151s.727.908 1.212.726a2.709 2.709 0 0 0-.606-2.3 7.088 7.088 0 0 1-1.212-2.057z" transform="translate(-2266.955 -466.408)" style="fill:#f2a19c"/>
                <path data-name="패스 19173" d="M2333.6 535.676a2.544 2.544 0 0 1-1.334-.3c-.363-.182-4.183-.727-5.334-1.7a11.662 11.662 0 0 1-2.91-2.785c-1.031-1.756-5.032-12.594-7.881-13.018.242-.605 2.182-1.574 2.425-2.18 2.3 2.846 4.547 5.691 7.092 8.356a54.994 54.994 0 0 0 8.548 7.81c.788.545 1.576 1.09 2.425 1.635a2.606 2.606 0 0 1 .909.909 1 1 0 0 1-.242 1.211 1.032 1.032 0 0 1-.849.121 22.3 22.3 0 0 1-2.849-.059z" transform="translate(-2268.983 -466.888)" style="fill:url(#aiqzbn6fja)"/>
                <path data-name="패스 19174" d="M2333.358 527.567c.364 2.24.667 4.481 1.03 6.66a46.13 46.13 0 0 1 9.882-3.27 187.657 187.657 0 0 0-3.213-25.308 5.3 5.3 0 0 0-.849-2.3c-1.212-1.635-4.122-1.332-5.214.424a7.279 7.279 0 0 0-.909 3.209c-.3 2.664-.667 5.268-.97 7.931a51.8 51.8 0 0 0-.485 6.115 56.839 56.839 0 0 0 .728 6.539z" transform="translate(-2272.624 -463.925)" style="fill:#d62929"/>
                <path data-name="패스 19175" d="M2338.439 545.034c1.273-1.15.061-5.388-.969-6.781s-8.73-10.414-14.187-17.74a45.469 45.469 0 0 1-3.88 9.99c4.971 5.571 6.911 10.6 15.095 16.65 1.335.97 2.729-1.028 3.941-2.119z" transform="translate(-2269.704 -467.952)" style="fill:#151a4f"/>
                <path data-name="패스 19176" d="M2385.3 675.214a27.436 27.436 0 0 0 5.032 1.756 47.834 47.834 0 0 0 6.365-.061c.061.061 1.758 9.021 1.4 12.9-1.7.182-3.153.363-4.85.545a5.19 5.19 0 0 1-1.94-.06c.299-2.729-4.915-13.384-6.007-15.08z" transform="translate(-2284.252 -502.107)" style="fill:#f2a19c"/>
                <path data-name="패스 19177" d="M2386.669 657.924c-6.122.788-8.608.3-14.67 1.272-4.607-9.99-15.7-23.431-24.432-40.142-11.4-21.8-13.276-36.812-12.852-55.883 4.425 2.179 11.458 3.814 16.126 2.3.485 16.407 3.88 31.423 12.852 45.167 2.364 3.633 5.032 7.2 6.608 11.261 1.395 3.754 1.88 7.81 3.7 11.382 1.819 3.512 4.789 6.176 7.093 9.324a28.59 28.59 0 0 1 5.575 15.319z" transform="translate(-2273.072 -477.37)" style="fill:#151a4f"/>
                <path data-name="패스 19178" d="M2332.977 499.97a39.877 39.877 0 0 0-4.426-9.99l-.545-.908c-.061-.122-.122-.182-.122-.3 0-.182.182-.3.3-.424 1.092-.969.909-2.785 1.576-4.117 2.425 4.481 5.456 9.445 7.4 13.5a19.916 19.916 0 0 0-4.183 2.239z" transform="translate(-2271.576 -459.941)" style="fill:#f2a19c"/>
                <path data-name="패스 19179" d="M2326.66 487.151c.06-1.15.424-3.633-.182-4.541a12.289 12.289 0 0 0-5.031-4.177c-2.85-1.332-4.85.605-6.851 3.087a5.748 5.748 0 0 0-1.03 1.635 6.205 6.205 0 0 0 1.212 6.9 6.987 6.987 0 0 0 1.03.848c.667 1.089 1.455 2.059 2.243 3.27.364.3 1.03-.666 1.394-1.151.182-.242.364-.424.545-.665.789.121 1.576.242 2.365.3 1.7.182 3.273 1.938 4.425.605.729-.903-.241-4.962-.12-6.111z" transform="translate(-2268.291 -458.566)" style="fill:url(#6oxzqc459e)"/>
                <path data-name="패스 19180" d="M2310.446 480.91a15.629 15.629 0 0 0-.728 7.145c.97 3.572.849 3.814.061 5.57 3.516-.848 3.4-4.964 5.031-7.992s3.637-6.055 6.668-7.629c-2-1.09-3.758-2.24-6.062-1.877-2.242.303-4.122 2.665-4.97 4.783z" transform="translate(-2267.535 -458.137)" style="fill:url(#vjsu6d2kec)"/>
                <g data-name="그룹 1674">
                    <path data-name="패스 19181" d="M2312.045 495.72c-.061 0-.122 0-.122-.06a.15.15 0 0 1 .061-.242c2.061-1.574 2.789-4.238 3.517-6.781.242-.969.545-1.938.849-2.846a16.785 16.785 0 0 1 5.274-7.326.172.172 0 1 1 .243.242 15.842 15.842 0 0 0-5.153 7.2c-.3.908-.606 1.877-.849 2.846-.727 2.6-1.455 5.328-3.637 7.023a.464.464 0 0 0-.183-.056z" transform="translate(-2268.044 -458.658)" style="fill:#23286b"/>
                </g>
                <path data-name="패스 19182" d="M2325.46 496a.839.839 0 0 1 0-.545 8.21 8.21 0 0 1 1.091-2.6 7.388 7.388 0 0 0 1.152.727 34.124 34.124 0 0 0-.667 3.814c-.424-.363-.849-.666-1.273-1.029a1.6 1.6 0 0 1-.303-.367z" transform="translate(-2271.031 -461.845)" style="fill:#f2a19c"/>
                <path data-name="패스 19183" d="M2292.054 525.158c-.364-.242-1.031.242-.97.665a2.068 2.068 0 0 0 .667 1.09c2.122 2.361 4.244 4.783 6.365 7.144a2.079 2.079 0 0 0 .667.605 1.987 1.987 0 0 0 1.03.242c2.3.182 4.971-.484 6.729 1.029a6.929 6.929 0 0 1 1.273 1.7c1.819 3.087 3.7 6.236 5.517 9.324a21.3 21.3 0 0 0 1.455-4.723 4.915 4.915 0 0 0 0-2.3 4.508 4.508 0 0 0-.909-1.452 50.4 50.4 0 0 0-4.122-4.662 4.393 4.393 0 0 0-1.334-1.029 6.23 6.23 0 0 0-2.122-.363c-2.122-.061-4.3-.061-6.426-.122a2.843 2.843 0 0 1-1.03-.121c-.425-.182-1.031-1.211-1.758-2.12a21.587 21.587 0 0 0-5.032-4.907z" transform="translate(-2263.45 -468.963)" style="fill:#ffbeb6"/>
                <path data-name="패스 19184" d="m2305.541 532.823-19.824-8.9 5.335-4.42 18.975 8.476z" transform="translate(-2262.266 -467.729)" style="fill:url(#ym4zflgt6f)"/>
                <path data-name="패스 19185" d="m2303.2 530.554-14.368-6.66 3.334-2.6 13.822 6.3z" transform="translate(-2262.953 -468.123)" style="fill:gray;opacity:.25;isolation:isolate"/>
                <path data-name="패스 19186" d="M2364.051 696.686c-1.758-.787 4.3-6.236 9.215-7.568 2.728-.727 3.758-1.635 6.547-1.7 3.153-.061 10.125-.182 13.337-.242.061 3.27.606 9.506.182 9.445-3.274.307-28.856.004-29.281.065z" transform="translate(-2279.492 -504.748)" style="fill:url(#2nnrzn65ib)"/>
                <path data-name="패스 19187" d="M2297.477 674.748c.122.545.182 2.846.606 3.209 1.88 1.453.122 2.3 2 3.693l.181.182c.061.061.364.3.3.424-2.122 3.814-4.425 6.962-5.577 10.171-1.577-.665-3.092-1.332-4.668-1.937a20.152 20.152 0 0 1-4.061-2.179c1.642-2.302 11.342-11.565 11.219-13.563z" transform="translate(-2262.387 -502.004)" style="fill:#f2a19c"/>
                <path data-name="패스 19188" d="M2262.734 683.367c-1.152-1.513 6.85-3.33 11.761-2.059 2.728.666 4.062.424 6.547 1.756 2.789 1.513 8.912 4.844 11.7 6.3-1.516 2.906-4.123 8.6-4.547 8.295-2.969-1.274-25.095-14.17-25.461-14.292z" transform="translate(-2257.167 -503.357)" style="fill:url(#vy9vwlytlg)"/>
                <path data-name="패스 19189" d="M2313.29 638.451c-1.394 2.059-1.636 4.844-2.122 7.387-1.152 6.478-5.4 11.685-12.306 16.77-4.911-3.874-7.4-5.57-12.367-9.445 14.307-15.2 24.795-36.448 30.979-57.4 2.91-9.93 7.82-19.678 7.214-30.213 5.456.605 10.367 1.756 15.52-.363 2.425 17.134-5.759 36.751-16.126 52.311a18.48 18.48 0 0 0-2.364 4.3 34.906 34.906 0 0 0-.909 5.025 16.031 16.031 0 0 1-4.183 8.173 25.607 25.607 0 0 0-3.336 3.455z" transform="translate(-2262.438 -477.816)" style="fill:#23286b"/>
                <path data-name="패스 19190" d="M2331.525 517.235c2.243-5.025 4.486-10.111 6.729-15.136 7.336 5.57 10.427 15.62 10.184 24.763-.3 10.837-.06 20.828 1.334 29.183-6.244 0-16.247 2.967-23.521 3.693 1.212-9.143 5.759-23.552 4.122-32.694a18.306 18.306 0 0 1-.485-4.783 17.413 17.413 0 0 1 1.637-5.026z" transform="translate(-2271.215 -463.886)" style="fill:url(#6cqzew3bkh)"/>
                <path data-name="패스 19191" d="M2325.7 539.03c2.243-9.385 4.547-18.951 6.79-28.336.363-1.574 1.03-3.451 2.606-3.875 1.516-.363 2.97.848 3.759 2.18 2 3.33 1.819 7.507 1.272 11.382a95.235 95.235 0 0 1-11.154 34.087 2.007 2.007 0 0 1-.727.848c-.667.3-1.395-.242-1.94-.726-5.031-4.723-10.245-10.293-17.1-11.262a35.772 35.772 0 0 0 7.942-10.6 48.978 48.978 0 0 0 3.577 4.177c1.091 1.211 2.667 3.027 3.819 4.117s.97 2.6 1.637 4.844c1.273-.848-1.152-5.752-.789-5.752-.061-.605 2.3 2.18 3.031 2.906.189-.479-1.323-2.9-2.723-3.99z" transform="translate(-2267.454 -464.914)" style="fill:#23286b"/>
                <path data-name="패스 19192" d="M2310.288 537.32c.545-.545 3.456-.242 2.97-.787-.485-.665-2.486-2.906-3.273-3.148a41.619 41.619 0 0 1-5.334-2.3c-1.334-.726-3.759-1.816-4.426-1.15-.424.424.182 1.211.667 1.574s3.82 1.816 4.365 2.119a18.008 18.008 0 0 1 5.031 3.692z" transform="translate(-2265.438 -469.986)" style="fill:#ffbeb6"/>
                <g data-name="그룹 1675">
                    <path data-name="패스 19193" d="M2332.345 528.742a.16.16 0 0 1-.182-.182 22.065 22.065 0 0 1 3.94-11.928l-1.7-.847 5.153-8.113a10.07 10.07 0 0 0 1.758-3.936 3.247 3.247 0 0 0-1.819-3.451c-.121-.06-.121-.121-.121-.242.06-.122.121-.122.242-.122 1.576.485 2.243 2.361 2.061 3.814a9.77 9.77 0 0 1-1.819 4.117l-4.971 7.749 1.7.848-.122.182a21.449 21.449 0 0 0-4 11.867.178.178 0 0 1-.12.244z" transform="translate(-2272.521 -463.406)" style="fill:#78a9ef"/>
                </g>
                <path data-name="패스 19194" d="M2297.834 521.507a1.317 1.317 0 0 0 .667-.061 10.058 10.058 0 0 0 5.638-4.42c.3-.605 2-2.664 2.3-3.27.364-.545.182-1.514-.485-1.635-2.122 2.846-4.365 5.812-7.457 7.629a2.2 2.2 0 0 0-.909.727.759.759 0 0 0 .246 1.03z" transform="translate(-2264.866 -466.099)" style="fill:url(#kozafjdw4i)"/>
                <path data-name="패스 19195" d="M2316.78 515.467c0 1.089-.909 1.756-2.728 1.937-.424.061-1.819-.182-2.061-.605-.909-1.332-3.031-1.332-4.183-2.543-.485-.545-.3-1.029.121-1.7.061-.182.425-.424.606-.363 1.577.484 3.153 1.029 4.729 1.513a25.817 25.817 0 0 1 3.031 1.09c.121.061.3.121.364.242.121.062.121.247.121.429z" transform="translate(-2267.079 -466.114)" style="fill:url(#lwop2o9bej)"/>
                <path data-name="패스 19196" d="M2303.283 517.218a.918.918 0 0 0-.606.726.7.7 0 0 0 .364.545 3.013 3.013 0 0 0 2.183.3c2-.242 4-.424 6-.665a7.244 7.244 0 0 0 2.728-.666 7.845 7.845 0 0 0-.242-1.15.331.331 0 0 0-.425-.3 33.7 33.7 0 0 1-4.971.485c-1.636.119-3.454-.062-5.031.725z" transform="translate(-2266.011 -466.957)" style="fill:#ffbeb6"/>
                <path data-name="패스 19197" d="M2333.1 501.735c.485 2.059 1.576 4.6 1.455 6.9 1.879-2.906 2.546-5.509 5.517-7.325a11.215 11.215 0 0 1-2.606-3.875c-.849 1.029-1.759 2-2.607 3.027a3.984 3.984 0 0 1-1.759 1.273z" transform="translate(-2272.727 -462.857)" style="fill:#e94a47"/>
                <path data-name="패스 19198" d="M2288.284 532.14c3.7 1.574 7.881 2 11.822 3.027a3.284 3.284 0 0 0 1.515.182c.486-.122.909-.605.728-.969-.909-.242-1.819-.485-2.728-.787-2.789-.788-5.578-1.575-8.427-2.18a5.255 5.255 0 0 0-1.7-.182 1.5 1.5 0 0 0-1.21.909z" transform="translate(-2262.833 -470.315)" style="fill:#ffbeb6"/>
                <path data-name="texture 5 2YAIWP9lgs5cW9APSuA8T" d="M2345.525 576.316c-.061 0-.122.061-.122.182 0 .061.061.121.182.121.061 0 .121-.06.121-.182-.06-.121-.121-.182-.182-.121zm-11.761 5.57c-.061-.06-.121 0-.182.061s0 .121.061.182.121 0 .182-.061 0-.121-.061-.182zm2.91 1.574c-.061-.06-.121 0-.182.061s0 .122.061.182c.06.061.121 0 .181-.06a.116.116 0 0 0-.061-.182zm2.667-5.933a.136.136 0 0 0 .122.242.113.113 0 0 0 0-.182c.06-.12-.063-.12-.122-.06zm2.122 2.543a.225.225 0 0 0-.06.182.221.221 0 0 0 .181.061.113.113 0 0 0 0-.182c0-.061-.122-.121-.122-.061zm-8.184 8.476c-.06 0-.121.061-.182.122 0 .06.061.121.122.182.06 0 .121-.061.182-.122-.001-.121-.062-.182-.122-.182zm3.334.363c-.06 0-.121.061-.182.122 0 .061.061.121.122.182.06 0 .121-.061.181-.121 0-.122-.061-.182-.121-.182zm5.335-13.38c-.061 0-.061.121 0 .182 0 .061.121.061.181 0 .061 0 .061-.122 0-.182-.061 0-.121-.061-.181 0zm1.636 2.482c-.06 0-.06.122 0 .182 0 .06.122.06.182 0 .061 0 .061-.122 0-.182-.061 0-.122-.06-.182 0zm-8.547 7.811a.224.224 0 0 0-.182.06.222.222 0 0 0 .061.182.223.223 0 0 0 .182-.06c.061-.122.061-.182-.06-.182zm2.91.545a.221.221 0 0 0-.182.061.224.224 0 0 0 .06.182.223.223 0 0 0 .182-.061c.061-.061 0-.121-.061-.182zm.97-5.751c-.061-.061-.121 0-.182.06s0 .122.061.182.121 0 .182-.06a.221.221 0 0 0-.061-.182zm.182-6.418c-.061-.06-.121 0-.182.061s0 .121.061.182.121 0 .181-.061a.116.116 0 0 0-.061-.182zm2.85 1.877c-.061-.061-.122 0-.183.061s0 .121.061.182.122 0 .182-.061 0-.121-.061-.182zm2.849 1.877c-.06-.061-.121 0-.182.06s0 .122.061.182.121 0 .181-.061a.221.221 0 0 0-.058-.182zm-8.547 10.293c-.061 0-.122.06-.122.182 0 .06.061.121.181.121.061 0 .122-.06.122-.182s-.122-.182-.181-.121zm12.912-12.351a.223.223 0 0 0-.182-.061m-11.094 5.147c-.061 0-.121.06-.182.121 0 .061.061.122.121.182.061 0 .122-.06.182-.121 0-.061-.061-.182-.122-.182zm-.121-2.3c-.061 0-.122.061-.182.122 0 .06.061.121.121.182.061 0 .121 0 .182-.122 0-.121-.061-.182-.121-.182zm3.334.787c-.061 0-.121.061-.182.122 0 .06 0 .121.122.182.061 0 .121-.061.181-.122 0-.121-.061-.182-.121-.182zm4.122-4.42c-.061-.061-.122 0-.182.061-.061.061 0 .121.06.242.061.06.122 0 .243-.061-.061-.121-.061-.182-.122-.242zm.364 1.332c-.061 0-.122 0-.122.06s0 .122.061.122.122 0 .122-.061 0-.121-.061-.121z" transform="translate(-2272.727 -479.799)" style="fill:#fff"/>
            </g>
        </g>
    </g>
</svg>
