<svg xmlns="http://www.w3.org/2000/svg" width="105.997" height="22" viewBox="0 0 105.997 22">
    <g data-name="그룹 1106">
        <path data-name="패스 18960" d="M501.147 733.87a2.728 2.728 0 0 0-1.253-.213 2.683 2.683 0 0 0-1.253.217.607.607 0 0 0 0 1.109 3.7 3.7 0 0 0 2.506 0 .61.61 0 0 0 0-1.113z" transform="translate(-407.418 -720.953)" style="fill:#71a5d9"/>
        <path data-name="패스 18961" d="M498.107 707.556a10.1 10.1 0 0 0-10 10.169 10.214 10.214 0 0 0 3.473 7.688l-2.583 2a.27.27 0 0 0-.089.3.262.262 0 0 0 .248.182h8.661a.227.227 0 0 0 .058-.012c.078 0 .154.012.232.012a10.171 10.171 0 0 0 0-20.339zm-6.962 11.154a.81.81 0 0 1-.171-.593v-1.163a.811.811 0 0 1 .171-.593.825.825 0 0 1 .594-.167h1.919c.086 0 .117-.032.117-.12v-.65a.093.093 0 0 0-.117-.12h-2.315a.317.317 0 0 1-.286-.147.619.619 0 0 1 0-.619.322.322 0 0 1 .287-.148h2.693a.829.829 0 0 1 .594.166.815.815 0 0 1 .17.593v1.151a.813.813 0 0 1-.17.593.824.824 0 0 1-.594.167h-1.92a.138.138 0 0 0-.1.023c-.005 0-.022.025-.022.1v.669c0 .07.019.11.117.11.586 0 1.147-.016 1.667-.045s1.022-.081 1.495-.146a.355.355 0 0 1 .307.092.466.466 0 0 1 .133.293.616.616 0 0 1-.046.326.317.317 0 0 1-.269.194c-.2.03-.434.058-.681.083s-.515.045-.809.064-.628.033-.98.041-.766.014-1.2.014a.823.823 0 0 1-.584-.168zm5.381 3.579a4.916 4.916 0 0 1-3.882 0 1.479 1.479 0 0 1 0-2.522 3.969 3.969 0 0 1 1.941-.393 3.93 3.93 0 0 1 1.941.4 1.473 1.473 0 0 1 0 2.517zm.662-5.207v1.888a.394.394 0 0 1-.167.345.626.626 0 0 1-.356.1.618.618 0 0 1-.354-.1.388.388 0 0 1-.167-.345v-4.534a.4.4 0 0 1 .167-.355.667.667 0 0 1 .71 0 .4.4 0 0 1 .167.355v1.7h.919a.347.347 0 0 1 .317.153.572.572 0 0 1 .087.314.581.581 0 0 1-.089.329.35.35 0 0 1-.315.146zm7.71 5.14a.394.394 0 0 1-.172.354.642.642 0 0 1-.7 0 .4.4 0 0 1-.171-.354v-1.337a.143.143 0 0 0-.023-.1.141.141 0 0 0-.1-.022H499.5a.33.33 0 0 1-.294-.143.549.549 0 0 1-.083-.307.543.543 0 0 1 .083-.3.326.326 0 0 1 .294-.143h4.631a.827.827 0 0 1 .594.167.808.808 0 0 1 .17.592zm.64-2.812h-6.954a.33.33 0 0 1-.288-.141.578.578 0 0 1 0-.615.329.329 0 0 1 .288-.141h2.964v-.6h-1.532a.823.823 0 0 1-.594-.168.809.809 0 0 1-.17-.592v-2.162a.814.814 0 0 1 .17-.593.83.83 0 0 1 .594-.167h4.477a.313.313 0 0 1 .28.138.54.54 0 0 1 .079.3.53.53 0 0 1-.079.292.311.311 0 0 1-.28.138h-4.161c-.057 0-.073.016-.073.074v.468h4.141a.308.308 0 0 1 .281.139.553.553 0 0 1 0 .57.312.312 0 0 1-.28.132h-4.144v.487c0 .046.01.065.073.065h4.314a.307.307 0 0 1 .282.143.556.556 0 0 1 .078.3.565.565 0 0 1-.077.3.312.312 0 0 1-.283.144h-2.073v.6h2.964a.329.329 0 0 1 .288.141.57.57 0 0 1 0 .615.329.329 0 0 1-.285.131z" transform="translate(-402.11 -707.556)" style="fill:#71a5d9"/>
    </g>
    <text transform="translate(0 17)" style="font-size:20px;font-family:NanumSquareRoundOTFEB,NanumSquareRoundOTF;letter-spacing:-.032em;fill:#71a5d9"><tspan x="0" y="0">Rangtalk</tspan></text>
</svg>
